<?xml version="1.0" encoding="utf-8" standalone="no"?>
<!DOCTYPE svg PUBLIC "-//W3C//DTD SVG 1.1//EN"
  "http://www.w3.org/Graphics/SVG/1.1/DTD/svg11.dtd">
<!-- Created with matplotlib (http://matplotlib.org/) -->
<svg height="360pt" version="1.1" viewBox="0 0 360 360" width="360pt" xmlns="http://www.w3.org/2000/svg" xmlns:xlink="http://www.w3.org/1999/xlink">
 <defs>
  <style type="text/css">
*{stroke-linecap:butt;stroke-linejoin:round;stroke-miterlimit:100000;}
  </style>
 </defs>
 <g id="figure_1">
  <g id="patch_1">
   <path d="M 0 360 
L 360 360 
L 360 0 
L 0 0 
z
" style="fill:#ffffff;"/>
  </g>
  <g id="axes_1">
   <g id="line2d_1">
    <path clip-path="url(#pe2275b439e)" d="M 45.768734 167.6 
L 92.698684 167.6 
L 93.574126 151.642738 
L 94.449568 139.599484 
L 95.325011 130.510208 
L 96.200453 123.650356 
L 97.075895 118.473094 
L 97.951337 114.565714 
L 98.826779 111.616739 
L 99.733487 109.322609 
L 100.640195 107.608498 
L 101.578168 106.289914 
L 102.578674 105.259399 
L 103.672976 104.453803 
L 104.892342 103.834138 
L 106.330568 103.356137 
L 108.143984 102.996884 
L 110.613982 102.748097 
L 114.553471 102.600706 
L 123.495487 102.546123 
L 217.761842 102.542857 
L 218.637284 86.585595 
L 219.512726 74.542341 
L 220.388168 65.453065 
L 221.263611 58.593213 
L 222.139053 53.415951 
L 223.014495 49.508571 
L 223.889937 46.559596 
L 224.796645 44.265466 
L 225.703353 42.551355 
L 226.641326 41.232771 
L 227.641832 40.202257 
L 228.736134 39.39666 
L 229.9555 38.776996 
L 231.393726 38.298994 
L 233.207142 37.939741 
L 235.677139 37.690954 
L 239.616629 37.543563 
L 248.558645 37.48898 
L 342.793734 37.485714 
L 342.793734 37.485714 
" style="fill:none;stroke:#e74c3c;stroke-linecap:square;"/>
   </g>
   <g id="line2d_2">
    <path clip-path="url(#pe2275b439e)" d="M 45.768734 167.6 
L 94.136911 167.6 
L 94.168176 124.228571 
L 94.261974 124.358556 
L 97.232224 128.27927 
L 100.265005 131.915967 
L 100.358803 132.022912 
L 100.390068 88.687061 
L 100.483866 88.923563 
L 103.266521 95.626415 
L 106.049176 101.758216 
L 108.863097 107.42785 
L 111.708284 112.664263 
L 114.584737 117.495137 
L 117.492455 121.946899 
L 120.024984 125.500705 
L 120.05625 82.171375 
L 120.150047 82.427405 
L 122.901437 89.605704 
L 125.684092 96.250441 
L 128.466747 102.329078 
L 131.280668 107.949555 
L 134.125855 113.140567 
L 137.002308 117.929557 
L 139.910026 122.342721 
L 141.692176 124.851462 
L 141.723442 81.522782 
L 141.817239 81.780755 
L 144.568629 89.013554 
L 147.351284 95.708739 
L 150.133939 101.833526 
L 152.947861 107.496675 
L 155.793047 112.727099 
L 158.6695 117.552448 
L 161.577218 121.999118 
L 163.390634 124.569979 
L 163.4219 81.24158 
L 163.515697 81.500396 
L 166.267087 88.756823 
L 169.049742 95.47388 
L 171.832397 101.618677 
L 174.646318 107.300326 
L 177.491505 112.547837 
L 180.367958 117.38895 
L 183.275676 121.850146 
L 185.057826 124.386192 
L 185.089092 81.057977 
L 185.182889 81.317344 
L 187.934279 88.589198 
L 190.716934 95.320536 
L 193.499589 101.478397 
L 196.313511 107.172126 
L 199.158697 112.430793 
L 202.03515 117.282198 
L 204.942868 121.752879 
L 206.756284 124.337622 
L 206.78755 81.009456 
L 206.881347 81.268968 
L 209.632737 88.544899 
L 212.415392 95.280012 
L 215.198047 101.441325 
L 218.011968 107.138246 
L 218.637284 108.336062 
L 218.66855 65.023898 
L 218.762347 65.331318 
L 221.482471 73.856722 
L 222.045255 75.529835 
L 222.076521 32.250477 
L 222.170318 32.656119 
L 224.890442 43.90542 
L 227.610566 54.216947 
L 229.455247 60.716184 
L 229.486513 17.451639 
L 229.580311 17.901634 
L 232.269168 30.243553 
L 234.989292 41.693972 
L 237.709416 52.189852 
L 239.710426 59.34817 
L 239.741692 16.084993 
L 239.835489 16.539084 
L 242.524347 28.993339 
L 245.244471 40.547979 
L 247.964595 51.139392 
L 250.215732 59.23371 
L 250.246997 15.970648 
L 250.340795 16.425081 
L 253.029653 28.888735 
L 255.749776 40.452095 
L 258.4699 51.051502 
L 260.752303 59.260376 
L 260.783568 15.997287 
L 260.877366 16.451641 
L 263.566224 28.913105 
L 266.286347 40.474434 
L 269.006471 51.071978 
L 271.288874 59.27941 
L 271.320139 16.016302 
L 271.413937 16.470599 
L 274.102795 28.9305 
L 276.822918 40.490379 
L 279.543042 51.086593 
L 281.794179 59.184581 
L 281.825445 15.921568 
L 281.919242 16.376148 
L 284.6081 28.843836 
L 287.328224 40.41094 
L 290.048347 51.013776 
L 292.33075 59.225308 
L 292.362016 15.962254 
L 292.455813 16.416713 
L 295.144671 28.881057 
L 297.864795 40.445057 
L 300.584918 51.04505 
L 302.867321 59.254379 
L 302.898587 15.991296 
L 302.992384 16.445667 
L 305.681242 28.907624 
L 308.401366 40.46941 
L 311.121489 51.067373 
L 313.403892 59.275129 
L 313.435158 16.012026 
L 313.528955 16.466335 
L 316.217813 28.926588 
L 318.937937 40.486793 
L 321.658061 51.083306 
L 323.909197 59.181522 
L 323.940463 15.918512 
L 324.034261 16.373102 
L 326.723118 28.841041 
L 329.443242 40.408377 
L 332.163366 51.011428 
L 334.445768 59.223125 
L 334.477034 15.960073 
L 334.570832 16.414538 
L 337.259689 28.879062 
L 339.979813 40.443228 
L 342.699937 51.043374 
L 342.793734 51.392694 
L 342.793734 51.392694 
" style="fill:none;stroke:#2980b9;stroke-linecap:square;"/>
   </g>
   <g id="legend_1">
    <g id="line2d_3">
     <path d="M 257.525625 138.490625 
L 274.325625 138.490625 
" style="fill:none;stroke:#e74c3c;stroke-linecap:square;"/>
    </g>
    <g id="line2d_4"/>
    <g id="text_1">
     <!-- Signal -->
     <defs>
      <path d="M 9.421875 75.984375 
L 18.40625 75.984375 
L 18.40625 0 
L 9.421875 0 
z
" id="BitstreamVeraSans-Roman-6c"/>
      <path d="M 9.421875 54.6875 
L 18.40625 54.6875 
L 18.40625 0 
L 9.421875 0 
z
M 9.421875 75.984375 
L 18.40625 75.984375 
L 18.40625 64.59375 
L 9.421875 64.59375 
z
" id="BitstreamVeraSans-Roman-69"/>
      <path d="M 54.890625 33.015625 
L 54.890625 0 
L 45.90625 0 
L 45.90625 32.71875 
Q 45.90625 40.484375 42.875 44.328125 
Q 39.84375 48.1875 33.796875 48.1875 
Q 26.515625 48.1875 22.3125 43.546875 
Q 18.109375 38.921875 18.109375 30.90625 
L 18.109375 0 
L 9.078125 0 
L 9.078125 54.6875 
L 18.109375 54.6875 
L 18.109375 46.1875 
Q 21.34375 51.125 25.703125 53.5625 
Q 30.078125 56 35.796875 56 
Q 45.21875 56 50.046875 50.171875 
Q 54.890625 44.34375 54.890625 33.015625 
" id="BitstreamVeraSans-Roman-6e"/>
      <path d="M 45.40625 27.984375 
Q 45.40625 37.75 41.375 43.109375 
Q 37.359375 48.484375 30.078125 48.484375 
Q 22.859375 48.484375 18.828125 43.109375 
Q 14.796875 37.75 14.796875 27.984375 
Q 14.796875 18.265625 18.828125 12.890625 
Q 22.859375 7.515625 30.078125 7.515625 
Q 37.359375 7.515625 41.375 12.890625 
Q 45.40625 18.265625 45.40625 27.984375 
M 54.390625 6.78125 
Q 54.390625 -7.171875 48.1875 -13.984375 
Q 42 -20.796875 29.203125 -20.796875 
Q 24.46875 -20.796875 20.265625 -20.09375 
Q 16.0625 -19.390625 12.109375 -17.921875 
L 12.109375 -9.1875 
Q 16.0625 -11.328125 19.921875 -12.34375 
Q 23.78125 -13.375 27.78125 -13.375 
Q 36.625 -13.375 41.015625 -8.765625 
Q 45.40625 -4.15625 45.40625 5.171875 
L 45.40625 9.625 
Q 42.625 4.78125 38.28125 2.390625 
Q 33.9375 0 27.875 0 
Q 17.828125 0 11.671875 7.65625 
Q 5.515625 15.328125 5.515625 27.984375 
Q 5.515625 40.671875 11.671875 48.328125 
Q 17.828125 56 27.875 56 
Q 33.9375 56 38.28125 53.609375 
Q 42.625 51.21875 45.40625 46.390625 
L 45.40625 54.6875 
L 54.390625 54.6875 
z
" id="BitstreamVeraSans-Roman-67"/>
      <path d="M 34.28125 27.484375 
Q 23.390625 27.484375 19.1875 25 
Q 14.984375 22.515625 14.984375 16.5 
Q 14.984375 11.71875 18.140625 8.90625 
Q 21.296875 6.109375 26.703125 6.109375 
Q 34.1875 6.109375 38.703125 11.40625 
Q 43.21875 16.703125 43.21875 25.484375 
L 43.21875 27.484375 
z
M 52.203125 31.203125 
L 52.203125 0 
L 43.21875 0 
L 43.21875 8.296875 
Q 40.140625 3.328125 35.546875 0.953125 
Q 30.953125 -1.421875 24.3125 -1.421875 
Q 15.921875 -1.421875 10.953125 3.296875 
Q 6 8.015625 6 15.921875 
Q 6 25.140625 12.171875 29.828125 
Q 18.359375 34.515625 30.609375 34.515625 
L 43.21875 34.515625 
L 43.21875 35.40625 
Q 43.21875 41.609375 39.140625 45 
Q 35.0625 48.390625 27.6875 48.390625 
Q 23 48.390625 18.546875 47.265625 
Q 14.109375 46.140625 10.015625 43.890625 
L 10.015625 52.203125 
Q 14.9375 54.109375 19.578125 55.046875 
Q 24.21875 56 28.609375 56 
Q 40.484375 56 46.34375 49.84375 
Q 52.203125 43.703125 52.203125 31.203125 
" id="BitstreamVeraSans-Roman-61"/>
      <path d="M 53.515625 70.515625 
L 53.515625 60.890625 
Q 47.90625 63.578125 42.921875 64.890625 
Q 37.9375 66.21875 33.296875 66.21875 
Q 25.25 66.21875 20.875 63.09375 
Q 16.5 59.96875 16.5 54.203125 
Q 16.5 49.359375 19.40625 46.890625 
Q 22.3125 44.4375 30.421875 42.921875 
L 36.375 41.703125 
Q 47.40625 39.59375 52.65625 34.296875 
Q 57.90625 29 57.90625 20.125 
Q 57.90625 9.515625 50.796875 4.046875 
Q 43.703125 -1.421875 29.984375 -1.421875 
Q 24.8125 -1.421875 18.96875 -0.25 
Q 13.140625 0.921875 6.890625 3.21875 
L 6.890625 13.375 
Q 12.890625 10.015625 18.65625 8.296875 
Q 24.421875 6.59375 29.984375 6.59375 
Q 38.421875 6.59375 43.015625 9.90625 
Q 47.609375 13.234375 47.609375 19.390625 
Q 47.609375 24.75 44.3125 27.78125 
Q 41.015625 30.8125 33.5 32.328125 
L 27.484375 33.5 
Q 16.453125 35.6875 11.515625 40.375 
Q 6.59375 45.0625 6.59375 53.421875 
Q 6.59375 63.09375 13.40625 68.65625 
Q 20.21875 74.21875 32.171875 74.21875 
Q 37.3125 74.21875 42.625 73.28125 
Q 47.953125 72.359375 53.515625 70.515625 
" id="BitstreamVeraSans-Roman-53"/>
     </defs>
     <g transform="translate(287.525625 142.690625)scale(0.12 -0.12)">
      <use xlink:href="#BitstreamVeraSans-Roman-53"/>
      <use x="63.4765625" xlink:href="#BitstreamVeraSans-Roman-69"/>
      <use x="91.259765625" xlink:href="#BitstreamVeraSans-Roman-67"/>
      <use x="154.736328125" xlink:href="#BitstreamVeraSans-Roman-6e"/>
      <use x="218.115234375" xlink:href="#BitstreamVeraSans-Roman-61"/>
      <use x="279.39453125" xlink:href="#BitstreamVeraSans-Roman-6c"/>
     </g>
    </g>
    <g id="line2d_5">
     <path d="M 257.525625 156.104375 
L 274.325625 156.104375 
" style="fill:none;stroke:#2980b9;stroke-linecap:square;"/>
    </g>
    <g id="line2d_6"/>
    <g id="text_2">
     <!-- Decoder -->
     <defs>
      <path d="M 56.203125 29.59375 
L 56.203125 25.203125 
L 14.890625 25.203125 
Q 15.484375 15.921875 20.484375 11.0625 
Q 25.484375 6.203125 34.421875 6.203125 
Q 39.59375 6.203125 44.453125 7.46875 
Q 49.3125 8.734375 54.109375 11.28125 
L 54.109375 2.78125 
Q 49.265625 0.734375 44.1875 -0.34375 
Q 39.109375 -1.421875 33.890625 -1.421875 
Q 20.796875 -1.421875 13.15625 6.1875 
Q 5.515625 13.8125 5.515625 26.8125 
Q 5.515625 40.234375 12.765625 48.109375 
Q 20.015625 56 32.328125 56 
Q 43.359375 56 49.78125 48.890625 
Q 56.203125 41.796875 56.203125 29.59375 
M 47.21875 32.234375 
Q 47.125 39.59375 43.09375 43.984375 
Q 39.0625 48.390625 32.421875 48.390625 
Q 24.90625 48.390625 20.390625 44.140625 
Q 15.875 39.890625 15.1875 32.171875 
z
" id="BitstreamVeraSans-Roman-65"/>
      <path d="M 30.609375 48.390625 
Q 23.390625 48.390625 19.1875 42.75 
Q 14.984375 37.109375 14.984375 27.296875 
Q 14.984375 17.484375 19.15625 11.84375 
Q 23.34375 6.203125 30.609375 6.203125 
Q 37.796875 6.203125 41.984375 11.859375 
Q 46.1875 17.53125 46.1875 27.296875 
Q 46.1875 37.015625 41.984375 42.703125 
Q 37.796875 48.390625 30.609375 48.390625 
M 30.609375 56 
Q 42.328125 56 49.015625 48.375 
Q 55.71875 40.765625 55.71875 27.296875 
Q 55.71875 13.875 49.015625 6.21875 
Q 42.328125 -1.421875 30.609375 -1.421875 
Q 18.84375 -1.421875 12.171875 6.21875 
Q 5.515625 13.875 5.515625 27.296875 
Q 5.515625 40.765625 12.171875 48.375 
Q 18.84375 56 30.609375 56 
" id="BitstreamVeraSans-Roman-6f"/>
      <path d="M 45.40625 46.390625 
L 45.40625 75.984375 
L 54.390625 75.984375 
L 54.390625 0 
L 45.40625 0 
L 45.40625 8.203125 
Q 42.578125 3.328125 38.25 0.953125 
Q 33.9375 -1.421875 27.875 -1.421875 
Q 17.96875 -1.421875 11.734375 6.484375 
Q 5.515625 14.40625 5.515625 27.296875 
Q 5.515625 40.1875 11.734375 48.09375 
Q 17.96875 56 27.875 56 
Q 33.9375 56 38.25 53.625 
Q 42.578125 51.265625 45.40625 46.390625 
M 14.796875 27.296875 
Q 14.796875 17.390625 18.875 11.75 
Q 22.953125 6.109375 30.078125 6.109375 
Q 37.203125 6.109375 41.296875 11.75 
Q 45.40625 17.390625 45.40625 27.296875 
Q 45.40625 37.203125 41.296875 42.84375 
Q 37.203125 48.484375 30.078125 48.484375 
Q 22.953125 48.484375 18.875 42.84375 
Q 14.796875 37.203125 14.796875 27.296875 
" id="BitstreamVeraSans-Roman-64"/>
      <path d="M 48.78125 52.59375 
L 48.78125 44.1875 
Q 44.96875 46.296875 41.140625 47.34375 
Q 37.3125 48.390625 33.40625 48.390625 
Q 24.65625 48.390625 19.8125 42.84375 
Q 14.984375 37.3125 14.984375 27.296875 
Q 14.984375 17.28125 19.8125 11.734375 
Q 24.65625 6.203125 33.40625 6.203125 
Q 37.3125 6.203125 41.140625 7.25 
Q 44.96875 8.296875 48.78125 10.40625 
L 48.78125 2.09375 
Q 45.015625 0.34375 40.984375 -0.53125 
Q 36.96875 -1.421875 32.421875 -1.421875 
Q 20.0625 -1.421875 12.78125 6.34375 
Q 5.515625 14.109375 5.515625 27.296875 
Q 5.515625 40.671875 12.859375 48.328125 
Q 20.21875 56 33.015625 56 
Q 37.15625 56 41.109375 55.140625 
Q 45.0625 54.296875 48.78125 52.59375 
" id="BitstreamVeraSans-Roman-63"/>
      <path d="M 41.109375 46.296875 
Q 39.59375 47.171875 37.8125 47.578125 
Q 36.03125 48 33.890625 48 
Q 26.265625 48 22.1875 43.046875 
Q 18.109375 38.09375 18.109375 28.8125 
L 18.109375 0 
L 9.078125 0 
L 9.078125 54.6875 
L 18.109375 54.6875 
L 18.109375 46.1875 
Q 20.953125 51.171875 25.484375 53.578125 
Q 30.03125 56 36.53125 56 
Q 37.453125 56 38.578125 55.875 
Q 39.703125 55.765625 41.0625 55.515625 
z
" id="BitstreamVeraSans-Roman-72"/>
      <path d="M 19.671875 64.796875 
L 19.671875 8.109375 
L 31.59375 8.109375 
Q 46.6875 8.109375 53.6875 14.9375 
Q 60.6875 21.78125 60.6875 36.53125 
Q 60.6875 51.171875 53.6875 57.984375 
Q 46.6875 64.796875 31.59375 64.796875 
z
M 9.8125 72.90625 
L 30.078125 72.90625 
Q 51.265625 72.90625 61.171875 64.09375 
Q 71.09375 55.28125 71.09375 36.53125 
Q 71.09375 17.671875 61.125 8.828125 
Q 51.171875 0 30.078125 0 
L 9.8125 0 
z
" id="BitstreamVeraSans-Roman-44"/>
     </defs>
     <g transform="translate(287.525625 160.304375)scale(0.12 -0.12)">
      <use xlink:href="#BitstreamVeraSans-Roman-44"/>
      <use x="77.001953125" xlink:href="#BitstreamVeraSans-Roman-65"/>
      <use x="138.525390625" xlink:href="#BitstreamVeraSans-Roman-63"/>
      <use x="193.505859375" xlink:href="#BitstreamVeraSans-Roman-6f"/>
      <use x="254.6875" xlink:href="#BitstreamVeraSans-Roman-64"/>
      <use x="318.1640625" xlink:href="#BitstreamVeraSans-Roman-65"/>
      <use x="379.6875" xlink:href="#BitstreamVeraSans-Roman-72"/>
     </g>
    </g>
   </g>
  </g>
  <g id="axes_2">
   <g id="LineCollection_1">
    <path clip-path="url(#p7c0042d5af)" d="M 120.05625 302.671429 
L 120.05625 287.491429 
" style="fill:none;stroke:#2ecc71;stroke-width:2.0;"/>
    <path clip-path="url(#p7c0042d5af)" d="M 141.723442 302.671429 
L 141.723442 287.491429 
" style="fill:none;stroke:#2ecc71;stroke-width:2.0;"/>
    <path clip-path="url(#p7c0042d5af)" d="M 163.4219 302.671429 
L 163.4219 287.491429 
" style="fill:none;stroke:#2ecc71;stroke-width:2.0;"/>
    <path clip-path="url(#p7c0042d5af)" d="M 185.089092 302.671429 
L 185.089092 287.491429 
" style="fill:none;stroke:#2ecc71;stroke-width:2.0;"/>
    <path clip-path="url(#p7c0042d5af)" d="M 218.66855 302.671429 
L 218.66855 287.491429 
" style="fill:none;stroke:#2ecc71;stroke-width:2.0;"/>
    <path clip-path="url(#p7c0042d5af)" d="M 222.076521 302.671429 
L 222.076521 287.491429 
" style="fill:none;stroke:#2ecc71;stroke-width:2.0;"/>
    <path clip-path="url(#p7c0042d5af)" d="M 229.486513 302.671429 
L 229.486513 287.491429 
" style="fill:none;stroke:#2ecc71;stroke-width:2.0;"/>
    <path clip-path="url(#p7c0042d5af)" d="M 302.898587 302.671429 
L 302.898587 287.491429 
" style="fill:none;stroke:#2ecc71;stroke-width:2.0;"/>
   </g>
   <g id="LineCollection_2">
    <path clip-path="url(#p7c0042d5af)" d="M 94.168176 259.3 
L 94.168176 244.12 
" style="fill:none;stroke:#9b59b6;stroke-width:2.0;"/>
    <path clip-path="url(#p7c0042d5af)" d="M 239.741692 259.3 
L 239.741692 244.12 
" style="fill:none;stroke:#9b59b6;stroke-width:2.0;"/>
    <path clip-path="url(#p7c0042d5af)" d="M 260.783568 259.3 
L 260.783568 244.12 
" style="fill:none;stroke:#9b59b6;stroke-width:2.0;"/>
    <path clip-path="url(#p7c0042d5af)" d="M 313.435158 259.3 
L 313.435158 244.12 
" style="fill:none;stroke:#9b59b6;stroke-width:2.0;"/>
    <path clip-path="url(#p7c0042d5af)" d="M 323.940463 259.3 
L 323.940463 244.12 
" style="fill:none;stroke:#9b59b6;stroke-width:2.0;"/>
    <path clip-path="url(#p7c0042d5af)" d="M 334.477034 259.3 
L 334.477034 244.12 
" style="fill:none;stroke:#9b59b6;stroke-width:2.0;"/>
   </g>
   <g id="LineCollection_3">
    <path clip-path="url(#p7c0042d5af)" d="M 100.390068 215.928571 
L 100.390068 200.748571 
" style="fill:none;stroke:#f1c40f;stroke-width:2.0;"/>
    <path clip-path="url(#p7c0042d5af)" d="M 206.78755 215.928571 
L 206.78755 200.748571 
" style="fill:none;stroke:#f1c40f;stroke-width:2.0;"/>
    <path clip-path="url(#p7c0042d5af)" d="M 250.246997 215.928571 
L 250.246997 200.748571 
" style="fill:none;stroke:#f1c40f;stroke-width:2.0;"/>
    <path clip-path="url(#p7c0042d5af)" d="M 271.320139 215.928571 
L 271.320139 200.748571 
" style="fill:none;stroke:#f1c40f;stroke-width:2.0;"/>
    <path clip-path="url(#p7c0042d5af)" d="M 281.825445 215.928571 
L 281.825445 200.748571 
" style="fill:none;stroke:#f1c40f;stroke-width:2.0;"/>
    <path clip-path="url(#p7c0042d5af)" d="M 292.362016 215.928571 
L 292.362016 200.748571 
" style="fill:none;stroke:#f1c40f;stroke-width:2.0;"/>
   </g>
   <g id="LineCollection_4">
    <path clip-path="url(#p7c0042d5af)" d="M 94.168176 194.242857 
L 94.168176 172.557143 
" style="fill:none;stroke:#000000;stroke-width:2.0;"/>
    <path clip-path="url(#p7c0042d5af)" d="M 100.390068 194.242857 
L 100.390068 172.557143 
" style="fill:none;stroke:#000000;stroke-width:2.0;"/>
    <path clip-path="url(#p7c0042d5af)" d="M 120.05625 194.242857 
L 120.05625 172.557143 
" style="fill:none;stroke:#000000;stroke-width:2.0;"/>
    <path clip-path="url(#p7c0042d5af)" d="M 141.723442 194.242857 
L 141.723442 172.557143 
" style="fill:none;stroke:#000000;stroke-width:2.0;"/>
    <path clip-path="url(#p7c0042d5af)" d="M 163.4219 194.242857 
L 163.4219 172.557143 
" style="fill:none;stroke:#000000;stroke-width:2.0;"/>
    <path clip-path="url(#p7c0042d5af)" d="M 185.089092 194.242857 
L 185.089092 172.557143 
" style="fill:none;stroke:#000000;stroke-width:2.0;"/>
    <path clip-path="url(#p7c0042d5af)" d="M 206.78755 194.242857 
L 206.78755 172.557143 
" style="fill:none;stroke:#000000;stroke-width:2.0;"/>
    <path clip-path="url(#p7c0042d5af)" d="M 218.66855 194.242857 
L 218.66855 172.557143 
" style="fill:none;stroke:#000000;stroke-width:2.0;"/>
    <path clip-path="url(#p7c0042d5af)" d="M 222.076521 194.242857 
L 222.076521 172.557143 
" style="fill:none;stroke:#000000;stroke-width:2.0;"/>
    <path clip-path="url(#p7c0042d5af)" d="M 229.486513 194.242857 
L 229.486513 172.557143 
" style="fill:none;stroke:#000000;stroke-width:2.0;"/>
    <path clip-path="url(#p7c0042d5af)" d="M 239.741692 194.242857 
L 239.741692 172.557143 
" style="fill:none;stroke:#000000;stroke-width:2.0;"/>
    <path clip-path="url(#p7c0042d5af)" d="M 250.246997 194.242857 
L 250.246997 172.557143 
" style="fill:none;stroke:#000000;stroke-width:2.0;"/>
    <path clip-path="url(#p7c0042d5af)" d="M 260.783568 194.242857 
L 260.783568 172.557143 
" style="fill:none;stroke:#000000;stroke-width:2.0;"/>
    <path clip-path="url(#p7c0042d5af)" d="M 271.320139 194.242857 
L 271.320139 172.557143 
" style="fill:none;stroke:#000000;stroke-width:2.0;"/>
    <path clip-path="url(#p7c0042d5af)" d="M 281.825445 194.242857 
L 281.825445 172.557143 
" style="fill:none;stroke:#000000;stroke-width:2.0;"/>
    <path clip-path="url(#p7c0042d5af)" d="M 292.362016 194.242857 
L 292.362016 172.557143 
" style="fill:none;stroke:#000000;stroke-width:2.0;"/>
    <path clip-path="url(#p7c0042d5af)" d="M 302.898587 194.242857 
L 302.898587 172.557143 
" style="fill:none;stroke:#000000;stroke-width:2.0;"/>
    <path clip-path="url(#p7c0042d5af)" d="M 313.435158 194.242857 
L 313.435158 172.557143 
" style="fill:none;stroke:#000000;stroke-width:2.0;"/>
    <path clip-path="url(#p7c0042d5af)" d="M 323.940463 194.242857 
L 323.940463 172.557143 
" style="fill:none;stroke:#000000;stroke-width:2.0;"/>
    <path clip-path="url(#p7c0042d5af)" d="M 334.477034 194.242857 
L 334.477034 172.557143 
" style="fill:none;stroke:#000000;stroke-width:2.0;"/>
   </g>
   <g id="line2d_7">
    <path clip-path="url(#p7c0042d5af)" d="M 45.768734 320.095747 
L 51.771766 318.94549 
L 58.368847 317.911869 
L 65.716308 316.990478 
L 74.001742 316.180888 
L 83.506542 315.481568 
L 92.698684 314.980239 
L 93.574126 306.961111 
L 94.168176 302.666719 
L 94.199442 324.148211 
L 94.293239 323.482648 
L 95.199947 317.898617 
L 96.137921 313.448326 
L 97.107161 309.903219 
L 98.107666 307.071864 
L 99.139437 304.79664 
L 100.233739 302.901673 
L 100.390068 302.665256 
L 100.421334 324.304586 
L 100.515132 324.102194 
L 101.890826 321.416515 
L 103.454116 318.857124 
L 105.236266 316.367581 
L 107.331074 313.827776 
L 109.769805 311.224205 
L 112.552461 308.57992 
L 115.647774 305.948232 
L 118.961947 303.425139 
L 120.05625 302.651127 
L 120.087516 324.315139 
L 120.181313 324.18515 
L 123.151563 320.26576 
L 126.184345 316.631859 
L 129.279658 313.269982 
L 132.437503 310.166918 
L 135.689145 307.283134 
L 139.034584 304.613338 
L 141.723442 302.665347 
L 141.754708 324.329389 
L 141.848505 324.199488 
L 144.818755 320.28128 
L 147.851537 316.646909 
L 150.94685 313.283981 
L 154.104695 310.179709 
L 157.356337 307.294712 
L 160.701776 304.623759 
L 163.4219 302.653225 
L 163.453166 324.317279 
L 163.546963 324.187414 
L 166.517213 320.270304 
L 169.549995 316.636949 
L 172.645308 313.274961 
L 175.803153 310.171556 
L 179.054795 307.287364 
L 182.400234 304.617157 
L 185.089092 302.668857 
L 185.120358 324.332895 
L 185.214155 324.202984 
L 188.184405 320.284461 
L 191.217187 316.649797 
L 194.3125 313.286597 
L 197.470345 310.182074 
L 200.721987 307.296843 
L 204.067426 304.625674 
L 206.78755 302.65498 
L 206.818816 324.319025 
L 206.912613 324.189155 
L 209.882863 320.271887 
L 212.915645 316.638386 
L 216.010958 313.276262 
L 217.761842 311.516835 
L 218.66855 302.419587 
L 218.699816 323.832606 
L 218.793613 322.96417 
L 219.762853 315.151917 
L 220.732092 309.060441 
L 221.763863 303.964776 
L 222.076521 302.642419 
L 222.107787 324.200814 
L 222.201584 323.758961 
L 223.358418 318.881719 
L 224.60905 314.548442 
L 225.984745 310.570342 
L 227.516768 306.809618 
L 229.267653 303.098611 
L 229.486513 302.668172 
L 229.517779 324.292927 
L 229.611576 324.045801 
L 231.768916 318.691046 
L 234.176382 313.316025 
L 236.771442 308.066803 
L 239.491566 303.061515 
L 239.741692 302.62412 
L 239.772958 324.255417 
L 239.866755 324.027515 
L 242.618145 317.645067 
L 245.4008 311.745014 
L 248.214721 306.293003 
L 250.246997 302.650723 
L 250.278263 324.282236 
L 250.372061 324.054963 
L 253.154716 317.613933 
L 255.968637 311.658654 
L 258.782558 306.216297 
L 260.783568 302.633758 
L 260.814834 324.265296 
L 260.908632 324.038098 
L 263.691287 317.59895 
L 266.505208 311.645145 
L 269.319129 306.204026 
L 271.320139 302.622272 
L 271.351405 324.253822 
L 271.445203 324.026659 
L 274.227858 317.588501 
L 277.041779 311.635602 
L 279.8557 306.195307 
L 281.825445 302.668306 
L 281.856711 324.299809 
L 281.950508 324.072509 
L 284.733163 317.630445 
L 287.547084 311.673934 
L 290.361005 306.230338 
L 292.362016 302.646954 
L 292.393282 324.278478 
L 292.487079 324.051242 
L 295.269734 317.61099 
L 298.083655 311.656154 
L 300.897576 306.21409 
L 302.898587 302.631713 
L 302.929853 324.26326 
L 303.02365 324.036069 
L 305.806305 317.59711 
L 308.620226 311.64347 
L 311.434147 306.202497 
L 313.435158 302.620839 
L 313.466424 324.25239 
L 313.560221 324.025231 
L 316.342876 317.587196 
L 319.156797 311.634409 
L 321.970718 306.194217 
L 323.940463 302.667283 
L 323.971729 324.298787 
L 324.065526 324.071489 
L 326.848182 317.629513 
L 329.662103 311.673082 
L 332.476024 306.22956 
L 334.477034 302.646223 
L 334.5083 324.277749 
L 334.602097 324.050514 
L 337.384753 317.610325 
L 340.198674 311.655546 
L 342.793734 306.619451 
L 342.793734 306.619451 
" style="fill:none;stroke:#2ecc71;stroke-linecap:square;"/>
   </g>
   <g id="line2d_8">
    <path clip-path="url(#p7c0042d5af)" d="M 45.768734 276.724319 
L 51.771766 275.574061 
L 58.368847 274.540441 
L 65.716308 273.61905 
L 74.001742 272.809459 
L 83.506542 272.110139 
L 92.698684 271.608811 
L 93.574126 263.589682 
L 94.168176 259.295291 
L 94.199442 280.77679 
L 94.293239 280.111227 
L 95.199947 274.527196 
L 96.137921 270.076904 
L 97.107161 266.531797 
L 98.107666 263.700441 
L 99.139437 261.425217 
L 100.233739 259.53025 
L 100.390068 259.293833 
L 100.421334 280.933164 
L 100.515132 280.730771 
L 101.890826 278.045092 
L 103.454116 275.485701 
L 105.236266 272.996158 
L 107.331074 270.456352 
L 109.769805 267.85278 
L 112.552461 265.208496 
L 115.647774 262.576807 
L 118.961947 260.053714 
L 120.05625 259.279702 
L 120.087516 280.943706 
L 120.181313 280.813718 
L 123.151563 276.894328 
L 126.184345 273.260427 
L 129.279658 269.89855 
L 132.437503 266.795486 
L 135.689145 263.911703 
L 139.034584 261.241907 
L 141.723442 259.293916 
L 141.754708 280.957951 
L 141.848505 280.82805 
L 144.818755 276.909843 
L 147.851537 273.275473 
L 150.94685 269.912546 
L 154.104695 266.808275 
L 157.356337 263.923278 
L 160.701776 261.252325 
L 163.4219 259.281792 
L 163.453166 280.945839 
L 163.546963 280.815974 
L 166.517213 276.898864 
L 169.549995 273.265511 
L 172.645308 269.903523 
L 175.803153 266.800119 
L 179.054795 263.915929 
L 182.400234 261.245722 
L 185.089092 259.297422 
L 185.120358 280.961453 
L 185.214155 280.831542 
L 188.184405 276.913021 
L 191.217187 273.278358 
L 194.3125 269.915159 
L 197.470345 266.810637 
L 200.721987 263.925407 
L 204.067426 261.254238 
L 206.78755 259.283545 
L 206.818816 280.94759 
L 206.912613 280.81772 
L 209.882863 276.900452 
L 212.915645 273.266952 
L 216.010958 269.904829 
L 217.761842 268.145402 
L 218.66855 259.048154 
L 218.699816 280.461166 
L 218.793613 279.59273 
L 219.762853 271.780477 
L 220.732092 265.689002 
L 221.763863 260.593337 
L 222.076521 259.27098 
L 222.107787 280.829367 
L 222.201584 280.387515 
L 223.358418 275.510274 
L 224.60905 271.176997 
L 225.984745 267.198898 
L 227.516768 263.438174 
L 229.267653 259.727169 
L 229.486513 259.29673 
L 229.517779 280.921477 
L 229.611576 280.674351 
L 231.768916 275.319598 
L 234.176382 269.944578 
L 236.771442 264.695357 
L 239.491566 259.690071 
L 239.741692 259.252676 
L 239.772958 280.883981 
L 239.866755 280.656079 
L 242.618145 274.273631 
L 245.4008 268.373579 
L 248.214721 262.921569 
L 250.246997 259.279289 
L 250.278263 280.910801 
L 250.372061 280.683528 
L 253.154716 274.242499 
L 255.968637 268.287221 
L 258.782558 262.844864 
L 260.783568 259.262326 
L 260.814834 280.89387 
L 260.908632 280.666672 
L 263.691287 274.227525 
L 266.505208 268.273719 
L 269.319129 262.8326 
L 271.320139 259.250846 
L 271.351405 280.882395 
L 271.445203 280.655232 
L 274.227858 274.217074 
L 277.041779 268.264175 
L 279.8557 262.82388 
L 281.825445 259.296879 
L 281.856711 280.928382 
L 281.950508 280.701082 
L 284.733163 274.259018 
L 287.547084 268.302507 
L 290.361005 262.858911 
L 292.362016 259.275526 
L 292.393282 280.907051 
L 292.487079 280.679814 
L 295.269734 274.239563 
L 298.083655 268.284727 
L 300.897576 262.842662 
L 302.898587 259.260285 
L 302.929853 280.891825 
L 303.02365 280.664634 
L 305.806305 274.225675 
L 308.620226 268.272036 
L 311.434147 262.831064 
L 313.435158 259.249406 
L 313.466424 280.880964 
L 313.560221 280.653806 
L 316.342876 274.21577 
L 319.156797 268.262983 
L 321.970718 262.82279 
L 323.940463 259.295856 
L 323.971729 280.927367 
L 324.065526 280.70007 
L 326.848182 274.258093 
L 329.662103 268.301661 
L 332.476024 262.858138 
L 334.477034 259.274801 
L 334.5083 280.906334 
L 334.602097 280.679099 
L 337.384753 274.238909 
L 340.198674 268.284129 
L 342.793734 263.248033 
L 342.793734 263.248033 
" style="fill:none;stroke:#9b59b6;stroke-linecap:square;"/>
   </g>
   <g id="line2d_9">
    <path clip-path="url(#p7c0042d5af)" d="M 45.768734 233.35289 
L 51.771766 232.202632 
L 58.368847 231.169012 
L 65.716308 230.247621 
L 74.001742 229.438031 
L 83.506542 228.738711 
L 92.698684 228.237382 
L 93.574126 220.218254 
L 94.168176 215.923862 
L 94.199442 237.405354 
L 94.293239 236.739791 
L 95.199947 231.15576 
L 96.137921 226.705469 
L 97.107161 223.160362 
L 98.107666 220.329007 
L 99.139437 218.053782 
L 100.233739 216.158816 
L 100.390068 215.922398 
L 100.421334 237.561737 
L 100.515132 237.359344 
L 101.890826 234.673665 
L 103.454116 232.114273 
L 105.236266 229.62473 
L 107.331074 227.084925 
L 109.769805 224.481353 
L 112.552461 221.837068 
L 115.647774 219.205379 
L 118.961947 216.682286 
L 120.05625 215.908274 
L 120.087516 237.572278 
L 120.181313 237.44229 
L 123.151563 233.5229 
L 126.184345 229.888999 
L 129.279658 226.527122 
L 132.437503 223.424058 
L 135.689145 220.540275 
L 139.034584 217.870479 
L 141.723442 215.922488 
L 141.754708 237.586523 
L 141.848505 237.456622 
L 144.818755 233.538415 
L 147.851537 229.904045 
L 150.94685 226.541118 
L 154.104695 223.436846 
L 157.356337 220.55185 
L 160.701776 217.880897 
L 163.4219 215.910363 
L 163.453166 237.57441 
L 163.546963 237.444546 
L 166.517213 233.527436 
L 169.549995 229.894082 
L 172.645308 226.532095 
L 175.803153 223.428691 
L 179.054795 220.5445 
L 182.400234 217.874294 
L 185.089092 215.925994 
L 185.120358 237.590025 
L 185.214155 237.460113 
L 188.184405 233.541592 
L 191.217187 229.906929 
L 194.3125 226.543731 
L 197.470345 223.439208 
L 200.721987 220.553978 
L 204.067426 217.882809 
L 206.78755 215.912117 
L 206.818816 237.576169 
L 206.912613 237.446299 
L 209.882863 233.52903 
L 212.915645 229.895529 
L 216.010958 226.533405 
L 217.761842 224.773979 
L 218.66855 215.67673 
L 218.699816 237.089742 
L 218.793613 236.221306 
L 219.762853 228.409053 
L 220.732092 222.317578 
L 221.763863 217.221913 
L 222.076521 215.899556 
L 222.107787 237.457943 
L 222.201584 237.01609 
L 223.358418 232.138849 
L 224.60905 227.805573 
L 225.984745 223.827473 
L 227.516768 220.066749 
L 229.267653 216.355744 
L 229.486513 215.925305 
L 229.517779 237.550052 
L 229.611576 237.302926 
L 231.768916 231.948173 
L 234.176382 226.573152 
L 236.771442 221.323932 
L 239.491566 216.318645 
L 239.741692 215.88125 
L 239.772958 237.512547 
L 239.866755 237.284645 
L 242.618145 230.902199 
L 245.4008 225.002146 
L 248.214721 219.550136 
L 250.246997 215.907857 
L 250.278263 237.539377 
L 250.372061 237.312104 
L 253.154716 230.871074 
L 255.968637 224.915795 
L 258.782558 219.473439 
L 260.783568 215.8909 
L 260.814834 237.522437 
L 260.908632 237.295239 
L 263.691287 230.856092 
L 266.505208 224.902287 
L 269.319129 219.461168 
L 271.320139 215.879414 
L 271.351405 237.510971 
L 271.445203 237.283808 
L 274.227858 230.84565 
L 277.041779 224.89275 
L 279.8557 219.452454 
L 281.825445 215.925453 
L 281.856711 237.556964 
L 281.950508 237.329663 
L 284.733163 230.887599 
L 287.547084 224.931087 
L 290.361005 219.48749 
L 292.362016 215.904105 
L 292.393282 237.535637 
L 292.487079 237.3084 
L 295.269734 230.868147 
L 298.083655 224.91331 
L 300.897576 219.471244 
L 302.898587 215.888867 
L 302.929853 237.520407 
L 303.02365 237.293216 
L 305.806305 230.854256 
L 308.620226 224.900616 
L 311.434147 219.459643 
L 313.435158 215.877985 
L 313.466424 237.509536 
L 313.560221 237.282377 
L 316.342876 230.844341 
L 319.156797 224.891554 
L 321.970718 219.451362 
L 323.940463 215.924428 
L 323.971729 237.555932 
L 324.065526 237.328634 
L 326.848182 230.886658 
L 329.662103 224.930227 
L 332.476024 219.486704 
L 334.477034 215.903368 
L 334.5083 237.534893 
L 334.602097 237.307659 
L 337.384753 230.867469 
L 340.198674 224.91269 
L 342.793734 219.876595 
L 342.793734 219.876595 
" style="fill:none;stroke:#f1c40f;stroke-linecap:square;"/>
   </g>
   <g id="line2d_10">
    <path clip-path="url(#p7c0042d5af)" d="M 30.167105 302.671429 
L 342.825 302.671429 
" style="fill:none;stroke:#dddddd;stroke-dasharray:6.000000,6.000000;stroke-dashoffset:0.0;"/>
   </g>
   <g id="line2d_11">
    <path clip-path="url(#p7c0042d5af)" d="M 30.167105 259.3 
L 342.825 259.3 
" style="fill:none;stroke:#dddddd;stroke-dasharray:6.000000,6.000000;stroke-dashoffset:0.0;"/>
   </g>
   <g id="line2d_12">
    <path clip-path="url(#p7c0042d5af)" d="M 30.167105 215.928571 
L 342.825 215.928571 
" style="fill:none;stroke:#dddddd;stroke-dasharray:6.000000,6.000000;stroke-dashoffset:0.0;"/>
   </g>
  </g>
 </g>
 <defs>
  <clipPath id="pe2275b439e">
   <rect height="151.8" width="297.025" x="45.8" y="15.8"/>
  </clipPath>
  <clipPath id="p7c0042d5af">
   <rect height="151.8" width="297.025" x="45.8" y="183.4"/>
  </clipPath>
 </defs>
</svg>
