<?xml version="1.0" encoding="utf-8" standalone="no"?>
<!DOCTYPE svg PUBLIC "-//W3C//DTD SVG 1.1//EN"
  "http://www.w3.org/Graphics/SVG/1.1/DTD/svg11.dtd">
<!-- Created with matplotlib (http://matplotlib.org/) -->
<svg height="360pt" version="1.1" viewBox="0 0 216 360" width="216pt" xmlns="http://www.w3.org/2000/svg" xmlns:xlink="http://www.w3.org/1999/xlink">
 <defs>
  <style type="text/css">
*{stroke-linecap:butt;stroke-linejoin:round;stroke-miterlimit:100000;}
  </style>
 </defs>
 <g id="figure_1">
  <g id="patch_1">
   <path d="M 0 360 
L 216 360 
L 216 0 
L 0 0 
z
" style="fill:#ffffff;"/>
  </g>
  <g id="axes_1">
   <g id="patch_2">
    <path d="M 49.956946 158.445561 
L 198.834961 158.445561 
L 198.834961 25.737648 
L 49.956946 25.737648 
z
" style="fill:#ffffff;"/>
   </g>
   <g id="line2d_1">
    <path clip-path="url(#p5f69189e2a)" d="M 49.956946 158.445561 
L 60.047567 158.445053 
L 60.378407 158.448752 
L 60.709247 158.434144 
L 61.040087 158.478428 
L 61.370927 158.365078 
L 61.701767 158.604966 
L 62.032607 158.201841 
L 62.363447 50.569943 
L 62.694287 158.201841 
L 63.025127 158.604966 
L 63.355968 158.365079 
L 63.686808 158.478423 
L 64.017648 158.434163 
L 64.348488 158.448727 
L 64.679328 158.445064 
L 217 158.445388 
" style="fill:none;stroke:#000000;stroke-linecap:square;stroke-width:2.0;"/>
   </g>
   <g id="patch_3">
    <path d="M 49.956946 158.445561 
L 198.834961 158.445561 
" style="fill:none;stroke:#000000;stroke-linecap:square;stroke-linejoin:miter;"/>
   </g>
   <g id="patch_4">
    <path d="M 49.956946 158.445561 
L 49.956946 25.737648 
" style="fill:none;stroke:#000000;stroke-linecap:square;stroke-linejoin:miter;"/>
   </g>
   <g id="matplotlib.axis_1">
    <g id="xtick_1">
     <g id="line2d_2">
      <defs>
       <path d="M 0 0 
L 0 -4 
" id="m9b74f258ef" style="stroke:#000000;stroke-width:0.5;"/>
      </defs>
      <g>
       <use style="stroke:#000000;stroke-width:0.5;" x="49.9569462416" xlink:href="#m9b74f258ef" y="158.44556114"/>
      </g>
     </g>
    </g>
    <g id="xtick_2">
     <g id="line2d_3">
      <g>
       <use style="stroke:#000000;stroke-width:0.5;" x="74.76994862" xlink:href="#m9b74f258ef" y="158.44556114"/>
      </g>
     </g>
    </g>
    <g id="xtick_3">
     <g id="line2d_4">
      <g>
       <use style="stroke:#000000;stroke-width:0.5;" x="99.5829509984" xlink:href="#m9b74f258ef" y="158.44556114"/>
      </g>
     </g>
    </g>
    <g id="xtick_4">
     <g id="line2d_5">
      <g>
       <use style="stroke:#000000;stroke-width:0.5;" x="124.395953377" xlink:href="#m9b74f258ef" y="158.44556114"/>
      </g>
     </g>
    </g>
    <g id="xtick_5">
     <g id="line2d_6">
      <g>
       <use style="stroke:#000000;stroke-width:0.5;" x="149.208955755" xlink:href="#m9b74f258ef" y="158.44556114"/>
      </g>
     </g>
    </g>
    <g id="xtick_6">
     <g id="line2d_7">
      <g>
       <use style="stroke:#000000;stroke-width:0.5;" x="174.021958133" xlink:href="#m9b74f258ef" y="158.44556114"/>
      </g>
     </g>
    </g>
    <g id="xtick_7"/>
   </g>
   <g id="matplotlib.axis_2">
    <g id="ytick_1">
     <g id="line2d_8">
      <defs>
       <path d="M 0 0 
L 4 0 
" id="m13e99c637f" style="stroke:#000000;stroke-width:0.5;"/>
      </defs>
      <g>
       <use style="stroke:#000000;stroke-width:0.5;" x="49.9569462416" xlink:href="#m13e99c637f" y="158.44556114"/>
      </g>
     </g>
     <g id="text_1">
      <!-- $0$ -->
      <defs>
       <path d="M 42 31.640625 
C 42 37.75 41.90625 48.125 37.703125 56.109375 
C 34 63.109375 28.09375 65.59375 22.90625 65.59375 
C 18.09375 65.59375 12 63.40625 8.203125 56.203125 
C 4.203125 48.71875 3.796875 39.4375 3.796875 31.640625 
C 3.796875 25.953125 3.90625 17.28125 7 9.671875 
C 11.296875 -0.609375 19 -2 22.90625 -2 
C 27.5 -2 34.5 -0.109375 38.59375 9.375 
C 41.59375 16.28125 42 24.359375 42 31.640625 
M 22.90625 -0.40625 
C 16.5 -0.40625 12.703125 5.078125 11.296875 12.6875 
C 10.203125 18.5625 10.203125 27.15625 10.203125 32.75 
C 10.203125 40.4375 10.203125 46.828125 11.5 52.921875 
C 13.40625 61.390625 19 64 22.90625 64 
C 27 64 32.296875 61.296875 34.203125 53.125 
C 35.5 47.4375 35.59375 40.734375 35.59375 32.75 
C 35.59375 26.25 35.59375 18.265625 34.40625 12.375 
C 32.296875 1.484375 26.40625 -0.40625 22.90625 -0.40625 
" id="CMR17-48"/>
      </defs>
      <g transform="translate(40.97561099 160.933728073)scale(0.1 -0.1)">
       <use transform="scale(0.9962640099626402)" xlink:href="#CMR17-48"/>
      </g>
     </g>
    </g>
    <g id="ytick_2">
     <g id="line2d_9">
      <g>
       <use style="stroke:#000000;stroke-width:0.5;" x="49.9569462416" xlink:href="#m13e99c637f" y="131.903978586"/>
      </g>
     </g>
     <g id="text_2">
      <!-- $200$ -->
      <defs>
       <path d="M 41.703125 15.453125 
L 39.90625 15.453125 
C 38.90625 8.375 38.09375 7.171875 37.703125 6.5625 
C 37.203125 5.765625 30 5.765625 28.59375 5.765625 
L 9.40625 5.765625 
C 13 9.671875 20 16.75 28.5 24.953125 
C 34.59375 30.734375 41.703125 37.53125 41.703125 47.421875 
C 41.703125 59.21875 32.296875 66 21.796875 66 
C 10.796875 66 4.09375 56.3125 4.09375 47.34375 
C 4.09375 43.4375 7 42.9375 8.203125 42.9375 
C 9.203125 42.9375 12.203125 43.546875 12.203125 47.03125 
C 12.203125 50.109375 9.59375 51 8.203125 51 
C 7.59375 51 7 50.90625 6.59375 50.703125 
C 8.5 59.21875 14.296875 63.40625 20.40625 63.40625 
C 29.09375 63.40625 34.796875 56.515625 34.796875 47.421875 
C 34.796875 38.734375 29.703125 31.25 24 24.75 
L 4.09375 2.28125 
L 4.09375 0 
L 39.296875 0 
z
" id="CMR17-50"/>
      </defs>
      <g transform="translate(31.0129404868 134.392145519)scale(0.1 -0.1)">
       <use transform="scale(0.9962640099626402)" xlink:href="#CMR17-50"/>
       <use transform="translate(45.69047711706103 0.0)scale(0.9962640099626402)" xlink:href="#CMR17-48"/>
       <use transform="translate(91.38095423412206 0.0)scale(0.9962640099626402)" xlink:href="#CMR17-48"/>
      </g>
     </g>
    </g>
    <g id="ytick_3">
     <g id="line2d_10">
      <g>
       <use style="stroke:#000000;stroke-width:0.5;" x="49.9569462416" xlink:href="#m13e99c637f" y="105.362396032"/>
      </g>
     </g>
     <g id="text_3">
      <!-- $400$ -->
      <defs>
       <path d="M 33.59375 64.328125 
C 33.59375 66.40625 33.5 66.5 31.703125 66.5 
L 2 19.59375 
L 2 17 
L 27.796875 17 
L 27.796875 7.140625 
C 27.796875 3.5 27.59375 2.5 20.59375 2.5 
L 18.703125 2.5 
L 18.703125 0 
C 21.90625 0 27.296875 0 30.703125 0 
C 34.09375 0 39.5 0 42.703125 0 
L 42.703125 2.5 
L 40.796875 2.5 
C 33.796875 2.5 33.59375 3.5 33.59375 7.140625 
L 33.59375 17 
L 43.796875 17 
L 43.796875 19.59375 
L 33.59375 19.59375 
z
M 28.09375 57.765625 
L 28.09375 19.59375 
L 4 19.59375 
z
" id="CMR17-52"/>
      </defs>
      <g transform="translate(31.0129404868 107.850562965)scale(0.1 -0.1)">
       <use transform="scale(0.9962640099626402)" xlink:href="#CMR17-52"/>
       <use transform="translate(45.69047711706103 0.0)scale(0.9962640099626402)" xlink:href="#CMR17-48"/>
       <use transform="translate(91.38095423412206 0.0)scale(0.9962640099626402)" xlink:href="#CMR17-48"/>
      </g>
     </g>
    </g>
    <g id="ytick_4">
     <g id="line2d_11">
      <g>
       <use style="stroke:#000000;stroke-width:0.5;" x="49.9569462416" xlink:href="#m13e99c637f" y="78.8208134778"/>
      </g>
     </g>
     <g id="text_4">
      <!-- $600$ -->
      <defs>
       <path d="M 10.59375 34 
C 10.59375 57.65625 21.796875 63 28.296875 63 
C 30.40625 63 35.5 62.640625 37.5 59 
C 35.90625 59 32.90625 59 32.90625 55.515625 
C 32.90625 52.828125 35.09375 51.921875 36.5 51.921875 
C 37.40625 51.921875 40.09375 52.3125 40.09375 55.625 
C 40.09375 61.78125 35.09375 65.296875 28.203125 65.296875 
C 16.296875 65.296875 3.796875 52.96875 3.796875 31 
C 3.796875 3.953125 15.09375 -2 23.09375 -2 
C 32.796875 -2 42 6.671875 42 20.046875 
C 42 32.515625 33.90625 41.59375 23.703125 41.59375 
C 17.59375 41.59375 13.09375 37.609375 10.59375 30.625 
z
M 23.09375 0.390625 
C 10.796875 0.390625 10.796875 18.75 10.796875 22.4375 
C 10.796875 29.625 14.203125 40 23.5 40 
C 25.203125 40 30.09375 40 33.40625 33.125 
C 35.203125 29.21875 35.203125 25.140625 35.203125 20.140625 
C 35.203125 14.75 35.203125 10.78125 33.09375 6.78125 
C 30.90625 2.671875 27.703125 0.390625 23.09375 0.390625 
" id="CMR17-54"/>
      </defs>
      <g transform="translate(31.0129404868 81.3089804104)scale(0.1 -0.1)">
       <use transform="scale(0.9962640099626402)" xlink:href="#CMR17-54"/>
       <use transform="translate(45.69047711706103 0.0)scale(0.9962640099626402)" xlink:href="#CMR17-48"/>
       <use transform="translate(91.38095423412206 0.0)scale(0.9962640099626402)" xlink:href="#CMR17-48"/>
      </g>
     </g>
    </g>
    <g id="ytick_5">
     <g id="line2d_12">
      <g>
       <use style="stroke:#000000;stroke-width:0.5;" x="49.9569462416" xlink:href="#m13e99c637f" y="52.2792309236"/>
      </g>
     </g>
     <g id="text_5">
      <!-- $800$ -->
      <defs>
       <path d="M 27.203125 35.375 
C 33.5 38.5625 39.90625 43.328125 39.90625 50.984375 
C 39.90625 60.03125 31.09375 65.296875 23 65.296875 
C 13.90625 65.296875 5.90625 58.734375 5.90625 49.6875 
C 5.90625 47.203125 6.5 42.921875 10.40625 39.140625 
C 11.40625 38.15625 15.59375 35.171875 18.296875 33.28125 
C 13.796875 30.984375 3.296875 25.53125 3.296875 14.59375 
C 3.296875 4.359375 13.09375 -2 22.796875 -2 
C 33.5 -2 42.5 5.65625 42.5 15.796875 
C 42.5 24.84375 36.40625 29.03125 32.40625 31.703125 
z
M 14.09375 44.125 
C 13.296875 44.625 9.296875 47.703125 9.296875 52.375 
C 9.296875 58.4375 15.59375 63 22.796875 63 
C 30.703125 63 36.5 57.453125 36.5 50.984375 
C 36.5 41.734375 26.09375 36.46875 25.59375 36.46875 
C 25.5 36.46875 25.40625 36.46875 24.59375 37.078125 
z
M 32.5 23.734375 
C 34 22.640625 38.796875 19.375 38.796875 13.296875 
C 38.796875 5.953125 31.40625 0.390625 23 0.390625 
C 13.90625 0.390625 7 6.84375 7 14.6875 
C 7 22.546875 13.09375 29.09375 20 32.1875 
z
" id="CMR17-56"/>
      </defs>
      <g transform="translate(31.0129404868 54.7673978562)scale(0.1 -0.1)">
       <use transform="scale(0.9962640099626402)" xlink:href="#CMR17-56"/>
       <use transform="translate(45.69047711706103 0.0)scale(0.9962640099626402)" xlink:href="#CMR17-48"/>
       <use transform="translate(91.38095423412206 0.0)scale(0.9962640099626402)" xlink:href="#CMR17-48"/>
      </g>
     </g>
    </g>
    <g id="ytick_6">
     <g id="line2d_13">
      <g>
       <use style="stroke:#000000;stroke-width:0.5;" x="49.9569462416" xlink:href="#m13e99c637f" y="25.7376483694"/>
      </g>
     </g>
     <g id="text_6">
      <!-- $1000$ -->
      <defs>
       <path d="M 26.59375 63.3125 
C 26.59375 65.40625 26.5 65.5 25.09375 65.5 
C 21.203125 61.1875 15.296875 59.796875 9.703125 59.796875 
C 9.40625 59.796875 8.90625 59.796875 8.796875 59.609375 
C 8.703125 59.390625 8.703125 59.171875 8.703125 57 
C 11.796875 57 17 57.59375 21 59.984375 
L 21 7.203125 
C 21 3.6875 20.796875 2.5 12.203125 2.5 
L 9.203125 2.5 
L 9.203125 0 
C 14 0 19 0 23.796875 0 
C 28.59375 0 33.59375 0 38.40625 0 
L 38.40625 2.5 
L 35.40625 2.5 
C 26.796875 2.5 26.59375 3.59375 26.59375 7.15625 
z
" id="CMR17-49"/>
      </defs>
      <g transform="translate(26.0316052353 28.225815302)scale(0.1 -0.1)">
       <use transform="scale(0.9962640099626402)" xlink:href="#CMR17-49"/>
       <use transform="translate(45.69047711706103 0.0)scale(0.9962640099626402)" xlink:href="#CMR17-48"/>
       <use transform="translate(91.38095423412206 0.0)scale(0.9962640099626402)" xlink:href="#CMR17-48"/>
       <use transform="translate(137.07143135118307 0.0)scale(0.9962640099626402)" xlink:href="#CMR17-48"/>
      </g>
     </g>
    </g>
    <g id="text_7">
     <!-- Frequency [s$^{-1}$] -->
     <defs>
      <path d="M 48.203125 0.515625 
L 48.203125 53 
L 39.90625 53 
L 39.90625 23.109375 
C 39.90625 12.34375 34.296875 5.3125 25.59375 5.3125 
C 19 5.3125 14.796875 9.328125 14.796875 15.671875 
L 14.796875 53 
L 6.5 53 
L 6.5 12.375 
C 6.5 3.625 13 -2 23.203125 -2 
C 30.90625 -2 35.796875 0.703125 40.703125 7.625 
L 40.703125 0.515625 
z
" id="Nimbus_Sans_L_Regular-117"/>
      <path d="M 7 52.484375 
L 7 0 
L 15.40625 0 
L 15.40625 28.953125 
C 15.40625 39.671875 21 46.6875 29.59375 46.6875 
C 36.203125 46.6875 40.40625 42.671875 40.40625 36.359375 
L 40.40625 0 
L 48.703125 0 
L 48.703125 39.671875 
C 48.703125 48.390625 42.203125 54 32.09375 54 
C 24.296875 54 19.296875 50.984375 14.703125 43.6875 
L 14.703125 52.484375 
z
" id="Nimbus_Sans_L_Regular-110"/>
      <path d="M 51.296875 24 
C 51.296875 31.875 50.703125 36.59375 49.203125 40.421875 
C 45.796875 48.875 37.796875 54 28 54 
C 13.40625 54 4 42.84375 4 25.703125 
C 4 8.546875 13.09375 -2 27.796875 -2 
C 39.796875 -2 48.09375 4.875 50.203125 16.375 
L 41.796875 16.375 
C 39.5 9.359375 34.796875 5.703125 28.09375 5.703125 
C 22.796875 5.703125 18.296875 8.140625 15.5 12.609375 
C 13.5 15.65625 12.796875 18.71875 12.703125 24 
z
M 12.90625 30.8125 
C 13.59375 40.1875 19.5 46.28125 27.90625 46.28125 
C 36.09375 46.28125 42.40625 39.703125 42.40625 31.40625 
C 42.40625 31.203125 42.40625 31.015625 42.296875 30.8125 
z
" id="Nimbus_Sans_L_Regular-101"/>
      <path d="M 47.09375 34.9375 
C 46.703125 40.03125 45.59375 43.328125 43.59375 46.21875 
C 40 51.109375 33.703125 54 26.40625 54 
C 12.296875 54 3.09375 42.84375 3.09375 25.5 
C 3.09375 8.65625 12.09375 -2 26.296875 -2 
C 38.796875 -2 46.703125 5.46875 47.703125 18.234375 
L 39.296875 18.234375 
C 37.90625 9.875 33.59375 5.703125 26.5 5.703125 
C 17.296875 5.703125 11.796875 13.171875 11.796875 25.5 
C 11.796875 38.53125 17.203125 46.28125 26.296875 46.28125 
C 33.296875 46.28125 37.703125 42.203125 38.703125 34.9375 
z
" id="Nimbus_Sans_L_Regular-99"/>
      <path d="M 2.296875 -21.203125 
L 20.90625 -21.203125 
L 20.90625 73 
L 2.296875 73 
L 2.296875 65.78125 
L 12.59375 65.78125 
L 12.59375 -14 
L 2.296875 -14 
z
" id="Nimbus_Sans_L_Regular-93"/>
      <path d="M 65.90625 23 
C 67.59375 23 69.40625 23 69.40625 25 
C 69.40625 27 67.59375 27 65.90625 27 
L 11.796875 27 
C 10.09375 27 8.296875 27 8.296875 25 
C 8.296875 23 10.09375 23 11.796875 23 
z
" id="CMSY10-0"/>
      <path d="M 43.796875 37.921875 
C 43.703125 48.203125 36.90625 54 24.796875 54 
C 12.59375 54 4.703125 47.71875 4.703125 38.0625 
C 4.703125 29.890625 8.90625 26.015625 21.296875 23.03125 
L 29.09375 21.140625 
C 34.90625 19.734375 37.203125 17.65625 37.203125 13.875 
C 37.203125 9 32.296875 5.703125 25 5.703125 
C 20.5 5.703125 16.703125 7 14.59375 9.1875 
C 13.296875 10.6875 12.703125 12.171875 12.203125 15.84375 
L 3.40625 15.84375 
C 3.796875 3.765625 10.59375 -2 24.296875 -2 
C 37.5 -2 45.90625 4.453125 45.90625 14.515625 
C 45.90625 22.28125 41.5 26.578125 31.09375 29.0625 
L 23.09375 30.953125 
C 16.296875 32.53125 13.40625 34.734375 13.40625 38.40625 
C 13.40625 43.1875 17.703125 46.28125 24.5 46.28125 
C 31.203125 46.28125 34.796875 43.390625 35 37.921875 
z
" id="Nimbus_Sans_L_Regular-115"/>
      <path d="M 49.5 -22 
L 49.5 52.328125 
L 42.09375 52.328125 
L 42.09375 45.296875 
C 38.203125 50.796875 32.296875 53.8125 25.40625 53.8125 
C 11.59375 53.8125 2.59375 42.421875 2.59375 24.890625 
C 2.59375 7.765625 11.203125 -2.8125 25 -2.8125 
C 32.296875 -2.8125 37.296875 -0.21875 41.203125 5.5 
L 41.203125 -22 
z
M 26.59375 46 
C 35.5 46 41.203125 37.921875 41.203125 25.1875 
C 41.203125 13.078125 35.40625 5 26.59375 5 
C 17.40625 5 11.296875 13.171875 11.296875 25.484375 
C 11.296875 37.71875 17.40625 46 26.59375 46 
" id="Nimbus_Sans_L_Regular-113"/>
      <path d="M 6.90625 52.484375 
L 6.90625 0 
L 15.296875 0 
L 15.296875 27.25 
C 15.296875 34.765625 17.203125 39.671875 21.203125 42.578125 
C 23.796875 44.484375 26.296875 45.078125 32.09375 45.078125 
L 32.09375 53.703125 
C 30.703125 53.890625 30 54 28.90625 54 
C 23.5 54 19.40625 50.78125 14.59375 42.96875 
L 14.59375 52.484375 
z
" id="Nimbus_Sans_L_Regular-114"/>
      <path d="M 18.296875 33 
L 53.09375 33 
L 53.09375 41.21875 
L 18.296875 41.21875 
L 18.296875 64.78125 
L 57.90625 64.78125 
L 57.90625 73 
L 9 73 
L 9 -0.21875 
L 18.296875 -0.21875 
z
" id="Nimbus_Sans_L_Regular-70"/>
      <path d="M 38.796875 52.5 
L 24.296875 11.53125 
L 10.90625 52.5 
L 2 52.5 
L 19.703125 -0.328125 
L 16.5 -8.65625 
C 15.203125 -12.375 13.296875 -13.78125 9.796875 -13.78125 
C 8.59375 -13.78125 7.203125 -13.578125 5.40625 -13.171875 
L 5.40625 -20.703125 
C 7.09375 -21.59375 8.796875 -22 11 -22 
C 13.703125 -22 16.59375 -21.09375 18.796875 -19.484375 
C 21.40625 -17.578125 22.90625 -15.359375 24.5 -11.140625 
L 47.796875 52.5 
z
" id="Nimbus_Sans_L_Regular-121"/>
      <path d="M 25 73 
L 6.40625 73 
L 6.40625 -21.203125 
L 25 -21.203125 
L 25 -14 
L 14.703125 -14 
L 14.703125 65.78125 
L 25 65.78125 
z
" id="Nimbus_Sans_L_Regular-91"/>
     </defs>
     <g transform="translate(18.9096188366 127.391967652)rotate(-90.0)scale(0.1 -0.1)">
      <use transform="scale(0.9962640099626402)" xlink:href="#Nimbus_Sans_L_Regular-70"/>
      <use transform="translate(56.38889868559309 0.0)scale(0.9962640099626402)" xlink:href="#Nimbus_Sans_L_Regular-114"/>
      <use transform="translate(89.5641284149284 0.0)scale(0.9962640099626402)" xlink:href="#Nimbus_Sans_L_Regular-101"/>
      <use transform="translate(144.95580537826902 0.0)scale(0.9962640099626402)" xlink:href="#Nimbus_Sans_L_Regular-113"/>
      <use transform="translate(200.3474823416096 0.0)scale(0.9962640099626402)" xlink:href="#Nimbus_Sans_L_Regular-117"/>
      <use transform="translate(255.73915930495022 0.0)scale(0.9962640099626402)" xlink:href="#Nimbus_Sans_L_Regular-101"/>
      <use transform="translate(311.1308362682908 0.0)scale(0.9962640099626402)" xlink:href="#Nimbus_Sans_L_Regular-110"/>
      <use transform="translate(366.5225132316314 0.0)scale(0.9962640099626402)" xlink:href="#Nimbus_Sans_L_Regular-99"/>
      <use transform="translate(416.3357137297634 0.0)scale(0.9962640099626402)" xlink:href="#Nimbus_Sans_L_Regular-121"/>
      <use transform="translate(493.84408383114106 0.0)scale(0.9962640099626402)" xlink:href="#Nimbus_Sans_L_Regular-91"/>
      <use transform="translate(521.5392534343868 0.0)scale(0.9962640099626402)" xlink:href="#Nimbus_Sans_L_Regular-115"/>
      <use transform="translate(571.3524539325188 36.15363894185866)scale(0.6973817666173724)" xlink:href="#CMSY10-0"/>
      <use transform="translate(625.5934471804951 36.15363894185866)scale(0.6973817666173724)" xlink:href="#CMR17-49"/>
      <use transform="translate(658.0747611495954 0.0)scale(0.9962640099626402)" xlink:href="#Nimbus_Sans_L_Regular-93"/>
     </g>
    </g>
   </g>
   <g id="text_8">
    <!-- Population -->
    <defs>
     <path d="M 27.203125 54 
C 12.5 54 3.59375 43.53125 3.59375 26 
C 3.59375 8.453125 12.40625 -2 27.296875 -2 
C 42 -2 51 8.453125 51 25.59375 
C 51 43.640625 42.296875 54 27.203125 54 
M 27.296875 46.28125 
C 36.703125 46.28125 42.296875 38.625 42.296875 25.703125 
C 42.296875 13.453125 36.5 5.703125 27.296875 5.703125 
C 18 5.703125 12.296875 13.359375 12.296875 26 
C 12.296875 38.53125 18 46.28125 27.296875 46.28125 
" id="Nimbus_Sans_L_Regular-111"/>
     <path d="M 15 52.484375 
L 6.703125 52.484375 
L 6.703125 0 
L 15 0 
z
M 15 73 
L 6.59375 73 
L 6.59375 62.484375 
L 15 62.484375 
z
" id="Nimbus_Sans_L_Regular-105"/>
     <path d="M 15.203125 73 
L 6.796875 73 
L 6.796875 -0.03125 
L 15.203125 -0.03125 
z
" id="Nimbus_Sans_L_Regular-108"/>
     <path d="M 18.40625 31 
L 41.296875 31 
C 47 31 51.5 32.703125 55.40625 36.1875 
C 59.796875 40.203125 61.703125 44.890625 61.703125 51.609375 
C 61.703125 65.296875 53.59375 73 39.203125 73 
L 9.09375 73 
L 9.09375 -0.21875 
L 18.40625 -0.21875 
z
M 18.40625 39.21875 
L 18.40625 64.78125 
L 37.796875 64.78125 
C 46.703125 64.78125 52 59.984375 52 52 
C 52 44 46.703125 39.21875 37.796875 39.21875 
z
" id="Nimbus_Sans_L_Regular-80"/>
     <path d="M 25.40625 52.8125 
L 16.796875 52.8125 
L 16.796875 67 
L 8.5 67 
L 8.5 52.8125 
L 1.40625 52.8125 
L 1.40625 46 
L 8.5 46 
L 8.5 6.3125 
C 8.5 1 12.09375 -2 18.59375 -2 
C 20.59375 -2 22.59375 -1.8125 25.40625 -1.296875 
L 25.40625 5.71875 
C 24.296875 5.40625 23 5.3125 21.40625 5.3125 
C 17.796875 5.3125 16.796875 6.3125 16.796875 10.015625 
L 16.796875 46 
L 25.40625 46 
z
" id="Nimbus_Sans_L_Regular-116"/>
     <path d="M 5.40625 -22 
L 13.796875 -22 
L 13.796875 5 
C 18.203125 -0.421875 23.09375 -2.8125 29.90625 -2.8125 
C 43.40625 -2.8125 52.296875 8.15625 52.296875 24.984375 
C 52.296875 42.71875 43.703125 53.8125 29.796875 53.8125 
C 22.703125 53.8125 17 50.59375 13.09375 44.390625 
L 13.09375 52.328125 
L 5.40625 52.328125 
z
M 28.40625 46 
C 37.59375 46 43.59375 37.8125 43.59375 25.1875 
C 43.59375 13.171875 37.5 5 28.40625 5 
C 19.59375 5 13.796875 13.078125 13.796875 25.484375 
C 13.796875 37.921875 19.59375 46 28.40625 46 
" id="Nimbus_Sans_L_Regular-112"/>
     <path d="M 53.5 5.203125 
C 52.59375 5 52.203125 5 51.703125 5 
C 48.796875 5 47.203125 6.484375 47.203125 9.078125 
L 47.203125 39.765625 
C 47.203125 49.015625 40.40625 54 27.5 54 
C 19.90625 54 13.59375 51.8125 10.09375 47.90625 
C 7.703125 45.203125 6.703125 42.21875 6.5 37.03125 
L 14.90625 37.03125 
C 15.59375 43.390625 19.40625 46.28125 27.203125 46.28125 
C 34.703125 46.28125 38.90625 43.484375 38.90625 38.515625 
L 38.90625 36.328125 
C 38.90625 32.828125 36.796875 31.34375 30.203125 30.546875 
C 18.40625 29.0625 16.59375 28.65625 13.40625 27.359375 
C 7.296875 24.875 4.203125 20.1875 4.203125 13.421875 
C 4.203125 3.96875 10.796875 -2 21.40625 -2 
C 28 -2 33.296875 0.296875 39.203125 5.703125 
C 39.796875 0.390625 42.40625 -2 47.796875 -2 
C 49.5 -2 50.796875 -1.8125 53.5 -1.09375 
z
M 38.90625 16.75 
C 38.90625 13.953125 38.09375 12.265625 35.59375 9.984375 
C 32.203125 6.890625 28.09375 5.3125 23.203125 5.3125 
C 16.703125 5.3125 12.90625 8.390625 12.90625 13.65625 
C 12.90625 19.140625 16.59375 21.921875 25.5 23.21875 
C 34.296875 24.40625 36.09375 24.8125 38.90625 26.09375 
z
" id="Nimbus_Sans_L_Regular-97"/>
    </defs>
    <g transform="translate(133.630396207 20.7376483694)scale(0.14 -0.14)">
     <use transform="scale(0.9962640099626402)" xlink:href="#Nimbus_Sans_L_Regular-80"/>
     <use transform="translate(61.46868067987236 0.0)scale(0.9962640099626402)" xlink:href="#Nimbus_Sans_L_Regular-111"/>
     <use transform="translate(116.86035764321296 0.0)scale(0.9962640099626402)" xlink:href="#Nimbus_Sans_L_Regular-112"/>
     <use transform="translate(172.25203460655356 0.0)scale(0.9962640099626402)" xlink:href="#Nimbus_Sans_L_Regular-117"/>
     <use transform="translate(227.64371156989418 0.0)scale(0.9962640099626402)" xlink:href="#Nimbus_Sans_L_Regular-108"/>
     <use transform="translate(249.76049591862548 0.0)scale(0.9962640099626402)" xlink:href="#Nimbus_Sans_L_Regular-97"/>
     <use transform="translate(305.15217288196607 0.0)scale(0.9962640099626402)" xlink:href="#Nimbus_Sans_L_Regular-116"/>
     <use transform="translate(332.84734248521175 0.0)scale(0.9962640099626402)" xlink:href="#Nimbus_Sans_L_Regular-105"/>
     <use transform="translate(354.96412683394306 0.0)scale(0.9962640099626402)" xlink:href="#Nimbus_Sans_L_Regular-111"/>
     <use transform="translate(410.35580379728367 0.0)scale(0.9962640099626402)" xlink:href="#Nimbus_Sans_L_Regular-110"/>
    </g>
   </g>
  </g>
  <g id="axes_2">
   <g id="patch_5">
    <path d="M 49.956946 321.759387 
L 198.834961 321.759387 
L 198.834961 189.051474 
L 49.956946 189.051474 
z
" style="fill:#ffffff;"/>
   </g>
   <g id="line2d_14">
    <path clip-path="url(#p8057cc94f7)" d="M 49.956946 321.731539 
L 69.571625 212.794989 
L 84.484239 293.303787 
L 99.396853 302.374197 
L 114.309468 308.00445 
L 129.222082 313.236445 
L 144.134697 313.442076 
L 159.047311 319.276197 
L 173.959926 320.452962 
L 188.87254 320.488131 
L 203.785154 320.87592 
L 217 321.178357 
" style="fill:none;stroke:#000000;stroke-linecap:square;stroke-width:2.0;"/>
   </g>
   <g id="patch_6">
    <path d="M 49.956946 321.759387 
L 198.834961 321.759387 
" style="fill:none;stroke:#000000;stroke-linecap:square;stroke-linejoin:miter;"/>
   </g>
   <g id="patch_7">
    <path d="M 49.956946 321.759387 
L 49.956946 189.051474 
" style="fill:none;stroke:#000000;stroke-linecap:square;stroke-linejoin:miter;"/>
   </g>
   <g id="matplotlib.axis_3">
    <g id="xtick_8">
     <g id="line2d_15">
      <g>
       <use style="stroke:#000000;stroke-width:0.5;" x="49.9569462416" xlink:href="#m9b74f258ef" y="321.759386675"/>
      </g>
     </g>
     <g id="text_9">
      <!-- $0.0$ -->
      <defs>
       <path d="M 18.40625 4.796875 
C 18.40625 7.6875 16 9.671875 13.59375 9.671875 
C 10.703125 9.671875 8.703125 7.28125 8.703125 4.890625 
C 8.703125 2 11.09375 0 13.5 0 
C 16.40625 0 18.40625 2.390625 18.40625 4.796875 
" id="CMMI12-58"/>
      </defs>
      <g transform="translate(43.5919067535 332.857706939)scale(0.1 -0.1)">
       <use transform="scale(0.9962640099626402)" xlink:href="#CMR17-48"/>
       <use transform="translate(45.69047711706103 0.0)scale(0.9962640099626402)" xlink:href="#CMMI12-58"/>
       <use transform="translate(72.78765420688046 0.0)scale(0.9962640099626402)" xlink:href="#CMR17-48"/>
      </g>
     </g>
    </g>
    <g id="xtick_9">
     <g id="line2d_16">
      <g>
       <use style="stroke:#000000;stroke-width:0.5;" x="74.76994862" xlink:href="#m9b74f258ef" y="321.759386675"/>
      </g>
     </g>
     <g id="text_10">
      <!-- $0.1$ -->
      <g transform="translate(68.4049091319 332.857706939)scale(0.1 -0.1)">
       <use transform="scale(0.9962640099626402)" xlink:href="#CMR17-48"/>
       <use transform="translate(45.69047711706103 0.0)scale(0.9962640099626402)" xlink:href="#CMMI12-58"/>
       <use transform="translate(72.78765420688046 0.0)scale(0.9962640099626402)" xlink:href="#CMR17-49"/>
      </g>
     </g>
    </g>
    <g id="xtick_10">
     <g id="line2d_17">
      <g>
       <use style="stroke:#000000;stroke-width:0.5;" x="99.5829509984" xlink:href="#m9b74f258ef" y="321.759386675"/>
      </g>
     </g>
     <g id="text_11">
      <!-- $0.2$ -->
      <g transform="translate(93.2179115102 332.857706939)scale(0.1 -0.1)">
       <use transform="scale(0.9962640099626402)" xlink:href="#CMR17-48"/>
       <use transform="translate(45.69047711706103 0.0)scale(0.9962640099626402)" xlink:href="#CMMI12-58"/>
       <use transform="translate(72.78765420688046 0.0)scale(0.9962640099626402)" xlink:href="#CMR17-50"/>
      </g>
     </g>
    </g>
    <g id="xtick_11">
     <g id="line2d_18">
      <g>
       <use style="stroke:#000000;stroke-width:0.5;" x="124.395953377" xlink:href="#m9b74f258ef" y="321.759386675"/>
      </g>
     </g>
     <g id="text_12">
      <!-- $0.3$ -->
      <defs>
       <path d="M 22.09375 33.703125 
C 31 33.703125 34.90625 25.96875 34.90625 17.03125 
C 34.90625 5 28.5 0.390625 22.703125 0.390625 
C 17.40625 0.390625 8.796875 3.03125 6.09375 10.828125 
C 6.59375 10.625 7.09375 10.625 7.59375 10.625 
C 10 10.625 11.796875 12.21875 11.796875 14.8125 
C 11.796875 17.703125 9.59375 19 7.59375 19 
C 5.90625 19 3.296875 18.203125 3.296875 14.46875 
C 3.296875 5.234375 12.296875 -2 22.90625 -2 
C 34 -2 42.5 6.71875 42.5 16.953125 
C 42.5 26.671875 34.5 33.6875 25 34.796875 
C 32.59375 36.375 39.90625 43.0625 39.90625 52.015625 
C 39.90625 59.6875 32 65.296875 23 65.296875 
C 13.90625 65.296875 5.90625 59.828125 5.90625 52.015625 
C 5.90625 48.59375 8.5 48 9.796875 48 
C 11.90625 48 13.703125 49.296875 13.703125 51.890625 
C 13.703125 54.46875 11.90625 55.765625 9.796875 55.765625 
C 9.40625 55.765625 8.90625 55.765625 8.5 55.5625 
C 11.40625 61.859375 19.296875 63 22.796875 63 
C 26.296875 63 32.90625 61.328125 32.90625 51.875 
C 32.90625 49.109375 32.5 44.1875 29.09375 39.84375 
C 26.09375 36 22.703125 36 19.40625 35.59375 
C 18.90625 35.59375 16.59375 35.59375 16.203125 35.59375 
C 15.5 35.484375 15.09375 35.390625 15.09375 34.59375 
C 15.09375 33.8125 15.203125 33.703125 17.203125 33.703125 
z
" id="CMR17-51"/>
      </defs>
      <g transform="translate(118.030913889 332.857706939)scale(0.1 -0.1)">
       <use transform="scale(0.9962640099626402)" xlink:href="#CMR17-48"/>
       <use transform="translate(45.69047711706103 0.0)scale(0.9962640099626402)" xlink:href="#CMMI12-58"/>
       <use transform="translate(72.78765420688046 0.0)scale(0.9962640099626402)" xlink:href="#CMR17-51"/>
      </g>
     </g>
    </g>
    <g id="xtick_12">
     <g id="line2d_19">
      <g>
       <use style="stroke:#000000;stroke-width:0.5;" x="149.208955755" xlink:href="#m9b74f258ef" y="321.759386675"/>
      </g>
     </g>
     <g id="text_13">
      <!-- $0.4$ -->
      <g transform="translate(142.843916267 332.857706939)scale(0.1 -0.1)">
       <use transform="scale(0.9962640099626402)" xlink:href="#CMR17-48"/>
       <use transform="translate(45.69047711706103 0.0)scale(0.9962640099626402)" xlink:href="#CMMI12-58"/>
       <use transform="translate(72.78765420688046 0.0)scale(0.9962640099626402)" xlink:href="#CMR17-52"/>
      </g>
     </g>
    </g>
    <g id="xtick_13">
     <g id="line2d_20">
      <g>
       <use style="stroke:#000000;stroke-width:0.5;" x="174.021958133" xlink:href="#m9b74f258ef" y="321.759386675"/>
      </g>
     </g>
     <g id="text_14">
      <!-- $0.5$ -->
      <defs>
       <path d="M 11.40625 57.6875 
C 12.40625 57.28125 16.5 56 20.703125 56 
C 30 56 35.09375 61.015625 38 63.921875 
C 38 64.734375 38 65.25 37.40625 65.25 
C 37.296875 65.25 37.09375 65.25 36.296875 64.828125 
C 32.796875 63.3125 28.703125 62.078125 23.703125 62.078125 
C 20.703125 62.078125 16.203125 62.5 11.296875 64.734375 
C 10.203125 65.25 10 65.25 9.90625 65.25 
C 9.40625 65.25 9.296875 65.140625 9.296875 63.15625 
L 9.296875 34.28125 
C 9.296875 32.5 9.296875 32 10.296875 32 
C 10.796875 32 11 32.203125 11.5 32.90625 
C 14.703125 37.484375 19.09375 39.40625 24.09375 39.40625 
C 27.59375 39.40625 35.09375 37.21875 35.09375 20.140625 
C 35.09375 16.953125 35.09375 11.171875 32.09375 6.578125 
C 29.59375 2.484375 25.703125 0.390625 21.40625 0.390625 
C 14.796875 0.390625 8.09375 5 6.296875 12.71875 
C 6.703125 12.609375 7.5 12.421875 7.90625 12.421875 
C 9.203125 12.421875 11.703125 13.125 11.703125 16.21875 
C 11.703125 18.90625 9.796875 20 7.90625 20 
C 5.59375 20 4.09375 18.59375 4.09375 15.796875 
C 4.09375 7.09375 11 -2 21.59375 -2 
C 31.90625 -2 41.703125 6.875 41.703125 19.75 
C 41.703125 31.71875 33.90625 41 24.203125 41 
C 19.09375 41 14.796875 39.09375 11.40625 35.453125 
z
" id="CMR17-53"/>
      </defs>
      <g transform="translate(167.656918645 332.857706939)scale(0.1 -0.1)">
       <use transform="scale(0.9962640099626402)" xlink:href="#CMR17-48"/>
       <use transform="translate(45.69047711706103 0.0)scale(0.9962640099626402)" xlink:href="#CMMI12-58"/>
       <use transform="translate(72.78765420688046 0.0)scale(0.9962640099626402)" xlink:href="#CMR17-53"/>
      </g>
     </g>
    </g>
    <g id="xtick_14">
     <g id="text_15">
      <!-- $0.6$ -->
      <g transform="translate(192.469921024 332.857706939)scale(0.1 -0.1)">
       <use transform="scale(0.9962640099626402)" xlink:href="#CMR17-48"/>
       <use transform="translate(45.69047711706103 0.0)scale(0.9962640099626402)" xlink:href="#CMMI12-58"/>
       <use transform="translate(72.78765420688046 0.0)scale(0.9962640099626402)" xlink:href="#CMR17-54"/>
      </g>
     </g>
    </g>
    <g id="text_16">
     <!-- Interspike interval [s] -->
     <defs>
      <path d="M 14.09375 73 
L 5.796875 73 
L 5.796875 -0.03125 
L 14.09375 -0.03125 
L 14.09375 20.40625 
L 22.203125 28.421875 
L 39.90625 -0.03125 
L 50.203125 -0.03125 
L 28.796875 34.328125 
L 47 52.453125 
L 36.296875 52.453125 
L 14.09375 30.21875 
z
" id="Nimbus_Sans_L_Regular-107"/>
      <path d="M 19.40625 73 
L 10 73 
L 10 -0.03125 
L 19.40625 -0.03125 
z
" id="Nimbus_Sans_L_Regular-73"/>
      <path d="M 28.5 0 
L 48.59375 52.5 
L 39.203125 52.5 
L 24.40625 9.921875 
L 10.40625 52.5 
L 1 52.5 
L 19.40625 0 
z
" id="Nimbus_Sans_L_Regular-118"/>
     </defs>
     <g transform="translate(78.7926660825 347.078013601)scale(0.1 -0.1)">
      <use transform="scale(0.9962640099626402)" xlink:href="#Nimbus_Sans_L_Regular-73"/>
      <use transform="translate(27.695169603245645 0.0)scale(0.9962640099626402)" xlink:href="#Nimbus_Sans_L_Regular-110"/>
      <use transform="translate(83.08684656658625 0.0)scale(0.9962640099626402)" xlink:href="#Nimbus_Sans_L_Regular-116"/>
      <use transform="translate(110.78201616983189 0.0)scale(0.9962640099626402)" xlink:href="#Nimbus_Sans_L_Regular-101"/>
      <use transform="translate(166.1736931331725 0.0)scale(0.9962640099626402)" xlink:href="#Nimbus_Sans_L_Regular-114"/>
      <use transform="translate(199.3489228625078 0.0)scale(0.9962640099626402)" xlink:href="#Nimbus_Sans_L_Regular-115"/>
      <use transform="translate(249.1621233606398 0.0)scale(0.9962640099626402)" xlink:href="#Nimbus_Sans_L_Regular-112"/>
      <use transform="translate(304.5538003239804 0.0)scale(0.9962640099626402)" xlink:href="#Nimbus_Sans_L_Regular-105"/>
      <use transform="translate(326.67058467271175 0.0)scale(0.9962640099626402)" xlink:href="#Nimbus_Sans_L_Regular-107"/>
      <use transform="translate(374.49177401151934 0.0)scale(0.9962640099626402)" xlink:href="#Nimbus_Sans_L_Regular-101"/>
      <use transform="translate(457.5786205781056 0.0)scale(0.9962640099626402)" xlink:href="#Nimbus_Sans_L_Regular-105"/>
      <use transform="translate(479.6954049268369 0.0)scale(0.9962640099626402)" xlink:href="#Nimbus_Sans_L_Regular-110"/>
      <use transform="translate(535.0870818901775 0.0)scale(0.9962640099626402)" xlink:href="#Nimbus_Sans_L_Regular-116"/>
      <use transform="translate(562.7822514934231 0.0)scale(0.9962640099626402)" xlink:href="#Nimbus_Sans_L_Regular-101"/>
      <use transform="translate(618.1739284567637 0.0)scale(0.9962640099626402)" xlink:href="#Nimbus_Sans_L_Regular-114"/>
      <use transform="translate(654.3372509339976 0.0)scale(0.9962640099626402)" xlink:href="#Nimbus_Sans_L_Regular-118"/>
      <use transform="translate(701.6598218107878 0.0)scale(0.9962640099626402)" xlink:href="#Nimbus_Sans_L_Regular-97"/>
      <use transform="translate(757.0514987741284 0.0)scale(0.9962640099626402)" xlink:href="#Nimbus_Sans_L_Regular-108"/>
      <use transform="translate(806.8634527261053 0.0)scale(0.9962640099626402)" xlink:href="#Nimbus_Sans_L_Regular-91"/>
      <use transform="translate(834.5586223293509 0.0)scale(0.9962640099626402)" xlink:href="#Nimbus_Sans_L_Regular-115"/>
      <use transform="translate(884.371822827483 0.0)scale(0.9962640099626402)" xlink:href="#Nimbus_Sans_L_Regular-93"/>
     </g>
    </g>
   </g>
   <g id="matplotlib.axis_4">
    <g id="ytick_7">
     <g id="line2d_21">
      <g>
       <use style="stroke:#000000;stroke-width:0.5;" x="49.9569462416" xlink:href="#m13e99c637f" y="321.759386675"/>
      </g>
     </g>
     <g id="text_17">
      <!-- $0$ -->
      <g transform="translate(40.97561099 324.247553608)scale(0.1 -0.1)">
       <use transform="scale(0.9962640099626402)" xlink:href="#CMR17-48"/>
      </g>
     </g>
    </g>
    <g id="ytick_8">
     <g id="line2d_22">
      <g>
       <use style="stroke:#000000;stroke-width:0.5;" x="49.9569462416" xlink:href="#m13e99c637f" y="299.641401213"/>
      </g>
     </g>
     <g id="text_18">
      <!-- $100$ -->
      <g transform="translate(31.0129404868 302.129568146)scale(0.1 -0.1)">
       <use transform="scale(0.9962640099626402)" xlink:href="#CMR17-49"/>
       <use transform="translate(45.69047711706103 0.0)scale(0.9962640099626402)" xlink:href="#CMR17-48"/>
       <use transform="translate(91.38095423412206 0.0)scale(0.9962640099626402)" xlink:href="#CMR17-48"/>
      </g>
     </g>
    </g>
    <g id="ytick_9">
     <g id="line2d_23">
      <g>
       <use style="stroke:#000000;stroke-width:0.5;" x="49.9569462416" xlink:href="#m13e99c637f" y="277.523415751"/>
      </g>
     </g>
     <g id="text_19">
      <!-- $200$ -->
      <g transform="translate(31.0129404868 280.011582684)scale(0.1 -0.1)">
       <use transform="scale(0.9962640099626402)" xlink:href="#CMR17-50"/>
       <use transform="translate(45.69047711706103 0.0)scale(0.9962640099626402)" xlink:href="#CMR17-48"/>
       <use transform="translate(91.38095423412206 0.0)scale(0.9962640099626402)" xlink:href="#CMR17-48"/>
      </g>
     </g>
    </g>
    <g id="ytick_10">
     <g id="line2d_24">
      <g>
       <use style="stroke:#000000;stroke-width:0.5;" x="49.9569462416" xlink:href="#m13e99c637f" y="255.405430289"/>
      </g>
     </g>
     <g id="text_20">
      <!-- $300$ -->
      <g transform="translate(31.0129404868 257.893597222)scale(0.1 -0.1)">
       <use transform="scale(0.9962640099626402)" xlink:href="#CMR17-51"/>
       <use transform="translate(45.69047711706103 0.0)scale(0.9962640099626402)" xlink:href="#CMR17-48"/>
       <use transform="translate(91.38095423412206 0.0)scale(0.9962640099626402)" xlink:href="#CMR17-48"/>
      </g>
     </g>
    </g>
    <g id="ytick_11">
     <g id="line2d_25">
      <g>
       <use style="stroke:#000000;stroke-width:0.5;" x="49.9569462416" xlink:href="#m13e99c637f" y="233.287444828"/>
      </g>
     </g>
     <g id="text_21">
      <!-- $400$ -->
      <g transform="translate(31.0129404868 235.77561176)scale(0.1 -0.1)">
       <use transform="scale(0.9962640099626402)" xlink:href="#CMR17-52"/>
       <use transform="translate(45.69047711706103 0.0)scale(0.9962640099626402)" xlink:href="#CMR17-48"/>
       <use transform="translate(91.38095423412206 0.0)scale(0.9962640099626402)" xlink:href="#CMR17-48"/>
      </g>
     </g>
    </g>
    <g id="ytick_12">
     <g id="line2d_26">
      <g>
       <use style="stroke:#000000;stroke-width:0.5;" x="49.9569462416" xlink:href="#m13e99c637f" y="211.169459366"/>
      </g>
     </g>
     <g id="text_22">
      <!-- $500$ -->
      <g transform="translate(31.0129404868 213.657626298)scale(0.1 -0.1)">
       <use transform="scale(0.9962640099626402)" xlink:href="#CMR17-53"/>
       <use transform="translate(45.69047711706103 0.0)scale(0.9962640099626402)" xlink:href="#CMR17-48"/>
       <use transform="translate(91.38095423412206 0.0)scale(0.9962640099626402)" xlink:href="#CMR17-48"/>
      </g>
     </g>
    </g>
    <g id="ytick_13">
     <g id="line2d_27">
      <g>
       <use style="stroke:#000000;stroke-width:0.5;" x="49.9569462416" xlink:href="#m13e99c637f" y="189.051473904"/>
      </g>
     </g>
     <g id="text_23">
      <!-- $600$ -->
      <g transform="translate(31.0129404868 191.539640837)scale(0.1 -0.1)">
       <use transform="scale(0.9962640099626402)" xlink:href="#CMR17-54"/>
       <use transform="translate(45.69047711706103 0.0)scale(0.9962640099626402)" xlink:href="#CMR17-48"/>
       <use transform="translate(91.38095423412206 0.0)scale(0.9962640099626402)" xlink:href="#CMR17-48"/>
      </g>
     </g>
    </g>
    <g id="text_24">
     <!-- Frequency [s$^{-1}$] -->
     <g transform="translate(23.8909540882 290.705793186)rotate(-90.0)scale(0.1 -0.1)">
      <use transform="scale(0.9962640099626402)" xlink:href="#Nimbus_Sans_L_Regular-70"/>
      <use transform="translate(56.38889868559309 0.0)scale(0.9962640099626402)" xlink:href="#Nimbus_Sans_L_Regular-114"/>
      <use transform="translate(89.5641284149284 0.0)scale(0.9962640099626402)" xlink:href="#Nimbus_Sans_L_Regular-101"/>
      <use transform="translate(144.95580537826902 0.0)scale(0.9962640099626402)" xlink:href="#Nimbus_Sans_L_Regular-113"/>
      <use transform="translate(200.3474823416096 0.0)scale(0.9962640099626402)" xlink:href="#Nimbus_Sans_L_Regular-117"/>
      <use transform="translate(255.73915930495022 0.0)scale(0.9962640099626402)" xlink:href="#Nimbus_Sans_L_Regular-101"/>
      <use transform="translate(311.1308362682908 0.0)scale(0.9962640099626402)" xlink:href="#Nimbus_Sans_L_Regular-110"/>
      <use transform="translate(366.5225132316314 0.0)scale(0.9962640099626402)" xlink:href="#Nimbus_Sans_L_Regular-99"/>
      <use transform="translate(416.3357137297634 0.0)scale(0.9962640099626402)" xlink:href="#Nimbus_Sans_L_Regular-121"/>
      <use transform="translate(493.84408383114106 0.0)scale(0.9962640099626402)" xlink:href="#Nimbus_Sans_L_Regular-91"/>
      <use transform="translate(521.5392534343868 0.0)scale(0.9962640099626402)" xlink:href="#Nimbus_Sans_L_Regular-115"/>
      <use transform="translate(571.3524539325188 36.15363894185866)scale(0.6973817666173724)" xlink:href="#CMSY10-0"/>
      <use transform="translate(625.5934471804951 36.15363894185866)scale(0.6973817666173724)" xlink:href="#CMR17-49"/>
      <use transform="translate(658.0747611495954 0.0)scale(0.9962640099626402)" xlink:href="#Nimbus_Sans_L_Regular-93"/>
     </g>
    </g>
   </g>
   <g id="text_25">
    <!-- Single neurons -->
    <defs>
     <path d="M 59.59375 52.109375 
C 59.5 66.484375 49.703125 74.8125 32.90625 74.8125 
C 16.90625 74.8125 7 66.5625 7 53.28125 
C 7 44.328125 11.703125 38.703125 21.296875 36.1875 
L 39.40625 31.359375 
C 48.59375 28.9375 52.796875 25.21875 52.796875 19.484375 
C 52.796875 15.546875 50.703125 11.53125 47.59375 9.328125 
C 44.703125 7.3125 40.09375 6.203125 34.203125 6.203125 
C 26.296875 6.203125 20.90625 8.125 17.40625 12.34375 
C 14.703125 15.5625 13.5 19.09375 13.59375 23.609375 
L 4.796875 23.609375 
C 4.90625 16.890625 6.203125 12.46875 9.09375 8.4375 
C 14.09375 1.609375 22.5 -2 33.59375 -2 
C 42.296875 -2 49.40625 0.015625 54.09375 3.625 
C 59 7.546875 62.09375 14.078125 62.09375 20.421875 
C 62.09375 29.46875 56.5 36.109375 46.59375 38.828125 
L 28.296875 43.765625 
C 19.5 46.171875 16.296875 48.984375 16.296875 54.625 
C 16.296875 62.0625 22.796875 67 32.59375 67 
C 44.203125 67 50.703125 61.671875 50.796875 52.109375 
z
" id="Nimbus_Sans_L_Regular-83"/>
     <path d="M 41.203125 52.203125 
L 41.203125 44.59375 
C 37 50.8125 31.90625 53.71875 25.203125 53.71875 
C 11.90625 53.71875 2.90625 42.0625 2.90625 25 
C 2.90625 16.375 5.203125 9.34375 9.5 4.3125 
C 13.40625 -0.109375 19 -2.703125 24.5 -2.703125 
C 31.09375 -2.703125 35.703125 0.09375 40.40625 6.703125 
L 40.40625 4.03125 
C 40.40625 -3 39.5 -7.265625 37.40625 -10.140625 
C 35.203125 -13.1875 30.90625 -14.984375 25.796875 -14.984375 
C 22 -14.984375 18.59375 -14 16.296875 -12.234375 
C 14.40625 -10.75 13.59375 -9.375 13.09375 -6.34375 
L 4.59375 -6.34375 
C 5.5 -16.140625 13.203125 -22 25.5 -22 
C 33.296875 -22 40 -19.484375 43.40625 -15.296875 
C 47.40625 -10.484375 48.90625 -3.890625 48.90625 8.40625 
L 48.90625 52.203125 
z
M 26.09375 46 
C 35.09375 46 40.40625 38.375 40.40625 25.203125 
C 40.40625 12.625 35 5 26.203125 5 
C 17.09375 5 11.59375 12.75 11.59375 25.5 
C 11.59375 38.15625 17.203125 46 26.09375 46 
" id="Nimbus_Sans_L_Regular-103"/>
    </defs>
    <g transform="translate(105.804977732 184.051473904)scale(0.14 -0.14)">
     <use transform="scale(0.9962640099626402)" xlink:href="#Nimbus_Sans_L_Regular-83"/>
     <use transform="translate(66.45003113325032 0.0)scale(0.9962640099626402)" xlink:href="#Nimbus_Sans_L_Regular-105"/>
     <use transform="translate(88.56681548198164 0.0)scale(0.9962640099626402)" xlink:href="#Nimbus_Sans_L_Regular-110"/>
     <use transform="translate(143.95849244532224 0.0)scale(0.9962640099626402)" xlink:href="#Nimbus_Sans_L_Regular-103"/>
     <use transform="translate(199.35016940866285 0.0)scale(0.9962640099626402)" xlink:href="#Nimbus_Sans_L_Regular-108"/>
     <use transform="translate(221.46695375739418 0.0)scale(0.9962640099626402)" xlink:href="#Nimbus_Sans_L_Regular-101"/>
     <use transform="translate(304.5538003239804 0.0)scale(0.9962640099626402)" xlink:href="#Nimbus_Sans_L_Regular-110"/>
     <use transform="translate(359.945477287321 0.0)scale(0.9962640099626402)" xlink:href="#Nimbus_Sans_L_Regular-101"/>
     <use transform="translate(415.3371542506616 0.0)scale(0.9962640099626402)" xlink:href="#Nimbus_Sans_L_Regular-117"/>
     <use transform="translate(470.72883121400224 0.0)scale(0.9962640099626402)" xlink:href="#Nimbus_Sans_L_Regular-114"/>
     <use transform="translate(503.9040609433375 0.0)scale(0.9962640099626402)" xlink:href="#Nimbus_Sans_L_Regular-111"/>
     <use transform="translate(559.2957379066781 0.0)scale(0.9962640099626402)" xlink:href="#Nimbus_Sans_L_Regular-110"/>
     <use transform="translate(614.6874148700188 0.0)scale(0.9962640099626402)" xlink:href="#Nimbus_Sans_L_Regular-115"/>
    </g>
   </g>
  </g>
 </g>
 <defs>
  <clipPath id="p5f69189e2a">
   <rect height="132.707912771" width="148.87801427" x="49.9569462416" y="25.7376483694"/>
  </clipPath>
  <clipPath id="p8057cc94f7">
   <rect height="132.707912771" width="148.87801427" x="49.9569462416" y="189.051473904"/>
  </clipPath>
 </defs>
</svg>
