<?xml version="1.0" encoding="utf-8" standalone="no"?>
<!DOCTYPE svg PUBLIC "-//W3C//DTD SVG 1.1//EN"
  "http://www.w3.org/Graphics/SVG/1.1/DTD/svg11.dtd">
<!-- Created with matplotlib (http://matplotlib.org/) -->
<svg height="360pt" version="1.1" viewBox="0 0 288 360" width="288pt" xmlns="http://www.w3.org/2000/svg" xmlns:xlink="http://www.w3.org/1999/xlink">
 <defs>
  <style type="text/css">
*{stroke-linecap:butt;stroke-linejoin:round;stroke-miterlimit:100000;}
  </style>
 </defs>
 <g id="figure_1">
  <g id="patch_1">
   <path d="M 0 360 
L 288 360 
L 288 0 
L 0 0 
z
" style="fill:#ffffff;"/>
  </g>
  <g id="axes_1">
   <g id="line2d_1">
    <path clip-path="url(#p05fe3fc756)" d="M 41.723272 167.989847 
L 55.307343 167.989847 
L 56.120761 150.968516 
L 56.934178 138.377832 
L 57.747596 129.064498 
L 58.561013 122.175422 
L 59.374431 117.079569 
L 60.187848 113.310165 
L 61.001265 110.521936 
L 61.841797 108.400872 
L 62.709442 106.805119 
L 63.604201 105.617733 
L 64.553188 104.722387 
L 65.610631 104.033688 
L 66.830757 103.511564 
L 68.322023 103.123857 
L 70.328452 102.848249 
L 73.365211 102.679563 
L 79.492956 102.606908 
L 118.23874 102.59855 
L 163.763004 102.59855 
L 164.576421 85.577219 
L 165.389839 72.986535 
L 166.203256 63.673201 
L 167.016674 56.784125 
L 167.830091 51.688272 
L 168.643509 47.918868 
L 169.456926 45.130638 
L 170.297458 43.009575 
L 171.165103 41.413822 
L 172.059862 40.226436 
L 173.008849 39.33109 
L 174.066292 38.642391 
L 175.286418 38.120267 
L 176.777683 37.73256 
L 178.784113 37.456952 
L 181.820872 37.288266 
L 187.948616 37.215611 
L 226.694401 37.207252 
L 272.191551 37.207252 
L 272.191551 37.207252 
" style="fill:none;stroke:#e74c3c;stroke-linecap:square;stroke-width:1.5;"/>
   </g>
   <g id="line2d_2">
    <path clip-path="url(#p05fe3fc756)" d="M 41.723272 167.989847 
L 56.554583 167.989847 
L 56.581697 124.395649 
L 56.690153 124.569764 
L 59.401544 128.703697 
L 61.950252 132.230024 
L 61.977366 88.671585 
L 62.085822 88.988383 
L 64.661644 96.151468 
L 67.237466 102.665075 
L 69.840402 108.647492 
L 72.443338 114.082043 
L 75.073387 119.06787 
L 77.730551 123.636965 
L 79.004905 125.674316 
L 79.032019 82.122433 
L 79.140475 82.465388 
L 81.689183 90.142068 
L 84.265005 97.200548 
L 86.840827 103.619034 
L 89.443762 109.514089 
L 92.073812 114.922397 
L 94.703862 119.830501 
L 97.38814 124.372031 
L 97.794848 125.021739 
L 97.821962 81.470509 
L 97.930418 81.816067 
L 100.479126 89.55103 
L 103.054948 96.6631 
L 105.63077 103.130317 
L 108.233706 109.070128 
L 110.836642 114.465973 
L 113.466691 119.416291 
L 116.123855 123.952845 
L 116.611905 124.738809 
L 116.639019 81.187862 
L 116.747475 81.53455 
L 119.296183 89.294781 
L 121.872005 96.430086 
L 124.447827 102.91843 
L 127.050763 108.877645 
L 129.653699 114.291118 
L 132.283748 119.257608 
L 134.940912 123.808982 
L 135.401849 124.554078 
L 135.428963 81.003316 
L 135.537418 81.350741 
L 138.086126 89.127471 
L 140.661948 96.277945 
L 143.23777 102.780084 
L 145.840706 108.751969 
L 148.443642 114.176952 
L 151.073692 119.154001 
L 153.730855 123.715051 
L 154.218906 124.50526 
L 154.24602 80.954546 
L 154.354475 81.302165 
L 156.903183 89.083256 
L 159.479005 96.237739 
L 162.054827 102.743524 
L 164.522194 108.42151 
L 164.549308 64.886881 
L 164.657763 65.298674 
L 167.179357 74.422672 
L 167.47761 75.44678 
L 167.504724 31.945125 
L 167.61318 32.488488 
L 170.134774 44.527634 
L 172.656368 55.497116 
L 173.903608 60.557041 
L 173.930722 17.070276 
L 174.039178 17.673049 
L 176.560772 31.028531 
L 179.082366 43.197393 
L 181.60396 54.285065 
L 182.796972 59.182001 
L 182.824086 15.696611 
L 182.932542 16.30487 
L 185.454136 29.781913 
L 187.97573 42.061536 
L 190.497324 53.250127 
L 191.907248 59.066953 
L 191.934362 15.581678 
L 192.042818 16.190397 
L 194.564412 29.67761 
L 197.086006 41.9665 
L 199.6076 53.163535 
L 201.044637 59.093756 
L 201.071751 15.608454 
L 201.180207 16.217066 
L 203.701801 29.70191 
L 206.223395 41.988641 
L 208.744989 53.183709 
L 210.182027 59.112888 
L 210.209141 15.627566 
L 210.317596 16.236102 
L 212.83919 29.719255 
L 215.360785 42.004445 
L 217.882379 53.198109 
L 219.292302 59.017571 
L 219.319416 15.532345 
L 219.427872 16.141261 
L 221.949466 29.632841 
L 224.47106 41.925708 
L 226.992654 53.126368 
L 228.429692 59.058508 
L 228.456806 15.573241 
L 228.565261 16.181994 
L 231.086855 29.669954 
L 233.60845 41.959524 
L 236.130044 53.157179 
L 237.567081 59.087728 
L 237.594195 15.602432 
L 237.702651 16.211068 
L 240.224245 29.696445 
L 242.745839 41.983661 
L 245.267433 53.179172 
L 246.704471 59.108585 
L 246.731584 15.623268 
L 246.84004 16.231821 
L 249.361634 29.715354 
L 251.883228 42.00089 
L 254.404822 53.19487 
L 255.814746 59.014497 
L 255.84186 15.529274 
L 255.950316 16.138202 
L 258.47191 29.630054 
L 260.993504 41.923169 
L 263.515098 53.124054 
L 264.952135 59.056313 
L 264.979249 15.571049 
L 265.087705 16.17981 
L 267.609299 29.667965 
L 270.130893 41.957711 
L 272.191551 51.185663 
L 272.191551 51.185663 
" style="fill:none;stroke:#2980b9;stroke-linecap:square;stroke-width:1.5;"/>
   </g>
   <g id="legend_1">
    <g id="line2d_3">
     <path d="M 178.910802 134.610642 
L 198.510802 134.610642 
" style="fill:none;stroke:#e74c3c;stroke-linecap:square;stroke-width:1.5;"/>
    </g>
    <g id="line2d_4"/>
    <g id="text_1">
     <!-- Signal -->
     <defs>
      <path d="M 59.59375 52.109375 
C 59.5 66.484375 49.703125 74.8125 32.90625 74.8125 
C 16.90625 74.8125 7 66.5625 7 53.28125 
C 7 44.328125 11.703125 38.703125 21.296875 36.1875 
L 39.40625 31.359375 
C 48.59375 28.9375 52.796875 25.21875 52.796875 19.484375 
C 52.796875 15.546875 50.703125 11.53125 47.59375 9.328125 
C 44.703125 7.3125 40.09375 6.203125 34.203125 6.203125 
C 26.296875 6.203125 20.90625 8.125 17.40625 12.34375 
C 14.703125 15.5625 13.5 19.09375 13.59375 23.609375 
L 4.796875 23.609375 
C 4.90625 16.890625 6.203125 12.46875 9.09375 8.4375 
C 14.09375 1.609375 22.5 -2 33.59375 -2 
C 42.296875 -2 49.40625 0.015625 54.09375 3.625 
C 59 7.546875 62.09375 14.078125 62.09375 20.421875 
C 62.09375 29.46875 56.5 36.109375 46.59375 38.828125 
L 28.296875 43.765625 
C 19.5 46.171875 16.296875 48.984375 16.296875 54.625 
C 16.296875 62.0625 22.796875 67 32.59375 67 
C 44.203125 67 50.703125 61.671875 50.796875 52.109375 
z
" id="Nimbus_Sans_L_Regular-83"/>
      <path d="M 7 52.484375 
L 7 0 
L 15.40625 0 
L 15.40625 28.953125 
C 15.40625 39.671875 21 46.6875 29.59375 46.6875 
C 36.203125 46.6875 40.40625 42.671875 40.40625 36.359375 
L 40.40625 0 
L 48.703125 0 
L 48.703125 39.671875 
C 48.703125 48.390625 42.203125 54 32.09375 54 
C 24.296875 54 19.296875 50.984375 14.703125 43.6875 
L 14.703125 52.484375 
z
" id="Nimbus_Sans_L_Regular-110"/>
      <path d="M 15.203125 73 
L 6.796875 73 
L 6.796875 -0.03125 
L 15.203125 -0.03125 
z
" id="Nimbus_Sans_L_Regular-108"/>
      <path d="M 41.203125 52.203125 
L 41.203125 44.59375 
C 37 50.8125 31.90625 53.71875 25.203125 53.71875 
C 11.90625 53.71875 2.90625 42.0625 2.90625 25 
C 2.90625 16.375 5.203125 9.34375 9.5 4.3125 
C 13.40625 -0.109375 19 -2.703125 24.5 -2.703125 
C 31.09375 -2.703125 35.703125 0.09375 40.40625 6.703125 
L 40.40625 4.03125 
C 40.40625 -3 39.5 -7.265625 37.40625 -10.140625 
C 35.203125 -13.1875 30.90625 -14.984375 25.796875 -14.984375 
C 22 -14.984375 18.59375 -14 16.296875 -12.234375 
C 14.40625 -10.75 13.59375 -9.375 13.09375 -6.34375 
L 4.59375 -6.34375 
C 5.5 -16.140625 13.203125 -22 25.5 -22 
C 33.296875 -22 40 -19.484375 43.40625 -15.296875 
C 47.40625 -10.484375 48.90625 -3.890625 48.90625 8.40625 
L 48.90625 52.203125 
z
M 26.09375 46 
C 35.09375 46 40.40625 38.375 40.40625 25.203125 
C 40.40625 12.625 35 5 26.203125 5 
C 17.09375 5 11.59375 12.75 11.59375 25.5 
C 11.59375 38.15625 17.203125 46 26.09375 46 
" id="Nimbus_Sans_L_Regular-103"/>
      <path d="M 15 52.484375 
L 6.703125 52.484375 
L 6.703125 0 
L 15 0 
z
M 15 73 
L 6.59375 73 
L 6.59375 62.484375 
L 15 62.484375 
z
" id="Nimbus_Sans_L_Regular-105"/>
      <path d="M 53.5 5.203125 
C 52.59375 5 52.203125 5 51.703125 5 
C 48.796875 5 47.203125 6.484375 47.203125 9.078125 
L 47.203125 39.765625 
C 47.203125 49.015625 40.40625 54 27.5 54 
C 19.90625 54 13.59375 51.8125 10.09375 47.90625 
C 7.703125 45.203125 6.703125 42.21875 6.5 37.03125 
L 14.90625 37.03125 
C 15.59375 43.390625 19.40625 46.28125 27.203125 46.28125 
C 34.703125 46.28125 38.90625 43.484375 38.90625 38.515625 
L 38.90625 36.328125 
C 38.90625 32.828125 36.796875 31.34375 30.203125 30.546875 
C 18.40625 29.0625 16.59375 28.65625 13.40625 27.359375 
C 7.296875 24.875 4.203125 20.1875 4.203125 13.421875 
C 4.203125 3.96875 10.796875 -2 21.40625 -2 
C 28 -2 33.296875 0.296875 39.203125 5.703125 
C 39.796875 0.390625 42.40625 -2 47.796875 -2 
C 49.5 -2 50.796875 -1.8125 53.5 -1.09375 
z
M 38.90625 16.75 
C 38.90625 13.953125 38.09375 12.265625 35.59375 9.984375 
C 32.203125 6.890625 28.09375 5.3125 23.203125 5.3125 
C 16.703125 5.3125 12.90625 8.390625 12.90625 13.65625 
C 12.90625 19.140625 16.59375 21.921875 25.5 23.21875 
C 34.296875 24.40625 36.09375 24.8125 38.90625 26.09375 
z
" id="Nimbus_Sans_L_Regular-97"/>
     </defs>
     <g transform="translate(213.910801657 139.510642464)scale(0.14 -0.14)">
      <use transform="scale(0.9962640099626402)" xlink:href="#Nimbus_Sans_L_Regular-83"/>
      <use transform="translate(66.45003113325032 0.0)scale(0.9962640099626402)" xlink:href="#Nimbus_Sans_L_Regular-105"/>
      <use transform="translate(88.56681548198164 0.0)scale(0.9962640099626402)" xlink:href="#Nimbus_Sans_L_Regular-103"/>
      <use transform="translate(143.95849244532224 0.0)scale(0.9962640099626402)" xlink:href="#Nimbus_Sans_L_Regular-110"/>
      <use transform="translate(199.35016940866285 0.0)scale(0.9962640099626402)" xlink:href="#Nimbus_Sans_L_Regular-97"/>
      <use transform="translate(254.74184637200344 0.0)scale(0.9962640099626402)" xlink:href="#Nimbus_Sans_L_Regular-108"/>
     </g>
    </g>
    <g id="line2d_5">
     <path d="M 178.910802 154.519069 
L 198.510802 154.519069 
" style="fill:none;stroke:#2980b9;stroke-linecap:square;stroke-width:1.5;"/>
    </g>
    <g id="line2d_6"/>
    <g id="text_2">
     <!-- Decoder -->
     <defs>
      <path d="M 27.203125 54 
C 12.5 54 3.59375 43.53125 3.59375 26 
C 3.59375 8.453125 12.40625 -2 27.296875 -2 
C 42 -2 51 8.453125 51 25.59375 
C 51 43.640625 42.296875 54 27.203125 54 
M 27.296875 46.28125 
C 36.703125 46.28125 42.296875 38.625 42.296875 25.703125 
C 42.296875 13.453125 36.5 5.703125 27.296875 5.703125 
C 18 5.703125 12.296875 13.359375 12.296875 26 
C 12.296875 38.53125 18 46.28125 27.296875 46.28125 
" id="Nimbus_Sans_L_Regular-111"/>
      <path d="M 8.90625 0 
L 37 0 
C 55.40625 0 66.703125 13.828125 66.703125 36.546875 
C 66.703125 59.171875 55.5 73 37 73 
L 8.90625 73 
z
M 18.203125 8.21875 
L 18.203125 64.78125 
L 35.40625 64.78125 
C 49.796875 64.78125 57.40625 55.0625 57.40625 36.453125 
C 57.40625 18.03125 49.796875 8.21875 35.40625 8.21875 
z
" id="Nimbus_Sans_L_Regular-68"/>
      <path d="M 49.5 73 
L 41.203125 73 
L 41.203125 45.890625 
C 37.703125 51.1875 32.09375 54 25.09375 54 
C 11.5 54 2.59375 43.140625 2.59375 26.484375 
C 2.59375 8.84375 11.296875 -2 25.40625 -2 
C 32.59375 -2 37.59375 0.703125 42.09375 7.203125 
L 42.09375 -0.03125 
L 49.5 -0.03125 
z
M 26.5 46.1875 
C 35.5 46.1875 41.203125 38.234375 41.203125 25.796875 
C 41.203125 13.765625 35.40625 5.8125 26.59375 5.8125 
C 17.40625 5.8125 11.296875 13.859375 11.296875 26 
C 11.296875 38.125 17.40625 46.1875 26.5 46.1875 
" id="Nimbus_Sans_L_Regular-100"/>
      <path d="M 47.09375 34.9375 
C 46.703125 40.03125 45.59375 43.328125 43.59375 46.21875 
C 40 51.109375 33.703125 54 26.40625 54 
C 12.296875 54 3.09375 42.84375 3.09375 25.5 
C 3.09375 8.65625 12.09375 -2 26.296875 -2 
C 38.796875 -2 46.703125 5.46875 47.703125 18.234375 
L 39.296875 18.234375 
C 37.90625 9.875 33.59375 5.703125 26.5 5.703125 
C 17.296875 5.703125 11.796875 13.171875 11.796875 25.5 
C 11.796875 38.53125 17.203125 46.28125 26.296875 46.28125 
C 33.296875 46.28125 37.703125 42.203125 38.703125 34.9375 
z
" id="Nimbus_Sans_L_Regular-99"/>
      <path d="M 51.296875 24 
C 51.296875 31.875 50.703125 36.59375 49.203125 40.421875 
C 45.796875 48.875 37.796875 54 28 54 
C 13.40625 54 4 42.84375 4 25.703125 
C 4 8.546875 13.09375 -2 27.796875 -2 
C 39.796875 -2 48.09375 4.875 50.203125 16.375 
L 41.796875 16.375 
C 39.5 9.359375 34.796875 5.703125 28.09375 5.703125 
C 22.796875 5.703125 18.296875 8.140625 15.5 12.609375 
C 13.5 15.65625 12.796875 18.71875 12.703125 24 
z
M 12.90625 30.8125 
C 13.59375 40.1875 19.5 46.28125 27.90625 46.28125 
C 36.09375 46.28125 42.40625 39.703125 42.40625 31.40625 
C 42.40625 31.203125 42.40625 31.015625 42.296875 30.8125 
z
" id="Nimbus_Sans_L_Regular-101"/>
      <path d="M 6.90625 52.484375 
L 6.90625 0 
L 15.296875 0 
L 15.296875 27.25 
C 15.296875 34.765625 17.203125 39.671875 21.203125 42.578125 
C 23.796875 44.484375 26.296875 45.078125 32.09375 45.078125 
L 32.09375 53.703125 
C 30.703125 53.890625 30 54 28.90625 54 
C 23.5 54 19.40625 50.78125 14.59375 42.96875 
L 14.59375 52.484375 
z
" id="Nimbus_Sans_L_Regular-114"/>
     </defs>
     <g transform="translate(213.910801657 159.419068751)scale(0.14 -0.14)">
      <use transform="scale(0.9962640099626402)" xlink:href="#Nimbus_Sans_L_Regular-68"/>
      <use transform="translate(71.92998484686333 0.0)scale(0.9962640099626402)" xlink:href="#Nimbus_Sans_L_Regular-101"/>
      <use transform="translate(127.32166181020393 0.0)scale(0.9962640099626402)" xlink:href="#Nimbus_Sans_L_Regular-99"/>
      <use transform="translate(177.13486230833595 0.0)scale(0.9962640099626402)" xlink:href="#Nimbus_Sans_L_Regular-111"/>
      <use transform="translate(232.52653927167654 0.0)scale(0.9962640099626402)" xlink:href="#Nimbus_Sans_L_Regular-100"/>
      <use transform="translate(287.91821623501716 0.0)scale(0.9962640099626402)" xlink:href="#Nimbus_Sans_L_Regular-101"/>
      <use transform="translate(343.30989319835777 0.0)scale(0.9962640099626402)" xlink:href="#Nimbus_Sans_L_Regular-114"/>
     </g>
    </g>
   </g>
  </g>
  <g id="axes_2">
   <g id="LineCollection_1">
    <path clip-path="url(#p84b2eb8da6)" d="M 56.581697 303.284045 
L 56.581697 288.026075 
" style="fill:none;stroke:#7f8c8d;"/>
    <path clip-path="url(#p84b2eb8da6)" d="M 61.977366 303.284045 
L 61.977366 288.026075 
" style="fill:none;stroke:#7f8c8d;"/>
    <path clip-path="url(#p84b2eb8da6)" d="M 154.24602 303.284045 
L 154.24602 288.026075 
" style="fill:none;stroke:#7f8c8d;"/>
    <path clip-path="url(#p84b2eb8da6)" d="M 182.824086 303.284045 
L 182.824086 288.026075 
" style="fill:none;stroke:#7f8c8d;"/>
    <path clip-path="url(#p84b2eb8da6)" d="M 201.071751 303.284045 
L 201.071751 288.026075 
" style="fill:none;stroke:#7f8c8d;"/>
    <path clip-path="url(#p84b2eb8da6)" d="M 210.209141 303.284045 
L 210.209141 288.026075 
" style="fill:none;stroke:#7f8c8d;"/>
    <path clip-path="url(#p84b2eb8da6)" d="M 246.731584 303.284045 
L 246.731584 288.026075 
" style="fill:none;stroke:#7f8c8d;"/>
    <path clip-path="url(#p84b2eb8da6)" d="M 264.979249 303.284045 
L 264.979249 288.026075 
" style="fill:none;stroke:#7f8c8d;"/>
   </g>
   <g id="LineCollection_2">
    <path clip-path="url(#p84b2eb8da6)" d="M 97.821962 259.689847 
L 97.821962 244.431877 
" style="fill:none;stroke:#7f8c8d;"/>
    <path clip-path="url(#p84b2eb8da6)" d="M 167.504724 259.689847 
L 167.504724 244.431877 
" style="fill:none;stroke:#7f8c8d;"/>
    <path clip-path="url(#p84b2eb8da6)" d="M 173.930722 259.689847 
L 173.930722 244.431877 
" style="fill:none;stroke:#7f8c8d;"/>
    <path clip-path="url(#p84b2eb8da6)" d="M 219.319416 259.689847 
L 219.319416 244.431877 
" style="fill:none;stroke:#7f8c8d;"/>
    <path clip-path="url(#p84b2eb8da6)" d="M 228.456806 259.689847 
L 228.456806 244.431877 
" style="fill:none;stroke:#7f8c8d;"/>
    <path clip-path="url(#p84b2eb8da6)" d="M 237.594195 259.689847 
L 237.594195 244.431877 
" style="fill:none;stroke:#7f8c8d;"/>
    <path clip-path="url(#p84b2eb8da6)" d="M 255.84186 259.689847 
L 255.84186 244.431877 
" style="fill:none;stroke:#7f8c8d;"/>
   </g>
   <g id="LineCollection_3">
    <path clip-path="url(#p84b2eb8da6)" d="M 79.032019 216.095649 
L 79.032019 200.837679 
" style="fill:none;stroke:#7f8c8d;"/>
    <path clip-path="url(#p84b2eb8da6)" d="M 116.639019 216.095649 
L 116.639019 200.837679 
" style="fill:none;stroke:#7f8c8d;"/>
    <path clip-path="url(#p84b2eb8da6)" d="M 135.428963 216.095649 
L 135.428963 200.837679 
" style="fill:none;stroke:#7f8c8d;"/>
    <path clip-path="url(#p84b2eb8da6)" d="M 164.549308 216.095649 
L 164.549308 200.837679 
" style="fill:none;stroke:#7f8c8d;"/>
    <path clip-path="url(#p84b2eb8da6)" d="M 191.934362 216.095649 
L 191.934362 200.837679 
" style="fill:none;stroke:#7f8c8d;"/>
   </g>
   <g id="LineCollection_4">
    <path clip-path="url(#p84b2eb8da6)" d="M 56.581697 194.29855 
L 56.581697 172.50145 
" style="fill:none;stroke:#000000;"/>
    <path clip-path="url(#p84b2eb8da6)" d="M 61.977366 194.29855 
L 61.977366 172.50145 
" style="fill:none;stroke:#000000;"/>
    <path clip-path="url(#p84b2eb8da6)" d="M 79.032019 194.29855 
L 79.032019 172.50145 
" style="fill:none;stroke:#000000;"/>
    <path clip-path="url(#p84b2eb8da6)" d="M 97.821962 194.29855 
L 97.821962 172.50145 
" style="fill:none;stroke:#000000;"/>
    <path clip-path="url(#p84b2eb8da6)" d="M 116.639019 194.29855 
L 116.639019 172.50145 
" style="fill:none;stroke:#000000;"/>
    <path clip-path="url(#p84b2eb8da6)" d="M 135.428963 194.29855 
L 135.428963 172.50145 
" style="fill:none;stroke:#000000;"/>
    <path clip-path="url(#p84b2eb8da6)" d="M 154.24602 194.29855 
L 154.24602 172.50145 
" style="fill:none;stroke:#000000;"/>
    <path clip-path="url(#p84b2eb8da6)" d="M 164.549308 194.29855 
L 164.549308 172.50145 
" style="fill:none;stroke:#000000;"/>
    <path clip-path="url(#p84b2eb8da6)" d="M 167.504724 194.29855 
L 167.504724 172.50145 
" style="fill:none;stroke:#000000;"/>
    <path clip-path="url(#p84b2eb8da6)" d="M 173.930722 194.29855 
L 173.930722 172.50145 
" style="fill:none;stroke:#000000;"/>
    <path clip-path="url(#p84b2eb8da6)" d="M 182.824086 194.29855 
L 182.824086 172.50145 
" style="fill:none;stroke:#000000;"/>
    <path clip-path="url(#p84b2eb8da6)" d="M 191.934362 194.29855 
L 191.934362 172.50145 
" style="fill:none;stroke:#000000;"/>
    <path clip-path="url(#p84b2eb8da6)" d="M 201.071751 194.29855 
L 201.071751 172.50145 
" style="fill:none;stroke:#000000;"/>
    <path clip-path="url(#p84b2eb8da6)" d="M 210.209141 194.29855 
L 210.209141 172.50145 
" style="fill:none;stroke:#000000;"/>
    <path clip-path="url(#p84b2eb8da6)" d="M 219.319416 194.29855 
L 219.319416 172.50145 
" style="fill:none;stroke:#000000;"/>
    <path clip-path="url(#p84b2eb8da6)" d="M 228.456806 194.29855 
L 228.456806 172.50145 
" style="fill:none;stroke:#000000;"/>
    <path clip-path="url(#p84b2eb8da6)" d="M 237.594195 194.29855 
L 237.594195 172.50145 
" style="fill:none;stroke:#000000;"/>
    <path clip-path="url(#p84b2eb8da6)" d="M 246.731584 194.29855 
L 246.731584 172.50145 
" style="fill:none;stroke:#000000;"/>
    <path clip-path="url(#p84b2eb8da6)" d="M 255.84186 194.29855 
L 255.84186 172.50145 
" style="fill:none;stroke:#000000;"/>
    <path clip-path="url(#p84b2eb8da6)" d="M 264.979249 194.29855 
L 264.979249 172.50145 
" style="fill:none;stroke:#000000;"/>
   </g>
   <g id="line2d_7">
    <path clip-path="url(#p84b2eb8da6)" d="M 41.723272 316.614997 
L 50.372611 315.950366 
L 55.307343 315.656077 
L 56.120761 307.101843 
L 56.581697 303.279311 
L 56.608811 324.871146 
L 56.717267 323.9832 
L 57.584912 317.923144 
L 58.452557 313.352413 
L 59.347317 309.772134 
L 60.26919 306.95383 
L 61.245291 304.659072 
L 61.977366 303.277846 
L 62.00448 325.028331 
L 62.112936 324.757708 
L 63.38729 321.902808 
L 64.824327 319.224416 
L 66.50539 316.567052 
L 68.484706 313.864787 
L 70.789389 311.103244 
L 73.392325 308.335494 
L 76.212172 305.660239 
L 79.032019 303.263646 
L 79.059133 325.038924 
L 79.167589 324.864803 
L 81.87898 320.732351 
L 84.617486 316.959436 
L 87.410219 313.485645 
L 90.25718 310.294523 
L 93.185483 307.343982 
L 96.195127 304.626109 
L 97.821962 303.277932 
L 97.849076 325.05324 
L 97.957532 324.879236 
L 100.668923 320.747947 
L 103.407429 316.974467 
L 106.200162 313.499546 
L 109.047123 310.30716 
L 111.975426 307.355368 
L 114.985071 304.636313 
L 116.639019 303.265744 
L 116.666133 325.041064 
L 116.774589 324.867109 
L 119.48598 320.736977 
L 122.224486 316.964553 
L 125.017219 313.490602 
L 127.86418 310.299109 
L 130.792483 307.348141 
L 133.802128 304.629846 
L 135.428963 303.281454 
L 135.456077 325.056759 
L 135.564532 324.882741 
L 138.275924 320.75112 
L 141.014429 316.977337 
L 143.807162 313.502135 
L 146.654124 310.309491 
L 149.582426 307.35746 
L 152.592071 304.638186 
L 154.24602 303.267506 
L 154.273134 325.042831 
L 154.381589 324.868869 
L 157.092981 320.738569 
L 159.831486 316.965992 
L 162.62422 313.491901 
L 163.763004 312.174885 
L 164.549308 303.03091 
L 164.576421 324.553906 
L 164.684877 323.39492 
L 165.579636 315.168819 
L 166.501509 308.680172 
L 167.450496 303.513465 
L 167.504724 303.25488 
L 167.531838 324.923998 
L 167.640294 324.333567 
L 168.72485 319.103299 
L 169.917863 314.44172 
L 171.219331 310.241963 
L 172.710596 306.186834 
L 173.930722 303.280761 
L 173.957836 325.01658 
L 174.066292 324.685685 
L 176.072721 318.944385 
L 178.296063 313.254103 
L 180.709201 307.686484 
L 182.824086 303.23648 
L 182.8512 324.97889 
L 182.959656 324.673618 
L 185.508364 317.848568 
L 188.084186 311.58171 
L 190.687122 305.829292 
L 191.934362 303.263229 
L 191.961476 325.005848 
L 192.069931 324.701413 
L 194.645753 317.818145 
L 197.221575 311.559278 
L 199.824511 305.81094 
L 201.071751 303.246178 
L 201.098865 324.988829 
L 201.207321 324.684495 
L 203.783143 317.803221 
L 206.358965 311.545884 
L 208.961901 305.79884 
L 210.209141 303.234639 
L 210.236255 324.977302 
L 210.34471 324.673015 
L 212.920532 317.792797 
L 215.496354 311.536411 
L 218.09929 305.790237 
L 219.319416 303.280914 
L 219.34653 325.023523 
L 219.454986 324.719051 
L 222.030808 317.83466 
L 224.60663 311.574478 
L 227.209566 305.824818 
L 228.456806 303.25945 
L 228.48392 325.002081 
L 228.592375 324.697694 
L 231.168197 317.815239 
L 233.744019 311.556819 
L 236.346955 305.808776 
L 237.594195 303.244129 
L 237.621309 324.986775 
L 237.729765 324.68245 
L 240.305587 317.801377 
L 242.881409 311.544213 
L 245.484344 305.797325 
L 246.731584 303.233193 
L 246.758698 324.975858 
L 246.867154 324.671576 
L 249.442976 317.791489 
L 252.018798 311.535222 
L 254.621734 305.789157 
L 255.84186 303.279881 
L 255.868974 325.022492 
L 255.97743 324.718024 
L 258.553251 317.833726 
L 261.129073 311.573629 
L 263.732009 305.824047 
L 264.979249 303.258713 
L 265.006363 325.001352 
L 265.114819 324.696968 
L 267.690641 317.814579 
L 270.266463 311.556218 
L 272.191551 307.252353 
L 272.191551 307.252353 
" style="fill:none;stroke:#7f8c8d;stroke-linecap:square;stroke-width:1.5;"/>
   </g>
   <g id="line2d_8">
    <path clip-path="url(#p84b2eb8da6)" d="M 41.723272 273.020799 
L 50.372611 272.356168 
L 55.307343 272.061879 
L 56.120761 263.507645 
L 56.581697 259.685113 
L 56.608811 281.276941 
L 56.717267 280.388995 
L 57.584912 274.328938 
L 58.452557 269.758208 
L 59.347317 266.177929 
L 60.26919 263.359626 
L 61.245291 261.064867 
L 61.977366 259.683642 
L 62.00448 281.434119 
L 62.112936 281.163497 
L 63.38729 278.308597 
L 64.824327 275.630206 
L 66.50539 272.972843 
L 68.484706 270.270579 
L 70.789389 267.509037 
L 73.392325 264.741287 
L 76.212172 262.066033 
L 79.032019 259.669441 
L 79.059133 281.444719 
L 79.167589 281.270598 
L 81.87898 277.138146 
L 84.617486 273.365232 
L 87.410219 269.891442 
L 90.25718 266.700321 
L 93.185483 263.74978 
L 96.195127 261.031908 
L 97.821962 259.68373 
L 97.849076 281.459046 
L 97.957532 281.285041 
L 100.668923 277.153752 
L 103.407429 273.380272 
L 106.200162 269.905351 
L 109.047123 266.712965 
L 111.975426 263.761172 
L 114.985071 261.042117 
L 116.639019 259.671548 
L 116.666133 281.446868 
L 116.774589 281.272913 
L 119.48598 277.14278 
L 122.224486 273.370356 
L 125.017219 269.896406 
L 127.86418 266.704912 
L 130.792483 263.753944 
L 133.802128 261.035649 
L 135.428963 259.687257 
L 135.456077 281.462562 
L 135.564532 281.288544 
L 138.275924 277.156923 
L 141.014429 273.383139 
L 143.807162 269.907937 
L 146.654124 266.715294 
L 149.582426 263.763263 
L 152.592071 261.043988 
L 154.24602 259.673308 
L 154.273134 281.448626 
L 154.381589 281.274664 
L 157.092981 277.144365 
L 159.831486 273.371788 
L 162.62422 269.897698 
L 163.763004 268.580682 
L 164.549308 259.436708 
L 164.576421 280.959704 
L 164.684877 279.800718 
L 165.579636 271.574616 
L 166.501509 265.085969 
L 167.450496 259.919262 
L 167.504724 259.660678 
L 167.531838 281.329803 
L 167.640294 280.739372 
L 168.72485 275.509104 
L 169.917863 270.847524 
L 171.219331 266.647767 
L 172.710596 262.592638 
L 173.930722 259.686566 
L 173.957836 281.422392 
L 174.066292 281.091496 
L 176.072721 275.350196 
L 178.296063 269.659913 
L 180.709201 264.092294 
L 182.824086 259.642289 
L 182.8512 281.384692 
L 182.959656 281.079419 
L 185.508364 274.254369 
L 188.084186 267.987512 
L 190.687122 262.235094 
L 191.934362 259.669031 
L 191.961476 281.41165 
L 192.069931 281.107215 
L 194.645753 274.223947 
L 197.221575 267.96508 
L 199.824511 262.216741 
L 201.071751 259.65198 
L 201.098865 281.394624 
L 201.207321 281.09029 
L 203.783143 274.209016 
L 206.358965 267.951679 
L 208.961901 262.204637 
L 210.209141 259.640436 
L 210.236255 281.383092 
L 210.34471 281.078804 
L 212.920532 274.198588 
L 215.496354 267.942203 
L 218.09929 262.19603 
L 219.319416 259.686707 
L 219.34653 281.429323 
L 219.454986 281.124851 
L 222.030808 274.24046 
L 224.60663 267.980279 
L 227.209566 262.230619 
L 228.456806 259.66525 
L 228.48392 281.407888 
L 228.592375 281.103502 
L 231.168197 274.221047 
L 233.744019 267.962626 
L 236.346955 262.214583 
L 237.594195 259.649935 
L 237.621309 281.392589 
L 237.729765 281.088264 
L 240.305587 274.20719 
L 242.881409 267.950025 
L 245.484344 262.203136 
L 246.731584 259.639003 
L 246.758698 281.38166 
L 246.867154 281.077379 
L 249.442976 274.197292 
L 252.018798 267.941025 
L 254.621734 262.19496 
L 255.84186 259.685684 
L 255.868974 281.428301 
L 255.97743 281.123834 
L 258.553251 274.239535 
L 261.129073 267.979437 
L 263.732009 262.229855 
L 264.979249 259.66452 
L 265.006363 281.407152 
L 265.114819 281.102769 
L 267.690641 274.22038 
L 270.266463 267.962019 
L 272.191551 263.658153 
L 272.191551 263.658153 
" style="fill:none;stroke:#7f8c8d;stroke-linecap:square;stroke-width:1.5;"/>
   </g>
   <g id="line2d_9">
    <path clip-path="url(#p84b2eb8da6)" d="M 41.723272 229.426601 
L 50.372611 228.76197 
L 55.307343 228.467681 
L 56.120761 219.913447 
L 56.581697 216.090915 
L 56.608811 237.682743 
L 56.717267 236.794797 
L 57.584912 230.73474 
L 58.452557 226.16401 
L 59.347317 222.583731 
L 60.26919 219.765428 
L 61.245291 217.470669 
L 61.977366 216.089444 
L 62.00448 237.839921 
L 62.112936 237.569298 
L 63.38729 234.714399 
L 64.824327 232.036008 
L 66.50539 229.378645 
L 68.484706 226.676381 
L 70.789389 223.914839 
L 73.392325 221.147089 
L 76.212172 218.471835 
L 79.032019 216.075243 
L 79.059133 237.850528 
L 79.167589 237.676407 
L 81.87898 233.543955 
L 84.617486 229.77104 
L 87.410219 226.297249 
L 90.25718 223.106127 
L 93.185483 220.155586 
L 96.195127 217.437713 
L 97.821962 216.089536 
L 97.849076 237.864844 
L 97.957532 237.69084 
L 100.668923 233.559551 
L 103.407429 229.786071 
L 106.200162 226.31115 
L 109.047123 223.118764 
L 111.975426 220.166972 
L 114.985071 217.447917 
L 116.639019 216.077348 
L 116.666133 237.852675 
L 116.774589 237.67872 
L 119.48598 233.548587 
L 122.224486 229.776162 
L 125.017219 226.302212 
L 127.86418 223.110718 
L 130.792483 220.159749 
L 133.802128 217.441454 
L 135.428963 216.093062 
L 135.456077 237.868374 
L 135.564532 237.694356 
L 138.275924 233.562734 
L 141.014429 229.788949 
L 143.807162 226.313747 
L 146.654124 223.121102 
L 149.582426 220.16907 
L 152.592071 217.449795 
L 154.24602 216.079115 
L 154.273134 237.854433 
L 154.381589 237.680471 
L 157.092981 233.550171 
L 159.831486 229.777594 
L 162.62422 226.303503 
L 163.763004 224.986488 
L 164.549308 215.842513 
L 164.576421 237.365516 
L 164.684877 236.20653 
L 165.579636 227.980428 
L 166.501509 221.491781 
L 167.450496 216.325074 
L 167.504724 216.06649 
L 167.531838 237.735608 
L 167.640294 237.145176 
L 168.72485 231.914908 
L 169.917863 227.253328 
L 171.219331 223.053571 
L 172.710596 218.998442 
L 173.930722 216.09237 
L 173.957836 237.828188 
L 174.066292 237.497293 
L 176.072721 231.755993 
L 178.296063 226.06571 
L 180.709201 220.498091 
L 182.824086 216.048087 
L 182.8512 237.79049 
L 182.959656 237.485217 
L 185.508364 230.660168 
L 188.084186 224.39331 
L 190.687122 218.640893 
L 191.934362 216.07483 
L 191.961476 237.817456 
L 192.069931 237.513021 
L 194.645753 230.629753 
L 197.221575 224.370885 
L 199.824511 218.622547 
L 201.071751 216.057785 
L 201.098865 237.800429 
L 201.207321 237.496095 
L 203.783143 230.614821 
L 206.358965 224.357484 
L 208.961901 218.610441 
L 210.209141 216.04624 
L 210.236255 237.788896 
L 210.34471 237.484609 
L 212.920532 230.604392 
L 215.496354 224.348006 
L 218.09929 218.601834 
L 219.319416 216.09251 
L 219.34653 237.83512 
L 219.454986 237.530648 
L 222.030808 230.646257 
L 224.60663 224.386076 
L 227.209566 218.636417 
L 228.456806 216.071048 
L 228.48392 237.813679 
L 228.592375 237.509293 
L 231.168197 230.626838 
L 233.744019 224.368418 
L 236.346955 218.620376 
L 237.594195 216.055729 
L 237.621309 237.798375 
L 237.729765 237.49405 
L 240.305587 230.612978 
L 242.881409 224.355814 
L 245.484344 218.608926 
L 246.731584 216.044794 
L 246.758698 237.787451 
L 246.867154 237.48317 
L 249.442976 230.603084 
L 252.018798 224.346818 
L 254.621734 218.600754 
L 255.84186 216.091478 
L 255.868974 237.834088 
L 255.97743 237.529621 
L 258.553251 230.645323 
L 261.129073 224.385227 
L 263.732009 218.635645 
L 264.979249 216.070311 
L 265.006363 237.812943 
L 265.114819 237.50856 
L 267.690641 230.626172 
L 270.266463 224.367812 
L 272.191551 220.063947 
L 272.191551 220.063947 
" style="fill:none;stroke:#7f8c8d;stroke-linecap:square;stroke-width:1.5;"/>
   </g>
   <g id="line2d_10">
    <path clip-path="url(#p84b2eb8da6)" d="M 1.079513 303.284045 
L 272.218665 303.284045 
" style="fill:none;stroke:#dddddd;stroke-dasharray:6.000000,6.000000;stroke-dashoffset:0.0;"/>
   </g>
   <g id="line2d_11">
    <path clip-path="url(#p84b2eb8da6)" d="M 1.079513 259.689847 
L 272.218665 259.689847 
" style="fill:none;stroke:#dddddd;stroke-dasharray:6.000000,6.000000;stroke-dashoffset:0.0;"/>
   </g>
   <g id="line2d_12">
    <path clip-path="url(#p84b2eb8da6)" d="M 1.079513 216.095649 
L 272.218665 216.095649 
" style="fill:none;stroke:#dddddd;stroke-dasharray:6.000000,6.000000;stroke-dashoffset:0.0;"/>
   </g>
  </g>
 </g>
 <defs>
  <clipPath id="p05fe3fc756">
   <rect height="152.579693337" width="230.46827911" x="41.7503856388" y="15.4101533313"/>
  </clipPath>
  <clipPath id="p84b2eb8da6">
   <rect height="152.579693337" width="230.46827911" x="41.7503856388" y="183.4"/>
  </clipPath>
 </defs>
</svg>
