<?xml version="1.0" encoding="utf-8" standalone="no"?>
<!DOCTYPE svg PUBLIC "-//W3C//DTD SVG 1.1//EN"
  "http://www.w3.org/Graphics/SVG/1.1/DTD/svg11.dtd">
<!-- Created with matplotlib (http://matplotlib.org/) -->
<svg height="352pt" version="1.1" viewBox="0 0 249 352" width="249pt" xmlns="http://www.w3.org/2000/svg" xmlns:xlink="http://www.w3.org/1999/xlink">
 <defs>
  <style type="text/css">
*{stroke-linecap:butt;stroke-linejoin:round;stroke-miterlimit:100000;}
  </style>
 </defs>
 <g id="figure_1">
  <g id="patch_1">
   <path d="M 0 352.8 
L 249.372217 352.8 
L 249.372217 0 
L 0 0 
z
" style="fill:#ffffff;"/>
  </g>
  <g id="axes_1">
   <g id="patch_2">
    <path d="M 43.655567 141.715334 
L 180 141.715334 
L 180 7.2 
L 43.655567 7.2 
z
" style="fill:#ffffff;"/>
   </g>
   <g id="line2d_1">
    <path clip-path="url(#pa4c397da6b)" d="M 111.827783 74.457667 
L 116.175846 84.813998 
L 124.205671 76.877249 
L 145.164736 85.447588 
L 156.493435 85.436598 
L 166.945922 81.135886 
L 166.72578 81.109213 
L 163.063779 80.665519 
L 167.360606 70.30298 
L 167.249596 70.311286 
L 159.478501 70.89268 
L 167.465023 62.969853 
L 167.298279 63.004282 
L 160.289964 64.451338 
L 164.589565 54.105014 
L 164.484094 54.145699 
L 157.69346 56.76516 
L 157.647594 45.573241 
L 157.556 45.630981 
L 151.341288 49.548684 
L 155.649837 39.217263 
L 155.474812 39.358013 
L 149.884084 43.853912 
L 149.846028 32.674904 
L 149.770029 32.758428 
L 144.777894 38.244878 
L 140.396881 27.924761 
L 140.339771 28.01778 
L 136.489499 34.289044 
L 136.464837 23.119601 
L 136.366437 23.324646 
L 133.223292 29.874251 
L 125.167724 21.992442 
L 125.141057 22.09732 
L 123.517348 28.483276 
L 119.157595 18.17292 
L 119.135628 18.341606 
L 118.092111 26.354644 
L 110.051674 18.476355 
L 110.055225 18.588262 
L 110.299187 26.277721 
L 105.952652 15.969571 
L 105.987815 16.319623 
L 106.54911 21.907425 
L 96.057236 17.670242 
L 96.088761 17.78376 
L 98.309176 25.779148 
L 86.960659 25.827826 
L 87.010368 25.925037 
L 89.883995 31.544667 
L 81.871766 23.661188 
L 82.08083 24.015698 
L 85.76103 30.256221 
L 74.425061 30.300423 
L 74.499829 30.388693 
L 79.34621 36.110278 
L 68.881539 31.858893 
L 69.053067 32.029032 
L 73.549158 36.488747 
L 63.090284 40.816448 
L 63.18771 40.883697 
L 70.21657 45.73539 
L 59.761028 50.053845 
L 59.86511 50.102628 
L 66.70194 53.307068 
L 55.38503 53.328219 
L 55.66668 53.433655 
L 61.46916 55.605824 
L 53.485346 63.551068 
L 53.601973 63.57287 
L 62.016044 65.145806 
L 54.031683 73.08151 
L 54.147217 73.084261 
L 61.786454 73.266155 
L 51.339342 77.557079 
L 51.64118 77.541613 
L 57.69734 77.231297 
L 53.403407 87.584854 
L 53.520198 87.558613 
L 61.896154 85.676646 
L 57.598023 96.021757 
L 57.706428 95.978651 
L 64.874281 93.128403 
L 64.921235 104.319344 
L 65.015001 104.25965 
L 70.394055 100.835234 
L 62.401316 108.735248 
L 62.893362 108.394011 
L 68.298995 104.645169 
L 72.690587 114.971312 
L 72.768822 114.890325 
L 77.669494 109.817297 
L 73.355589 120.138268 
L 73.585846 119.864869 
L 78.047723 114.566985 
L 86.115676 122.453268 
L 86.167074 122.357325 
L 88.8183 117.408405 
L 88.841309 128.575065 
L 88.933117 128.35892 
L 92.103917 120.89386 
L 96.471704 131.203754 
L 96.517726 131.033686 
L 98.598446 123.344698 
L 106.645848 131.222203 
L 106.656206 131.108731 
L 107.345619 123.556694 
L 111.698164 133.863926 
L 111.698681 133.626657 
L 111.712828 127.143129 
L 122.210096 131.380176 
L 122.189341 131.266387 
L 120.736472 123.300824 
L 128.761736 131.178373 
L 128.710985 131.008381 
L 126.681574 124.210818 
L 138.028756 124.161064 
L 137.976381 124.061707 
L 134.672686 117.794579 
L 145.146994 122.040975 
L 145.047136 121.898367 
L 140.303611 115.124119 
L 151.637171 115.083452 
L 151.557592 115.002241 
L 146.330263 109.667712 
L 156.792913 113.922235 
L 156.568537 113.725306 
L 151.785758 109.527602 
L 162.242952 105.2028 
L 162.142172 105.14134 
L 154.914448 100.733593 
L 165.368514 96.417584 
L 165.261486 96.373686 
L 158.184706 93.47112 
L 169.500385 93.452107 
L 169.212599 93.357324 
L 163.490026 91.472598 
L 171.472536 83.529191 
L 171.353306 83.511057 
L 162.904494 82.226056 
L 167.20148 71.861957 
L 167.090788 71.867146 
L 160.887789 72.157919 
L 171.335881 67.870486 
L 170.979724 67.909911 
L 163.351404 68.754319 
L 171.334053 60.83363 
L 171.155713 60.874461 
L 164.443777 62.411168 
L 164.391161 51.213603 
L 164.286087 51.260068 
L 157.429647 54.292056 
L 161.732108 43.955891 
L 161.582545 44.047305 
L 154.477862 48.389723 
L 158.783275 38.059461 
L 158.642549 38.168546 
L 153.139086 42.434633 
L 148.749711 32.110326 
L 148.675904 32.194978 
L 144.08488 37.46062 
L 144.052623 26.288006 
L 143.956045 26.432371 
L 139.340781 33.331264 
L 139.313268 22.162779 
L 139.203491 22.371645 
L 136.009431 28.44878 
L 127.951077 20.568396 
L 127.918846 20.676121 
L 125.885851 27.471048 
L 121.52373 17.161705 
L 121.494672 17.333421 
L 120.122593 25.441406 
L 112.080125 17.56403 
L 112.07962 17.67776 
L 112.046049 25.246973 
L 107.697767 14.939853 
L 107.718376 15.236848 
L 108.139265 21.302298 
L 97.645801 17.065721 
L 97.674151 17.180447 
L 99.707338 25.408391 
L 89.222306 21.167708 
L 89.267494 21.274234 
L 92.255387 28.317868 
L 80.912924 28.364008 
L 80.974723 28.456149 
L 84.492579 33.701228 
L 76.485741 25.815592 
L 76.872566 26.347988 
L 80.640491 31.533871 
L 70.174526 35.866527 
L 70.257791 35.943671 
L 75.582472 40.876911 
L 65.121565 36.62076 
L 65.401102 36.847214 
L 70.612268 41.068802 
L 62.61931 49.028583 
L 62.717678 49.079415 
L 67.96754 51.792346 
L 56.649365 51.815012 
L 56.869747 51.905446 
L 64.386331 54.989903 
L 53.93662 59.299103 
L 54.11012 59.344533 
L 61.854366 61.372332 
L 53.870167 69.31181 
L 53.986024 69.322096 
L 61.847033 70.020048 
L 51.399861 74.314219 
L 51.64121 74.314791 
L 57.913564 74.329681 
L 53.619415 84.68614 
L 53.735774 84.665693 
L 62.030966 83.208048 
L 54.04659 91.125689 
L 54.21976 91.075735 
L 60.890237 89.151517 
L 60.941174 100.346434 
L 61.042897 100.294682 
L 67.592189 96.962703 
L 63.288362 107.296529 
L 63.433835 107.198111 
L 65.702984 105.662941 
L 65.702984 105.662941 
" style="fill:none;stroke:#2980b9;stroke-linecap:square;"/>
   </g>
   <g id="line2d_2">
    <path clip-path="url(#pa4c397da6b)" d="M 111.827783 74.457667 
L 168.637935 74.401619 
L 168.637935 74.401619 
L 168.637935 74.401619 
L 168.521656 70.87304 
L 168.180434 67.358683 
L 167.615621 63.872493 
L 166.82946 60.428302 
L 165.82507 57.039775 
L 164.606435 53.720356 
L 163.178391 50.483217 
L 161.546603 47.341201 
L 159.717547 44.306774 
L 157.69848 41.391977 
L 155.497411 38.608374 
L 153.123076 35.96701 
L 150.584893 33.478365 
L 147.892935 31.152313 
L 145.057881 28.998083 
L 142.090981 27.024222 
L 139.004005 25.238563 
L 135.809203 23.648189 
L 132.51925 22.259412 
L 129.1472 21.077741 
L 125.706432 20.107865 
L 122.210598 19.353631 
L 118.673567 18.818034 
L 115.109375 18.503197 
L 111.532163 18.41037 
L 107.956124 18.539921 
L 104.395446 18.891336 
L 100.864257 19.463222 
L 97.376568 20.253308 
L 93.946217 21.258459 
L 90.586815 22.474689 
L 87.31169 23.897171 
L 84.133837 25.520261 
L 81.065865 27.33752 
L 78.119947 29.341736 
L 75.307771 31.524958 
L 72.640495 33.878524 
L 70.128702 36.393096 
L 67.782358 39.058695 
L 65.610772 41.864747 
L 63.622561 44.800117 
L 61.825613 47.853159 
L 60.227059 51.01176 
L 58.833239 54.263386 
L 57.649686 57.595137 
L 56.681094 60.993794 
L 55.931307 64.445871 
L 55.4033 67.937671 
L 55.099168 71.455341 
L 55.020117 74.984923 
L 55.166461 78.512413 
L 55.537619 82.023815 
L 56.132119 85.505197 
L 56.947603 88.942746 
L 57.980833 92.322823 
L 59.227712 95.632016 
L 60.683291 98.857196 
L 62.341795 101.985566 
L 64.196645 105.004715 
L 66.24048 107.902662 
L 68.465191 110.667909 
L 70.861951 113.289486 
L 73.421251 115.756991 
L 76.132936 118.060632 
L 78.986247 120.191271 
L 81.969863 122.140453 
L 85.071946 123.900445 
L 88.280188 125.464263 
L 91.581859 126.825703 
L 94.963859 127.979363 
L 98.412771 128.920665 
L 101.914909 129.645875 
L 105.456378 130.152116 
L 109.023127 130.437379 
L 112.601004 130.500532 
L 116.175813 130.341324 
L 119.73337 129.960387 
L 123.259561 129.359233 
L 126.740394 128.540246 
L 130.162058 127.506677 
L 133.510978 126.262626 
L 136.773865 124.813029 
L 139.937774 123.163637 
L 142.990152 121.320996 
L 145.918887 119.292416 
L 148.712359 117.085945 
L 151.359485 114.710338 
L 153.849761 112.175022 
L 156.173307 109.490055 
L 158.320904 106.66609 
L 160.284031 103.714333 
L 162.054898 100.646494 
L 163.62648 97.474746 
L 164.992541 94.211673 
L 166.147661 90.870223 
L 167.087257 87.463653 
L 167.8076 84.005479 
L 168.305833 80.509422 
L 168.579979 76.989354 
L 168.628949 73.459241 
L 168.452551 69.93309 
L 168.051483 66.42489 
L 167.427337 62.948562 
L 166.582589 59.517899 
L 165.520591 56.146512 
L 164.245557 52.847778 
L 162.762546 49.634785 
L 161.077442 46.520281 
L 159.19693 43.516625 
L 157.128472 40.635733 
L 154.880275 37.889035 
L 152.46126 35.287431 
L 149.881023 32.841242 
L 147.149804 30.560174 
L 144.278437 28.453277 
L 141.278316 26.528911 
L 138.161345 24.794712 
L 134.939891 23.25756 
L 131.626735 21.923554 
L 128.235023 20.797986 
L 124.778212 19.885324 
L 121.270018 19.189187 
L 117.72436 18.712339 
L 114.155306 18.456671 
L 110.577017 18.423197 
L 107.003691 18.61205 
L 103.449506 19.022482 
L 99.928562 19.652863 
L 96.454832 20.500692 
L 93.042096 21.562605 
L 89.703896 22.83439 
L 86.453477 24.311 
L 83.303735 25.986576 
L 80.267167 27.85447 
L 77.355823 29.907271 
L 74.581252 32.136834 
L 71.954463 34.534313 
L 69.48588 37.090195 
L 67.185296 39.79434 
L 65.06184 42.636018 
L 63.123936 45.603954 
L 61.379274 48.686373 
L 59.834775 51.871044 
L 58.496569 55.145332 
L 57.369964 58.496246 
L 56.459431 61.910489 
L 55.768583 65.374516 
L 55.300159 68.874581 
L 55.05602 72.396799 
L 55.037133 75.927193 
L 55.243574 79.451757 
L 55.674523 82.956506 
L 56.328271 86.427534 
L 57.202223 89.851069 
L 58.292913 93.213529 
L 59.596012 96.50157 
L 61.106351 99.702149 
L 62.817936 102.802565 
L 64.129096 104.901949 
L 64.129096 104.901949 
" style="fill:none;stroke:#e74c3c;stroke-linecap:square;"/>
   </g>
   <g id="patch_3">
    <path d="M 180 141.715334 
L 180 7.2 
" style="fill:none;stroke:#000000;stroke-linecap:square;stroke-linejoin:miter;"/>
   </g>
   <g id="patch_4">
    <path d="M 43.655567 141.715334 
L 43.655567 7.2 
" style="fill:none;stroke:#000000;stroke-linecap:square;stroke-linejoin:miter;"/>
   </g>
   <g id="patch_5">
    <path d="M 43.655567 141.715334 
L 180 141.715334 
" style="fill:none;stroke:#000000;stroke-linecap:square;stroke-linejoin:miter;"/>
   </g>
   <g id="patch_6">
    <path d="M 43.655567 7.2 
L 180 7.2 
" style="fill:none;stroke:#000000;stroke-linecap:square;stroke-linejoin:miter;"/>
   </g>
   <g id="matplotlib.axis_1">
    <g id="xtick_1">
     <g id="line2d_3">
      <defs>
       <path d="M 0 0 
L 0 -4 
" id="mfd92f07d24" style="stroke:#000000;stroke-width:0.5;"/>
      </defs>
      <g>
       <use style="stroke:#000000;stroke-width:0.5;" x="55.0176028178" xlink:href="#mfd92f07d24" y="141.715334464"/>
      </g>
     </g>
     <g id="line2d_4">
      <defs>
       <path d="M 0 0 
L 0 4 
" id="m4f9b61a139" style="stroke:#000000;stroke-width:0.5;"/>
      </defs>
      <g>
       <use style="stroke:#000000;stroke-width:0.5;" x="55.0176028178" xlink:href="#m4f9b61a139" y="7.2"/>
      </g>
     </g>
     <g id="text_1">
      <!-- $-5.0$ -->
      <defs>
       <path d="M 18.40625 4.796875 
C 18.40625 7.6875 16 9.671875 13.59375 9.671875 
C 10.703125 9.671875 8.703125 7.28125 8.703125 4.890625 
C 8.703125 2 11.09375 0 13.5 0 
C 16.40625 0 18.40625 2.390625 18.40625 4.796875 
" id="CMMI12-58"/>
       <path d="M 65.90625 23 
C 67.59375 23 69.40625 23 69.40625 25 
C 69.40625 27 67.59375 27 65.90625 27 
L 11.796875 27 
C 10.09375 27 8.296875 27 8.296875 25 
C 8.296875 23 10.09375 23 11.796875 23 
z
" id="CMSY10-0"/>
       <path d="M 11.40625 57.6875 
C 12.40625 57.28125 16.5 56 20.703125 56 
C 30 56 35.09375 61.015625 38 63.921875 
C 38 64.734375 38 65.25 37.40625 65.25 
C 37.296875 65.25 37.09375 65.25 36.296875 64.828125 
C 32.796875 63.3125 28.703125 62.078125 23.703125 62.078125 
C 20.703125 62.078125 16.203125 62.5 11.296875 64.734375 
C 10.203125 65.25 10 65.25 9.90625 65.25 
C 9.40625 65.25 9.296875 65.140625 9.296875 63.15625 
L 9.296875 34.28125 
C 9.296875 32.5 9.296875 32 10.296875 32 
C 10.796875 32 11 32.203125 11.5 32.90625 
C 14.703125 37.484375 19.09375 39.40625 24.09375 39.40625 
C 27.59375 39.40625 35.09375 37.21875 35.09375 20.140625 
C 35.09375 16.953125 35.09375 11.171875 32.09375 6.578125 
C 29.59375 2.484375 25.703125 0.390625 21.40625 0.390625 
C 14.796875 0.390625 8.09375 5 6.296875 12.71875 
C 6.703125 12.609375 7.5 12.421875 7.90625 12.421875 
C 9.203125 12.421875 11.703125 13.125 11.703125 16.21875 
C 11.703125 18.90625 9.796875 20 7.90625 20 
C 5.59375 20 4.09375 18.59375 4.09375 15.796875 
C 4.09375 7.09375 11 -2 21.59375 -2 
C 31.90625 -2 41.703125 6.875 41.703125 19.75 
C 41.703125 31.71875 33.90625 41 24.203125 41 
C 19.09375 41 14.796875 39.09375 11.40625 35.453125 
z
" id="CMR17-53"/>
       <path d="M 42 31.640625 
C 42 37.75 41.90625 48.125 37.703125 56.109375 
C 34 63.109375 28.09375 65.59375 22.90625 65.59375 
C 18.09375 65.59375 12 63.40625 8.203125 56.203125 
C 4.203125 48.71875 3.796875 39.4375 3.796875 31.640625 
C 3.796875 25.953125 3.90625 17.28125 7 9.671875 
C 11.296875 -0.609375 19 -2 22.90625 -2 
C 27.5 -2 34.5 -0.109375 38.59375 9.375 
C 41.59375 16.28125 42 24.359375 42 31.640625 
M 22.90625 -0.40625 
C 16.5 -0.40625 12.703125 5.078125 11.296875 12.6875 
C 10.203125 18.5625 10.203125 27.15625 10.203125 32.75 
C 10.203125 40.4375 10.203125 46.828125 11.5 52.921875 
C 13.40625 61.390625 19 64 22.90625 64 
C 27 64 32.296875 61.296875 34.203125 53.125 
C 35.5 47.4375 35.59375 40.734375 35.59375 32.75 
C 35.59375 26.25 35.59375 18.265625 34.40625 12.375 
C 32.296875 1.484375 26.40625 -0.40625 22.90625 -0.40625 
" id="CMR17-48"/>
      </defs>
      <g transform="translate(44.7781914673 152.813654727)scale(0.1 -0.1)">
       <use transform="scale(0.9962640099626402)" xlink:href="#CMSY10-0"/>
       <use transform="translate(77.4874676506071 0.0)scale(0.9962640099626402)" xlink:href="#CMR17-53"/>
       <use transform="translate(123.17794476766814 0.0)scale(0.9962640099626402)" xlink:href="#CMMI12-58"/>
       <use transform="translate(150.27512185748756 0.0)scale(0.9962640099626402)" xlink:href="#CMR17-48"/>
      </g>
     </g>
    </g>
    <g id="xtick_2">
     <g id="line2d_5">
      <g>
       <use style="stroke:#000000;stroke-width:0.5;" x="83.4226930865" xlink:href="#mfd92f07d24" y="141.715334464"/>
      </g>
     </g>
     <g id="line2d_6">
      <g>
       <use style="stroke:#000000;stroke-width:0.5;" x="83.4226930865" xlink:href="#m4f9b61a139" y="7.2"/>
      </g>
     </g>
     <g id="text_2">
      <!-- $-2.5$ -->
      <defs>
       <path d="M 41.703125 15.453125 
L 39.90625 15.453125 
C 38.90625 8.375 38.09375 7.171875 37.703125 6.5625 
C 37.203125 5.765625 30 5.765625 28.59375 5.765625 
L 9.40625 5.765625 
C 13 9.671875 20 16.75 28.5 24.953125 
C 34.59375 30.734375 41.703125 37.53125 41.703125 47.421875 
C 41.703125 59.21875 32.296875 66 21.796875 66 
C 10.796875 66 4.09375 56.3125 4.09375 47.34375 
C 4.09375 43.4375 7 42.9375 8.203125 42.9375 
C 9.203125 42.9375 12.203125 43.546875 12.203125 47.03125 
C 12.203125 50.109375 9.59375 51 8.203125 51 
C 7.59375 51 7 50.90625 6.59375 50.703125 
C 8.5 59.21875 14.296875 63.40625 20.40625 63.40625 
C 29.09375 63.40625 34.796875 56.515625 34.796875 47.421875 
C 34.796875 38.734375 29.703125 31.25 24 24.75 
L 4.09375 2.28125 
L 4.09375 0 
L 39.296875 0 
z
" id="CMR17-50"/>
      </defs>
      <g transform="translate(73.183281736 152.813654727)scale(0.1 -0.1)">
       <use transform="scale(0.9962640099626402)" xlink:href="#CMSY10-0"/>
       <use transform="translate(77.4874676506071 0.0)scale(0.9962640099626402)" xlink:href="#CMR17-50"/>
       <use transform="translate(123.17794476766814 0.0)scale(0.9962640099626402)" xlink:href="#CMMI12-58"/>
       <use transform="translate(150.27512185748756 0.0)scale(0.9962640099626402)" xlink:href="#CMR17-53"/>
      </g>
     </g>
    </g>
    <g id="xtick_3">
     <g id="line2d_7">
      <g>
       <use style="stroke:#000000;stroke-width:0.5;" x="111.827783355" xlink:href="#mfd92f07d24" y="141.715334464"/>
      </g>
     </g>
     <g id="line2d_8">
      <g>
       <use style="stroke:#000000;stroke-width:0.5;" x="111.827783355" xlink:href="#m4f9b61a139" y="7.2"/>
      </g>
     </g>
     <g id="text_3">
      <!-- $0.0$ -->
      <g transform="translate(105.462743867 152.813654727)scale(0.1 -0.1)">
       <use transform="scale(0.9962640099626402)" xlink:href="#CMR17-48"/>
       <use transform="translate(45.69047711706103 0.0)scale(0.9962640099626402)" xlink:href="#CMMI12-58"/>
       <use transform="translate(72.78765420688046 0.0)scale(0.9962640099626402)" xlink:href="#CMR17-48"/>
      </g>
     </g>
    </g>
    <g id="xtick_4">
     <g id="line2d_9">
      <g>
       <use style="stroke:#000000;stroke-width:0.5;" x="140.232873624" xlink:href="#mfd92f07d24" y="141.715334464"/>
      </g>
     </g>
     <g id="line2d_10">
      <g>
       <use style="stroke:#000000;stroke-width:0.5;" x="140.232873624" xlink:href="#m4f9b61a139" y="7.2"/>
      </g>
     </g>
     <g id="text_4">
      <!-- $2.5$ -->
      <g transform="translate(133.867834136 152.813654727)scale(0.1 -0.1)">
       <use transform="scale(0.9962640099626402)" xlink:href="#CMR17-50"/>
       <use transform="translate(45.69047711706103 0.0)scale(0.9962640099626402)" xlink:href="#CMMI12-58"/>
       <use transform="translate(72.78765420688046 0.0)scale(0.9962640099626402)" xlink:href="#CMR17-53"/>
      </g>
     </g>
    </g>
    <g id="xtick_5">
     <g id="line2d_11">
      <g>
       <use style="stroke:#000000;stroke-width:0.5;" x="168.637963893" xlink:href="#mfd92f07d24" y="141.715334464"/>
      </g>
     </g>
     <g id="line2d_12">
      <g>
       <use style="stroke:#000000;stroke-width:0.5;" x="168.637963893" xlink:href="#m4f9b61a139" y="7.2"/>
      </g>
     </g>
     <g id="text_5">
      <!-- $5.0$ -->
      <g transform="translate(162.272924404 152.813654727)scale(0.1 -0.1)">
       <use transform="scale(0.9962640099626402)" xlink:href="#CMR17-53"/>
       <use transform="translate(45.69047711706103 0.0)scale(0.9962640099626402)" xlink:href="#CMMI12-58"/>
       <use transform="translate(72.78765420688046 0.0)scale(0.9962640099626402)" xlink:href="#CMR17-48"/>
      </g>
     </g>
    </g>
    <g id="text_6">
     <!-- $x_1$ -->
     <defs>
      <path d="M 26.59375 63.3125 
C 26.59375 65.40625 26.5 65.5 25.09375 65.5 
C 21.203125 61.1875 15.296875 59.796875 9.703125 59.796875 
C 9.40625 59.796875 8.90625 59.796875 8.796875 59.609375 
C 8.703125 59.390625 8.703125 59.171875 8.703125 57 
C 11.796875 57 17 57.59375 21 59.984375 
L 21 7.203125 
C 21 3.6875 20.796875 2.5 12.203125 2.5 
L 9.203125 2.5 
L 9.203125 0 
C 14 0 19 0 23.796875 0 
C 28.59375 0 33.59375 0 38.40625 0 
L 38.40625 2.5 
L 35.40625 2.5 
C 26.796875 2.5 26.59375 3.59375 26.59375 7.15625 
z
" id="CMR17-49"/>
      <path d="M 47.40625 40.71875 
C 44.203125 40.109375 43 37.71875 43 35.828125 
C 43 33.421875 44.90625 32.625 46.296875 32.625 
C 49.296875 32.625 51.40625 35.21875 51.40625 37.921875 
C 51.40625 42.109375 46.59375 44 42.40625 44 
C 36.296875 44 32.90625 38.015625 32 36.125 
C 29.703125 44 23.5 44 21.703125 44 
C 11.5 44 6.09375 30.9375 6.09375 28.734375 
C 6.09375 28.34375 6.5 27.84375 7.203125 27.84375 
C 8 27.84375 8.203125 28.4375 8.40625 28.84375 
C 11.796875 39.921875 18.5 42.015625 21.40625 42.015625 
C 25.90625 42.015625 26.796875 37.8125 26.796875 35.421875 
C 26.796875 33.234375 26.203125 30.9375 25 26.140625 
L 21.59375 12.46875 
C 20.09375 6.484375 17.203125 1 11.90625 1 
C 11.40625 1 8.90625 1 6.796875 2.296875 
C 10.40625 3 11.203125 5.984375 11.203125 7.1875 
C 11.203125 9.1875 9.703125 10.375 7.796875 10.375 
C 5.40625 10.375 2.796875 8.28125 2.796875 5.09375 
C 2.796875 0.890625 7.5 -1 11.796875 -1 
C 16.59375 -1 20 2.796875 22.09375 6.890625 
C 23.703125 1 28.703125 -1 32.40625 -1 
C 42.59375 -1 48 12.078125 48 14.265625 
C 48 14.765625 47.59375 15.171875 47 15.171875 
C 46.09375 15.171875 46 14.671875 45.703125 13.875 
C 43 5.09375 37.203125 1 32.703125 1 
C 29.203125 1 27.296875 3.59375 27.296875 7.6875 
C 27.296875 9.875 27.703125 11.46875 29.296875 18.0625 
L 32.796875 31.625 
C 34.296875 37.625 37.703125 42.015625 42.296875 42.015625 
C 42.5 42.015625 45.296875 42.015625 47.40625 40.71875 
" id="CMMI12-120"/>
     </defs>
     <g transform="translate(106.384648358 168.453625443)scale(0.12 -0.12)">
      <use transform="translate(0.0 14.943914544092467)scale(0.9962640099626402)" xlink:href="#CMMI12-120"/>
      <use transform="translate(55.43405953261208 0.0)scale(0.6973817666173724)" xlink:href="#CMR17-49"/>
     </g>
    </g>
   </g>
   <g id="matplotlib.axis_2">
    <g id="ytick_1">
     <g id="line2d_13">
      <defs>
       <path d="M 0 0 
L 4 0 
" id="m457f9d7e1a" style="stroke:#000000;stroke-width:0.5;"/>
      </defs>
      <g>
       <use style="stroke:#000000;stroke-width:0.5;" x="43.6555667103" xlink:href="#m457f9d7e1a" y="130.505723258"/>
      </g>
     </g>
     <g id="line2d_14">
      <defs>
       <path d="M 0 0 
L -4 0 
" id="m6a183555a2" style="stroke:#000000;stroke-width:0.5;"/>
      </defs>
      <g>
       <use style="stroke:#000000;stroke-width:0.5;" x="180.0" xlink:href="#m6a183555a2" y="130.505723258"/>
      </g>
     </g>
     <g id="text_7">
      <!-- $-5.0$ -->
      <g transform="translate(19.1767440093 132.993890191)scale(0.1 -0.1)">
       <use transform="scale(0.9962640099626402)" xlink:href="#CMSY10-0"/>
       <use transform="translate(77.4874676506071 0.0)scale(0.9962640099626402)" xlink:href="#CMR17-53"/>
       <use transform="translate(123.17794476766814 0.0)scale(0.9962640099626402)" xlink:href="#CMMI12-58"/>
       <use transform="translate(150.27512185748756 0.0)scale(0.9962640099626402)" xlink:href="#CMR17-48"/>
      </g>
     </g>
    </g>
    <g id="ytick_2">
     <g id="line2d_15">
      <g>
       <use style="stroke:#000000;stroke-width:0.5;" x="43.6555667103" xlink:href="#m457f9d7e1a" y="102.481695245"/>
      </g>
     </g>
     <g id="line2d_16">
      <g>
       <use style="stroke:#000000;stroke-width:0.5;" x="180.0" xlink:href="#m6a183555a2" y="102.481695245"/>
      </g>
     </g>
     <g id="text_8">
      <!-- $-2.5$ -->
      <g transform="translate(19.1767440093 104.969862178)scale(0.1 -0.1)">
       <use transform="scale(0.9962640099626402)" xlink:href="#CMSY10-0"/>
       <use transform="translate(77.4874676506071 0.0)scale(0.9962640099626402)" xlink:href="#CMR17-50"/>
       <use transform="translate(123.17794476766814 0.0)scale(0.9962640099626402)" xlink:href="#CMMI12-58"/>
       <use transform="translate(150.27512185748756 0.0)scale(0.9962640099626402)" xlink:href="#CMR17-53"/>
      </g>
     </g>
    </g>
    <g id="ytick_3">
     <g id="line2d_17">
      <g>
       <use style="stroke:#000000;stroke-width:0.5;" x="43.6555667103" xlink:href="#m457f9d7e1a" y="74.4576672318"/>
      </g>
     </g>
     <g id="line2d_18">
      <g>
       <use style="stroke:#000000;stroke-width:0.5;" x="180.0" xlink:href="#m6a183555a2" y="74.4576672318"/>
      </g>
     </g>
     <g id="text_9">
      <!-- $0.0$ -->
      <g transform="translate(26.925487734 76.9458341644)scale(0.1 -0.1)">
       <use transform="scale(0.9962640099626402)" xlink:href="#CMR17-48"/>
       <use transform="translate(45.69047711706103 0.0)scale(0.9962640099626402)" xlink:href="#CMMI12-58"/>
       <use transform="translate(72.78765420688046 0.0)scale(0.9962640099626402)" xlink:href="#CMR17-48"/>
      </g>
     </g>
    </g>
    <g id="ytick_4">
     <g id="line2d_19">
      <g>
       <use style="stroke:#000000;stroke-width:0.5;" x="43.6555667103" xlink:href="#m457f9d7e1a" y="46.4336392185"/>
      </g>
     </g>
     <g id="line2d_20">
      <g>
       <use style="stroke:#000000;stroke-width:0.5;" x="180.0" xlink:href="#m6a183555a2" y="46.4336392185"/>
      </g>
     </g>
     <g id="text_10">
      <!-- $2.5$ -->
      <g transform="translate(26.925487734 48.9218061511)scale(0.1 -0.1)">
       <use transform="scale(0.9962640099626402)" xlink:href="#CMR17-50"/>
       <use transform="translate(45.69047711706103 0.0)scale(0.9962640099626402)" xlink:href="#CMMI12-58"/>
       <use transform="translate(72.78765420688046 0.0)scale(0.9962640099626402)" xlink:href="#CMR17-53"/>
      </g>
     </g>
    </g>
    <g id="ytick_5">
     <g id="line2d_21">
      <g>
       <use style="stroke:#000000;stroke-width:0.5;" x="43.6555667103" xlink:href="#m457f9d7e1a" y="18.4096112053"/>
      </g>
     </g>
     <g id="line2d_22">
      <g>
       <use style="stroke:#000000;stroke-width:0.5;" x="180.0" xlink:href="#m6a183555a2" y="18.4096112053"/>
      </g>
     </g>
     <g id="text_11">
      <!-- $5.0$ -->
      <g transform="translate(26.925487734 20.8977781379)scale(0.1 -0.1)">
       <use transform="scale(0.9962640099626402)" xlink:href="#CMR17-53"/>
       <use transform="translate(45.69047711706103 0.0)scale(0.9962640099626402)" xlink:href="#CMMI12-58"/>
       <use transform="translate(72.78765420688046 0.0)scale(0.9962640099626402)" xlink:href="#CMR17-48"/>
      </g>
     </g>
    </g>
    <g id="text_12">
     <!-- $x_2$ -->
     <g transform="translate(8.73360901259 71.9112926744)scale(0.12 -0.12)">
      <use transform="translate(0.0 14.943914544092467)scale(0.9962640099626402)" xlink:href="#CMMI12-120"/>
      <use transform="translate(55.43405953261208 0.0)scale(0.6973817666173724)" xlink:href="#CMR17-50"/>
     </g>
    </g>
   </g>
   <g id="legend_1">
    <g id="line2d_23">
     <path d="M 186.755225 22.766376 
L 203.555225 22.766376 
" style="fill:none;stroke:#2980b9;stroke-linecap:square;"/>
    </g>
    <g id="line2d_24"/>
    <g id="text_13">
     <!-- $\mathbf{y}(t)$ -->
     <defs>
      <path d="M 49.5 37.828125 
C 50.09375 39.203125 50.5 40 56.90625 40 
L 56.90625 44.171875 
C 53.5 44.171875 53.09375 44.171875 49 44.171875 
C 46.296875 44.171875 46.09375 44.171875 40.40625 44.171875 
L 40.40625 40 
C 40.5 40 45.203125 40 45.203125 38.703125 
C 45.203125 38.40625 44.90625 37.828125 44.796875 37.53125 
L 33.09375 12.578125 
L 20.296875 40 
L 25.796875 40 
L 25.796875 44.265625 
C 23.40625 44.171875 16.59375 44.171875 13.796875 44.171875 
C 10.90625 44.171875 5 44.171875 2.40625 44.265625 
L 2.40625 40 
L 8.796875 40 
L 27.296875 0.3125 
C 26.796875 -0.875 25.40625 -3.75 24.90625 -4.9375 
C 22.796875 -9.390625 19.59375 -16.21875 12.59375 -16.21875 
C 12.203125 -16.21875 11 -16.21875 9.90625 -15.625 
C 10.09375 -15.515625 13.09375 -14.328125 13.09375 -10.5625 
C 13.09375 -7.3125 10.703125 -5.234375 7.703125 -5.234375 
C 4.59375 -5.234375 2.203125 -7.328125 2.203125 -10.6875 
C 2.203125 -15.34375 6.59375 -19.5 12.59375 -19.5 
C 20.796875 -19.5 26.203125 -12.171875 28.203125 -7.8125 
z
" id="CMBX12-121"/>
      <path d="M 20.09375 40.09375 
L 29.296875 40.09375 
C 31.203125 40.09375 32.203125 40.09375 32.203125 41.890625 
C 32.203125 43 31.59375 43 29.59375 43 
L 20.796875 43 
L 24.5 57.6875 
C 24.90625 59.078125 24.90625 59.28125 24.90625 60 
C 24.90625 61.609375 23.59375 62.5 22.296875 62.5 
C 21.5 62.5 19.203125 62.203125 18.40625 58.984375 
L 14.5 43 
L 5.09375 43 
C 3.09375 43 2.203125 43 2.203125 41.09375 
C 2.203125 40.09375 2.90625 40.09375 4.796875 40.09375 
L 13.703125 40.09375 
L 7.09375 13.765625 
C 6.296875 10.28125 6 9.28125 6 7.984375 
C 6 3.296875 9.296875 -1 14.90625 -1 
C 25 -1 30.40625 13.578125 30.40625 14.265625 
C 30.40625 14.875 30 15.171875 29.40625 15.171875 
C 29.203125 15.171875 28.796875 15.171875 28.59375 14.765625 
C 28.5 14.671875 28.40625 14.5625 27.703125 12.96875 
C 25.59375 7.984375 21 1 15.203125 1 
C 12.203125 1 12 3.5 12 5.6875 
C 12 5.78125 12 7.6875 12.296875 8.875 
z
" id="CMMI12-116"/>
      <path d="M 30.59375 -24.40625 
C 30.59375 -24.3125 30.59375 -24.109375 30.296875 -23.8125 
C 25.703125 -19.140625 13.40625 -6.390625 13.40625 24.671875 
C 13.40625 55.75 25.5 68.390625 30.40625 73.359375 
C 30.40625 73.46875 30.59375 73.671875 30.59375 73.953125 
C 30.59375 74.25 30.296875 74.453125 29.90625 74.453125 
C 28.796875 74.453125 20.296875 67.078125 15.40625 56.125 
C 10.40625 45.078125 9 34.328125 9 24.78125 
C 9 17.609375 9.703125 5.46875 15.703125 -7.375 
C 20.5 -17.734375 28.703125 -25 29.90625 -25 
C 30.40625 -25 30.59375 -24.796875 30.59375 -24.40625 
" id="CMR17-40"/>
      <path d="M 26.296875 24.671875 
C 26.296875 31.84375 25.59375 43.984375 19.59375 56.828125 
C 14.796875 67.1875 6.59375 74.453125 5.40625 74.453125 
C 5.09375 74.453125 4.703125 74.34375 4.703125 73.859375 
C 4.703125 73.671875 4.796875 73.5625 4.90625 73.359375 
C 9.703125 68.390625 21.90625 55.75 21.90625 24.796875 
C 21.90625 -6.28125 9.796875 -18.921875 4.90625 -23.90625 
C 4.796875 -24.09375 4.703125 -24.203125 4.703125 -24.390625 
C 4.703125 -24.890625 5.09375 -25 5.40625 -25 
C 6.5 -25 15 -17.625 19.90625 -6.671875 
C 24.90625 4.375 26.296875 15.125 26.296875 24.671875 
" id="CMR17-41"/>
     </defs>
     <g transform="translate(216.755224944 26.9663760897)scale(0.12 -0.12)">
      <use transform="scale(0.9962640099626402)" xlink:href="#CMBX12-121"/>
      <use transform="translate(60.709838107098385 0.0)scale(0.9962640099626402)" xlink:href="#CMR17-40"/>
      <use transform="translate(95.99060590656134 0.0)scale(0.9962640099626402)" xlink:href="#CMMI12-116"/>
      <use transform="translate(131.2169361233266 0.0)scale(0.9962640099626402)" xlink:href="#CMR17-41"/>
     </g>
    </g>
    <g id="line2d_25">
     <path d="M 186.755225 40.721544 
L 203.555225 40.721544 
" style="fill:none;stroke:#e74c3c;stroke-linecap:square;"/>
    </g>
    <g id="line2d_26"/>
    <g id="text_14">
     <!-- $\mathbf{x}(t)$ -->
     <defs>
      <path d="M 33.703125 24.484375 
L 45.296875 37.734375 
C 46.40625 39.03125 47.296875 39.828125 55.59375 39.828125 
L 55.59375 44 
C 50 44 49.796875 44 46.40625 44 
C 43.5 44 39.203125 44 36.40625 44.09375 
L 36.40625 39.828125 
C 38.296875 39.828125 40.40625 39.328125 40.40625 38.625 
C 40.40625 38.4375 39.90625 37.734375 39.703125 37.53125 
L 31 27.78125 
L 21.09375 39.828125 
L 25.296875 39.828125 
L 25.296875 44.09375 
C 23 44 16.203125 44 13.5 44 
C 10.5 44 5.09375 44 2.296875 44.09375 
L 2.296875 39.828125 
L 9.40625 39.828125 
L 25 20.90625 
L 12 6.265625 
C 10.796875 4.875 10.09375 4.171875 1.796875 4.171875 
L 1.796875 0 
C 7.796875 0 8 0 11.09375 0 
C 14 0 18.203125 0 21 -0.09375 
L 21 4.171875 
C 19.09375 4.171875 17 4.671875 17 5.375 
C 17 5.46875 17 5.5625 17.703125 6.359375 
L 27.703125 17.625 
L 38.796875 4.171875 
L 34.59375 4.171875 
L 34.59375 -0.09375 
C 37 0 43.703125 0 46.5 0 
C 49.5 0 54.796875 0 57.59375 -0.09375 
L 57.59375 4.171875 
L 50.59375 4.171875 
z
" id="CMBX12-120"/>
     </defs>
     <g transform="translate(216.755224944 44.9215442092)scale(0.12 -0.12)">
      <use transform="scale(0.9962640099626402)" xlink:href="#CMBX12-120"/>
      <use transform="translate(59.15317559153176 0.0)scale(0.9962640099626402)" xlink:href="#CMR17-40"/>
      <use transform="translate(94.43394339099471 0.0)scale(0.9962640099626402)" xlink:href="#CMMI12-116"/>
      <use transform="translate(129.66027360775996 0.0)scale(0.9962640099626402)" xlink:href="#CMR17-41"/>
     </g>
    </g>
   </g>
  </g>
  <g id="axes_2">
   <g id="patch_7">
    <path d="M 43.655567 316.315334 
L 180 316.315334 
L 180 181.8 
L 43.655567 181.8 
z
" style="fill:#ffffff;"/>
   </g>
   <g id="line2d_27">
    <defs>
     <path d="M 0 6 
C 1.591219 6 3.117479 5.367802 4.242641 4.242641 
C 5.367802 3.117479 6 1.591219 6 0 
C 6 -1.591219 5.367802 -3.117479 4.242641 -4.242641 
C 3.117479 -5.367802 1.591219 -6 0 -6 
C -1.591219 -6 -3.117479 -5.367802 -4.242641 -4.242641 
C -5.367802 -3.117479 -6 -1.591219 -6 0 
C -6 1.591219 -5.367802 3.117479 -4.242641 4.242641 
C -3.117479 5.367802 -1.591219 6 0 6 
z
" id="m1ae0c3d812" style="stroke:#000000;stroke-width:2.0;"/>
    </defs>
    <g clip-path="url(#p93ba075d77)">
     <use style="fill:#00ff80;stroke:#000000;stroke-width:2.0;" x="168.637963893" xlink:href="#m1ae0c3d812" y="249.057667232"/>
    </g>
   </g>
   <g id="line2d_28">
    <defs>
     <path d="M 0 4 
C 1.060812 4 2.078319 3.578535 2.828427 2.828427 
C 3.578535 2.078319 4 1.060812 4 0 
C 4 -1.060812 3.578535 -2.078319 2.828427 -2.828427 
C 2.078319 -3.578535 1.060812 -4 0 -4 
C -1.060812 -4 -2.078319 -3.578535 -2.828427 -2.828427 
C -3.578535 -2.078319 -4 -1.060812 -4 0 
C -4 1.060812 -3.578535 2.078319 -2.828427 2.828427 
C -2.078319 3.578535 -1.060812 4 0 4 
z
" id="mc946e5bee0" style="stroke:#bbbbbb;stroke-width:2.0;"/>
    </defs>
    <g clip-path="url(#p93ba075d77)">
     <use style="fill:#00ff80;stroke:#bbbbbb;stroke-width:2.0;" x="168.637963893" xlink:href="#mc946e5bee0" y="249.057667232"/>
    </g>
   </g>
   <g id="line2d_29">
    <defs>
     <path d="M 0 6 
C 1.591219 6 3.117479 5.367802 4.242641 4.242641 
C 5.367802 3.117479 6 1.591219 6 0 
C 6 -1.591219 5.367802 -3.117479 4.242641 -4.242641 
C 3.117479 -5.367802 1.591219 -6 0 -6 
C -1.591219 -6 -3.117479 -5.367802 -4.242641 -4.242641 
C -5.367802 -3.117479 -6 -1.591219 -6 0 
C -6 1.591219 -5.367802 3.117479 -4.242641 4.242641 
C -3.117479 5.367802 -1.591219 6 0 6 
z
" id="m8994d84a56" style="stroke:#000000;stroke-width:2.0;"/>
    </defs>
    <g clip-path="url(#p93ba075d77)">
     <use style="fill:#00ee88;stroke:#000000;stroke-width:2.0;" x="164.313546392" xlink:href="#m8994d84a56" y="227.609004774"/>
    </g>
   </g>
   <g id="line2d_30">
    <defs>
     <path d="M 0 4 
C 1.060812 4 2.078319 3.578535 2.828427 2.828427 
C 3.578535 2.078319 4 1.060812 4 0 
C 4 -1.060812 3.578535 -2.078319 2.828427 -2.828427 
C 2.078319 -3.578535 1.060812 -4 0 -4 
C -1.060812 -4 -2.078319 -3.578535 -2.828427 -2.828427 
C -3.578535 -2.078319 -4 -1.060812 -4 0 
C -4 1.060812 -3.578535 2.078319 -2.828427 2.828427 
C -2.078319 3.578535 -1.060812 4 0 4 
z
" id="mc9c1a58703" style="stroke:#bbbbbb;stroke-width:2.0;"/>
    </defs>
    <g clip-path="url(#p93ba075d77)">
     <use style="fill:#00ee88;stroke:#bbbbbb;stroke-width:2.0;" x="164.313546392" xlink:href="#mc9c1a58703" y="227.609004774"/>
    </g>
   </g>
   <g id="line2d_31">
    <defs>
     <path d="M 0 6 
C 1.591219 6 3.117479 5.367802 4.242641 4.242641 
C 5.367802 3.117479 6 1.591219 6 0 
C 6 -1.591219 5.367802 -3.117479 4.242641 -4.242641 
C 3.117479 -5.367802 1.591219 -6 0 -6 
C -1.591219 -6 -3.117479 -5.367802 -4.242641 -4.242641 
C -5.367802 -3.117479 -6 -1.591219 -6 0 
C -6 1.591219 -5.367802 3.117479 -4.242641 4.242641 
C -3.117479 5.367802 -1.591219 6 0 6 
z
" id="m895572a897" style="stroke:#000000;stroke-width:2.0;"/>
    </defs>
    <g clip-path="url(#p93ba075d77)">
     <use style="fill:#00dd90;stroke:#000000;stroke-width:2.0;" x="151.998647254" xlink:href="#m895572a897" y="209.425706743"/>
    </g>
   </g>
   <g id="line2d_32">
    <defs>
     <path d="M 0 4 
C 1.060812 4 2.078319 3.578535 2.828427 2.828427 
C 3.578535 2.078319 4 1.060812 4 0 
C 4 -1.060812 3.578535 -2.078319 2.828427 -2.828427 
C 2.078319 -3.578535 1.060812 -4 0 -4 
C -1.060812 -4 -2.078319 -3.578535 -2.828427 -2.828427 
C -3.578535 -2.078319 -4 -1.060812 -4 0 
C -4 1.060812 -3.578535 2.078319 -2.828427 2.828427 
C -2.078319 3.578535 -1.060812 4 0 4 
z
" id="m23be1a798b" style="stroke:#bbbbbb;stroke-width:2.0;"/>
    </defs>
    <g clip-path="url(#p93ba075d77)">
     <use style="fill:#00dd90;stroke:#bbbbbb;stroke-width:2.0;" x="151.998647254" xlink:href="#m23be1a798b" y="209.425706743"/>
    </g>
   </g>
   <g id="line2d_33">
    <defs>
     <path d="M 0 6 
C 1.591219 6 3.117479 5.367802 4.242641 4.242641 
C 5.367802 3.117479 6 1.591219 6 0 
C 6 -1.591219 5.367802 -3.117479 4.242641 -4.242641 
C 3.117479 -5.367802 1.591219 -6 0 -6 
C -1.591219 -6 -3.117479 -5.367802 -4.242641 -4.242641 
C -5.367802 -3.117479 -6 -1.591219 -6 0 
C -6 1.591219 -5.367802 3.117479 -4.242641 4.242641 
C -3.117479 5.367802 -1.591219 6 0 6 
z
" id="m96c984e263" style="stroke:#000000;stroke-width:2.0;"/>
    </defs>
    <g clip-path="url(#p93ba075d77)">
     <use style="fill:#00cc99;stroke:#000000;stroke-width:2.0;" x="133.568098236" xlink:href="#m96c984e263" y="197.276015432"/>
    </g>
   </g>
   <g id="line2d_34">
    <defs>
     <path d="M 0 4 
C 1.060812 4 2.078319 3.578535 2.828427 2.828427 
C 3.578535 2.078319 4 1.060812 4 0 
C 4 -1.060812 3.578535 -2.078319 2.828427 -2.828427 
C 2.078319 -3.578535 1.060812 -4 0 -4 
C -1.060812 -4 -2.078319 -3.578535 -2.828427 -2.828427 
C -3.578535 -2.078319 -4 -1.060812 -4 0 
C -4 1.060812 -3.578535 2.078319 -2.828427 2.828427 
C -2.078319 3.578535 -1.060812 4 0 4 
z
" id="m2f7fae2b3e" style="stroke:#bbbbbb;stroke-width:2.0;"/>
    </defs>
    <g clip-path="url(#p93ba075d77)">
     <use style="fill:#00cc99;stroke:#bbbbbb;stroke-width:2.0;" x="133.568098236" xlink:href="#m2f7fae2b3e" y="197.276015432"/>
    </g>
   </g>
   <g id="line2d_35">
    <defs>
     <path d="M 0 6 
C 1.591219 6 3.117479 5.367802 4.242641 4.242641 
C 5.367802 3.117479 6 1.591219 6 0 
C 6 -1.591219 5.367802 -3.117479 4.242641 -4.242641 
C 3.117479 -5.367802 1.591219 -6 0 -6 
C -1.591219 -6 -3.117479 -5.367802 -4.242641 -4.242641 
C -5.367802 -3.117479 -6 -1.591219 -6 0 
C -6 1.591219 -5.367802 3.117479 -4.242641 4.242641 
C -3.117479 5.367802 -1.591219 6 0 6 
z
" id="m0e85ab0a92" style="stroke:#000000;stroke-width:2.0;"/>
    </defs>
    <g clip-path="url(#p93ba075d77)">
     <use style="fill:#00bba2;stroke:#000000;stroke-width:2.0;" x="111.827783355" xlink:href="#m0e85ab0a92" y="193.009611205"/>
    </g>
   </g>
   <g id="line2d_36">
    <defs>
     <path d="M 0 4 
C 1.060812 4 2.078319 3.578535 2.828427 2.828427 
C 3.578535 2.078319 4 1.060812 4 0 
C 4 -1.060812 3.578535 -2.078319 2.828427 -2.828427 
C 2.078319 -3.578535 1.060812 -4 0 -4 
C -1.060812 -4 -2.078319 -3.578535 -2.828427 -2.828427 
C -3.578535 -2.078319 -4 -1.060812 -4 0 
C -4 1.060812 -3.578535 2.078319 -2.828427 2.828427 
C -2.078319 3.578535 -1.060812 4 0 4 
z
" id="mbefdd1fcf4" style="stroke:#bbbbbb;stroke-width:2.0;"/>
    </defs>
    <g clip-path="url(#p93ba075d77)">
     <use style="fill:#00bba2;stroke:#bbbbbb;stroke-width:2.0;" x="111.827783355" xlink:href="#mbefdd1fcf4" y="193.009611205"/>
    </g>
   </g>
   <g id="line2d_37">
    <defs>
     <path d="M 0 6 
C 1.591219 6 3.117479 5.367802 4.242641 4.242641 
C 5.367802 3.117479 6 1.591219 6 0 
C 6 -1.591219 5.367802 -3.117479 4.242641 -4.242641 
C 3.117479 -5.367802 1.591219 -6 0 -6 
C -1.591219 -6 -3.117479 -5.367802 -4.242641 -4.242641 
C -5.367802 -3.117479 -6 -1.591219 -6 0 
C -6 1.591219 -5.367802 3.117479 -4.242641 4.242641 
C -3.117479 5.367802 -1.591219 6 0 6 
z
" id="m686722ace5" style="stroke:#000000;stroke-width:2.0;"/>
    </defs>
    <g clip-path="url(#p93ba075d77)">
     <use style="fill:#00aaaa;stroke:#000000;stroke-width:2.0;" x="90.0874684738" xlink:href="#m686722ace5" y="197.276015432"/>
    </g>
   </g>
   <g id="line2d_38">
    <defs>
     <path d="M 0 4 
C 1.060812 4 2.078319 3.578535 2.828427 2.828427 
C 3.578535 2.078319 4 1.060812 4 0 
C 4 -1.060812 3.578535 -2.078319 2.828427 -2.828427 
C 2.078319 -3.578535 1.060812 -4 0 -4 
C -1.060812 -4 -2.078319 -3.578535 -2.828427 -2.828427 
C -3.578535 -2.078319 -4 -1.060812 -4 0 
C -4 1.060812 -3.578535 2.078319 -2.828427 2.828427 
C -2.078319 3.578535 -1.060812 4 0 4 
z
" id="md16ae8a1a1" style="stroke:#bbbbbb;stroke-width:2.0;"/>
    </defs>
    <g clip-path="url(#p93ba075d77)">
     <use style="fill:#00aaaa;stroke:#bbbbbb;stroke-width:2.0;" x="90.0874684738" xlink:href="#md16ae8a1a1" y="197.276015432"/>
    </g>
   </g>
   <g id="line2d_39">
    <defs>
     <path d="M 0 6 
C 1.591219 6 3.117479 5.367802 4.242641 4.242641 
C 5.367802 3.117479 6 1.591219 6 0 
C 6 -1.591219 5.367802 -3.117479 4.242641 -4.242641 
C 3.117479 -5.367802 1.591219 -6 0 -6 
C -1.591219 -6 -3.117479 -5.367802 -4.242641 -4.242641 
C -5.367802 -3.117479 -6 -1.591219 -6 0 
C -6 1.591219 -5.367802 3.117479 -4.242641 4.242641 
C -3.117479 5.367802 -1.591219 6 0 6 
z
" id="m08efc14c31" style="stroke:#000000;stroke-width:2.0;"/>
    </defs>
    <g clip-path="url(#p93ba075d77)">
     <use style="fill:#0099b2;stroke:#000000;stroke-width:2.0;" x="71.6569194567" xlink:href="#m08efc14c31" y="209.425706743"/>
    </g>
   </g>
   <g id="line2d_40">
    <defs>
     <path d="M 0 4 
C 1.060812 4 2.078319 3.578535 2.828427 2.828427 
C 3.578535 2.078319 4 1.060812 4 0 
C 4 -1.060812 3.578535 -2.078319 2.828427 -2.828427 
C 2.078319 -3.578535 1.060812 -4 0 -4 
C -1.060812 -4 -2.078319 -3.578535 -2.828427 -2.828427 
C -3.578535 -2.078319 -4 -1.060812 -4 0 
C -4 1.060812 -3.578535 2.078319 -2.828427 2.828427 
C -2.078319 3.578535 -1.060812 4 0 4 
z
" id="meec97f1b53" style="stroke:#bbbbbb;stroke-width:2.0;"/>
    </defs>
    <g clip-path="url(#p93ba075d77)">
     <use style="fill:#0099b2;stroke:#bbbbbb;stroke-width:2.0;" x="71.6569194567" xlink:href="#meec97f1b53" y="209.425706743"/>
    </g>
   </g>
   <g id="line2d_41">
    <defs>
     <path d="M 0 6 
C 1.591219 6 3.117479 5.367802 4.242641 4.242641 
C 5.367802 3.117479 6 1.591219 6 0 
C 6 -1.591219 5.367802 -3.117479 4.242641 -4.242641 
C 3.117479 -5.367802 1.591219 -6 0 -6 
C -1.591219 -6 -3.117479 -5.367802 -4.242641 -4.242641 
C -5.367802 -3.117479 -6 -1.591219 -6 0 
C -6 1.591219 -5.367802 3.117479 -4.242641 4.242641 
C -3.117479 5.367802 -1.591219 6 0 6 
z
" id="m50769acece" style="stroke:#000000;stroke-width:2.0;"/>
    </defs>
    <g clip-path="url(#p93ba075d77)">
     <use style="fill:#0088bb;stroke:#000000;stroke-width:2.0;" x="59.3420203184" xlink:href="#m50769acece" y="227.609004774"/>
    </g>
   </g>
   <g id="line2d_42">
    <defs>
     <path d="M 0 4 
C 1.060812 4 2.078319 3.578535 2.828427 2.828427 
C 3.578535 2.078319 4 1.060812 4 0 
C 4 -1.060812 3.578535 -2.078319 2.828427 -2.828427 
C 2.078319 -3.578535 1.060812 -4 0 -4 
C -1.060812 -4 -2.078319 -3.578535 -2.828427 -2.828427 
C -3.578535 -2.078319 -4 -1.060812 -4 0 
C -4 1.060812 -3.578535 2.078319 -2.828427 2.828427 
C -2.078319 3.578535 -1.060812 4 0 4 
z
" id="m5552c49ceb" style="stroke:#bbbbbb;stroke-width:2.0;"/>
    </defs>
    <g clip-path="url(#p93ba075d77)">
     <use style="fill:#0088bb;stroke:#bbbbbb;stroke-width:2.0;" x="59.3420203184" xlink:href="#m5552c49ceb" y="227.609004774"/>
    </g>
   </g>
   <g id="line2d_43">
    <defs>
     <path d="M 0 6 
C 1.591219 6 3.117479 5.367802 4.242641 4.242641 
C 5.367802 3.117479 6 1.591219 6 0 
C 6 -1.591219 5.367802 -3.117479 4.242641 -4.242641 
C 3.117479 -5.367802 1.591219 -6 0 -6 
C -1.591219 -6 -3.117479 -5.367802 -4.242641 -4.242641 
C -5.367802 -3.117479 -6 -1.591219 -6 0 
C -6 1.591219 -5.367802 3.117479 -4.242641 4.242641 
C -3.117479 5.367802 -1.591219 6 0 6 
z
" id="m769d8e3044" style="stroke:#000000;stroke-width:2.0;"/>
    </defs>
    <g clip-path="url(#p93ba075d77)">
     <use style="fill:#0077c3;stroke:#000000;stroke-width:2.0;" x="55.0176028178" xlink:href="#m769d8e3044" y="249.057667232"/>
    </g>
   </g>
   <g id="line2d_44">
    <defs>
     <path d="M 0 4 
C 1.060812 4 2.078319 3.578535 2.828427 2.828427 
C 3.578535 2.078319 4 1.060812 4 0 
C 4 -1.060812 3.578535 -2.078319 2.828427 -2.828427 
C 2.078319 -3.578535 1.060812 -4 0 -4 
C -1.060812 -4 -2.078319 -3.578535 -2.828427 -2.828427 
C -3.578535 -2.078319 -4 -1.060812 -4 0 
C -4 1.060812 -3.578535 2.078319 -2.828427 2.828427 
C -2.078319 3.578535 -1.060812 4 0 4 
z
" id="m691c1ea2c4" style="stroke:#bbbbbb;stroke-width:2.0;"/>
    </defs>
    <g clip-path="url(#p93ba075d77)">
     <use style="fill:#0077c3;stroke:#bbbbbb;stroke-width:2.0;" x="55.0176028178" xlink:href="#m691c1ea2c4" y="249.057667232"/>
    </g>
   </g>
   <g id="line2d_45">
    <defs>
     <path d="M 0 6 
C 1.591219 6 3.117479 5.367802 4.242641 4.242641 
C 5.367802 3.117479 6 1.591219 6 0 
C 6 -1.591219 5.367802 -3.117479 4.242641 -4.242641 
C 3.117479 -5.367802 1.591219 -6 0 -6 
C -1.591219 -6 -3.117479 -5.367802 -4.242641 -4.242641 
C -5.367802 -3.117479 -6 -1.591219 -6 0 
C -6 1.591219 -5.367802 3.117479 -4.242641 4.242641 
C -3.117479 5.367802 -1.591219 6 0 6 
z
" id="m9c60362baf" style="stroke:#000000;stroke-width:2.0;"/>
    </defs>
    <g clip-path="url(#p93ba075d77)">
     <use style="fill:#0066cc;stroke:#000000;stroke-width:2.0;" x="59.3420203184" xlink:href="#m9c60362baf" y="270.506329689"/>
    </g>
   </g>
   <g id="line2d_46">
    <defs>
     <path d="M 0 4 
C 1.060812 4 2.078319 3.578535 2.828427 2.828427 
C 3.578535 2.078319 4 1.060812 4 0 
C 4 -1.060812 3.578535 -2.078319 2.828427 -2.828427 
C 2.078319 -3.578535 1.060812 -4 0 -4 
C -1.060812 -4 -2.078319 -3.578535 -2.828427 -2.828427 
C -3.578535 -2.078319 -4 -1.060812 -4 0 
C -4 1.060812 -3.578535 2.078319 -2.828427 2.828427 
C -2.078319 3.578535 -1.060812 4 0 4 
z
" id="mfbfff9059f" style="stroke:#bbbbbb;stroke-width:2.0;"/>
    </defs>
    <g clip-path="url(#p93ba075d77)">
     <use style="fill:#0066cc;stroke:#bbbbbb;stroke-width:2.0;" x="59.3420203184" xlink:href="#mfbfff9059f" y="270.506329689"/>
    </g>
   </g>
   <g id="line2d_47">
    <defs>
     <path d="M 0 6 
C 1.591219 6 3.117479 5.367802 4.242641 4.242641 
C 5.367802 3.117479 6 1.591219 6 0 
C 6 -1.591219 5.367802 -3.117479 4.242641 -4.242641 
C 3.117479 -5.367802 1.591219 -6 0 -6 
C -1.591219 -6 -3.117479 -5.367802 -4.242641 -4.242641 
C -5.367802 -3.117479 -6 -1.591219 -6 0 
C -6 1.591219 -5.367802 3.117479 -4.242641 4.242641 
C -3.117479 5.367802 -1.591219 6 0 6 
z
" id="m68319a9831" style="stroke:#000000;stroke-width:2.0;"/>
    </defs>
    <g clip-path="url(#p93ba075d77)">
     <use style="fill:#0055d4;stroke:#000000;stroke-width:2.0;" x="71.6569194567" xlink:href="#m68319a9831" y="288.68962772"/>
    </g>
   </g>
   <g id="line2d_48">
    <defs>
     <path d="M 0 4 
C 1.060812 4 2.078319 3.578535 2.828427 2.828427 
C 3.578535 2.078319 4 1.060812 4 0 
C 4 -1.060812 3.578535 -2.078319 2.828427 -2.828427 
C 2.078319 -3.578535 1.060812 -4 0 -4 
C -1.060812 -4 -2.078319 -3.578535 -2.828427 -2.828427 
C -3.578535 -2.078319 -4 -1.060812 -4 0 
C -4 1.060812 -3.578535 2.078319 -2.828427 2.828427 
C -2.078319 3.578535 -1.060812 4 0 4 
z
" id="m2d5c442c3e" style="stroke:#bbbbbb;stroke-width:2.0;"/>
    </defs>
    <g clip-path="url(#p93ba075d77)">
     <use style="fill:#0055d4;stroke:#bbbbbb;stroke-width:2.0;" x="71.6569194567" xlink:href="#m2d5c442c3e" y="288.68962772"/>
    </g>
   </g>
   <g id="line2d_49">
    <defs>
     <path d="M 0 6 
C 1.591219 6 3.117479 5.367802 4.242641 4.242641 
C 5.367802 3.117479 6 1.591219 6 0 
C 6 -1.591219 5.367802 -3.117479 4.242641 -4.242641 
C 3.117479 -5.367802 1.591219 -6 0 -6 
C -1.591219 -6 -3.117479 -5.367802 -4.242641 -4.242641 
C -5.367802 -3.117479 -6 -1.591219 -6 0 
C -6 1.591219 -5.367802 3.117479 -4.242641 4.242641 
C -3.117479 5.367802 -1.591219 6 0 6 
z
" id="mbe38909462" style="stroke:#000000;stroke-width:2.0;"/>
    </defs>
    <g clip-path="url(#p93ba075d77)">
     <use style="fill:#0044dd;stroke:#000000;stroke-width:2.0;" x="90.0874684738" xlink:href="#mbe38909462" y="300.839319032"/>
    </g>
   </g>
   <g id="line2d_50">
    <defs>
     <path d="M 0 4 
C 1.060812 4 2.078319 3.578535 2.828427 2.828427 
C 3.578535 2.078319 4 1.060812 4 0 
C 4 -1.060812 3.578535 -2.078319 2.828427 -2.828427 
C 2.078319 -3.578535 1.060812 -4 0 -4 
C -1.060812 -4 -2.078319 -3.578535 -2.828427 -2.828427 
C -3.578535 -2.078319 -4 -1.060812 -4 0 
C -4 1.060812 -3.578535 2.078319 -2.828427 2.828427 
C -2.078319 3.578535 -1.060812 4 0 4 
z
" id="m5d03270a39" style="stroke:#bbbbbb;stroke-width:2.0;"/>
    </defs>
    <g clip-path="url(#p93ba075d77)">
     <use style="fill:#0044dd;stroke:#bbbbbb;stroke-width:2.0;" x="90.0874684738" xlink:href="#m5d03270a39" y="300.839319032"/>
    </g>
   </g>
   <g id="line2d_51">
    <defs>
     <path d="M 0 6 
C 1.591219 6 3.117479 5.367802 4.242641 4.242641 
C 5.367802 3.117479 6 1.591219 6 0 
C 6 -1.591219 5.367802 -3.117479 4.242641 -4.242641 
C 3.117479 -5.367802 1.591219 -6 0 -6 
C -1.591219 -6 -3.117479 -5.367802 -4.242641 -4.242641 
C -5.367802 -3.117479 -6 -1.591219 -6 0 
C -6 1.591219 -5.367802 3.117479 -4.242641 4.242641 
C -3.117479 5.367802 -1.591219 6 0 6 
z
" id="mdc57574812" style="stroke:#000000;stroke-width:2.0;"/>
    </defs>
    <g clip-path="url(#p93ba075d77)">
     <use style="fill:#0033e6;stroke:#000000;stroke-width:2.0;" x="111.827783355" xlink:href="#mdc57574812" y="305.105723258"/>
    </g>
   </g>
   <g id="line2d_52">
    <defs>
     <path d="M 0 4 
C 1.060812 4 2.078319 3.578535 2.828427 2.828427 
C 3.578535 2.078319 4 1.060812 4 0 
C 4 -1.060812 3.578535 -2.078319 2.828427 -2.828427 
C 2.078319 -3.578535 1.060812 -4 0 -4 
C -1.060812 -4 -2.078319 -3.578535 -2.828427 -2.828427 
C -3.578535 -2.078319 -4 -1.060812 -4 0 
C -4 1.060812 -3.578535 2.078319 -2.828427 2.828427 
C -2.078319 3.578535 -1.060812 4 0 4 
z
" id="me372e870a3" style="stroke:#bbbbbb;stroke-width:2.0;"/>
    </defs>
    <g clip-path="url(#p93ba075d77)">
     <use style="fill:#0033e6;stroke:#bbbbbb;stroke-width:2.0;" x="111.827783355" xlink:href="#me372e870a3" y="305.105723258"/>
    </g>
   </g>
   <g id="line2d_53">
    <defs>
     <path d="M 0 6 
C 1.591219 6 3.117479 5.367802 4.242641 4.242641 
C 5.367802 3.117479 6 1.591219 6 0 
C 6 -1.591219 5.367802 -3.117479 4.242641 -4.242641 
C 3.117479 -5.367802 1.591219 -6 0 -6 
C -1.591219 -6 -3.117479 -5.367802 -4.242641 -4.242641 
C -5.367802 -3.117479 -6 -1.591219 -6 0 
C -6 1.591219 -5.367802 3.117479 -4.242641 4.242641 
C -3.117479 5.367802 -1.591219 6 0 6 
z
" id="mc56c940309" style="stroke:#000000;stroke-width:2.0;"/>
    </defs>
    <g clip-path="url(#p93ba075d77)">
     <use style="fill:#0022ee;stroke:#000000;stroke-width:2.0;" x="133.568098236" xlink:href="#mc56c940309" y="300.839319032"/>
    </g>
   </g>
   <g id="line2d_54">
    <defs>
     <path d="M 0 4 
C 1.060812 4 2.078319 3.578535 2.828427 2.828427 
C 3.578535 2.078319 4 1.060812 4 0 
C 4 -1.060812 3.578535 -2.078319 2.828427 -2.828427 
C 2.078319 -3.578535 1.060812 -4 0 -4 
C -1.060812 -4 -2.078319 -3.578535 -2.828427 -2.828427 
C -3.578535 -2.078319 -4 -1.060812 -4 0 
C -4 1.060812 -3.578535 2.078319 -2.828427 2.828427 
C -2.078319 3.578535 -1.060812 4 0 4 
z
" id="mb6a3e84f2c" style="stroke:#bbbbbb;stroke-width:2.0;"/>
    </defs>
    <g clip-path="url(#p93ba075d77)">
     <use style="fill:#0022ee;stroke:#bbbbbb;stroke-width:2.0;" x="133.568098236" xlink:href="#mb6a3e84f2c" y="300.839319032"/>
    </g>
   </g>
   <g id="line2d_55">
    <defs>
     <path d="M 0 6 
C 1.591219 6 3.117479 5.367802 4.242641 4.242641 
C 5.367802 3.117479 6 1.591219 6 0 
C 6 -1.591219 5.367802 -3.117479 4.242641 -4.242641 
C 3.117479 -5.367802 1.591219 -6 0 -6 
C -1.591219 -6 -3.117479 -5.367802 -4.242641 -4.242641 
C -5.367802 -3.117479 -6 -1.591219 -6 0 
C -6 1.591219 -5.367802 3.117479 -4.242641 4.242641 
C -3.117479 5.367802 -1.591219 6 0 6 
z
" id="m42758c7e2c" style="stroke:#000000;stroke-width:2.0;"/>
    </defs>
    <g clip-path="url(#p93ba075d77)">
     <use style="fill:#0011f6;stroke:#000000;stroke-width:2.0;" x="151.998647254" xlink:href="#m42758c7e2c" y="288.68962772"/>
    </g>
   </g>
   <g id="line2d_56">
    <defs>
     <path d="M 0 4 
C 1.060812 4 2.078319 3.578535 2.828427 2.828427 
C 3.578535 2.078319 4 1.060812 4 0 
C 4 -1.060812 3.578535 -2.078319 2.828427 -2.828427 
C 2.078319 -3.578535 1.060812 -4 0 -4 
C -1.060812 -4 -2.078319 -3.578535 -2.828427 -2.828427 
C -3.578535 -2.078319 -4 -1.060812 -4 0 
C -4 1.060812 -3.578535 2.078319 -2.828427 2.828427 
C -2.078319 3.578535 -1.060812 4 0 4 
z
" id="mfa487b8035" style="stroke:#bbbbbb;stroke-width:2.0;"/>
    </defs>
    <g clip-path="url(#p93ba075d77)">
     <use style="fill:#0011f6;stroke:#bbbbbb;stroke-width:2.0;" x="151.998647254" xlink:href="#mfa487b8035" y="288.68962772"/>
    </g>
   </g>
   <g id="line2d_57">
    <defs>
     <path d="M 0 6 
C 1.591219 6 3.117479 5.367802 4.242641 4.242641 
C 5.367802 3.117479 6 1.591219 6 0 
C 6 -1.591219 5.367802 -3.117479 4.242641 -4.242641 
C 3.117479 -5.367802 1.591219 -6 0 -6 
C -1.591219 -6 -3.117479 -5.367802 -4.242641 -4.242641 
C -5.367802 -3.117479 -6 -1.591219 -6 0 
C -6 1.591219 -5.367802 3.117479 -4.242641 4.242641 
C -3.117479 5.367802 -1.591219 6 0 6 
z
" id="md77cf343eb" style="stroke:#000000;stroke-width:2.0;"/>
    </defs>
    <g clip-path="url(#p93ba075d77)">
     <use style="fill:#0000ff;stroke:#000000;stroke-width:2.0;" x="164.313546392" xlink:href="#md77cf343eb" y="270.506329689"/>
    </g>
   </g>
   <g id="line2d_58">
    <defs>
     <path d="M 0 4 
C 1.060812 4 2.078319 3.578535 2.828427 2.828427 
C 3.578535 2.078319 4 1.060812 4 0 
C 4 -1.060812 3.578535 -2.078319 2.828427 -2.828427 
C 2.078319 -3.578535 1.060812 -4 0 -4 
C -1.060812 -4 -2.078319 -3.578535 -2.828427 -2.828427 
C -3.578535 -2.078319 -4 -1.060812 -4 0 
C -4 1.060812 -3.578535 2.078319 -2.828427 2.828427 
C -2.078319 3.578535 -1.060812 4 0 4 
z
" id="m83cea069e9" style="stroke:#bbbbbb;stroke-width:2.0;"/>
    </defs>
    <g clip-path="url(#p93ba075d77)">
     <use style="fill:#0000ff;stroke:#bbbbbb;stroke-width:2.0;" x="164.313546392" xlink:href="#m83cea069e9" y="270.506329689"/>
    </g>
   </g>
   <g id="patch_8">
    <path d="M 180 316.315334 
L 180 181.8 
" style="fill:none;stroke:#000000;stroke-linecap:square;stroke-linejoin:miter;"/>
   </g>
   <g id="patch_9">
    <path d="M 43.655567 316.315334 
L 43.655567 181.8 
" style="fill:none;stroke:#000000;stroke-linecap:square;stroke-linejoin:miter;"/>
   </g>
   <g id="patch_10">
    <path d="M 43.655567 316.315334 
L 180 316.315334 
" style="fill:none;stroke:#000000;stroke-linecap:square;stroke-linejoin:miter;"/>
   </g>
   <g id="patch_11">
    <path d="M 43.655567 181.8 
L 180 181.8 
" style="fill:none;stroke:#000000;stroke-linecap:square;stroke-linejoin:miter;"/>
   </g>
   <g id="matplotlib.axis_3">
    <g id="xtick_6">
     <g id="line2d_59">
      <g>
       <use style="stroke:#000000;stroke-width:0.5;" x="55.0176028178" xlink:href="#mfd92f07d24" y="316.315334464"/>
      </g>
     </g>
     <g id="line2d_60">
      <g>
       <use style="stroke:#000000;stroke-width:0.5;" x="55.0176028178" xlink:href="#m4f9b61a139" y="181.8"/>
      </g>
     </g>
     <g id="text_15">
      <!-- $-1.0$ -->
      <g transform="translate(44.7781914673 327.413654727)scale(0.1 -0.1)">
       <use transform="scale(0.9962640099626402)" xlink:href="#CMSY10-0"/>
       <use transform="translate(77.4874676506071 0.0)scale(0.9962640099626402)" xlink:href="#CMR17-49"/>
       <use transform="translate(123.17794476766814 0.0)scale(0.9962640099626402)" xlink:href="#CMMI12-58"/>
       <use transform="translate(150.27512185748756 0.0)scale(0.9962640099626402)" xlink:href="#CMR17-48"/>
      </g>
     </g>
    </g>
    <g id="xtick_7">
     <g id="line2d_61">
      <g>
       <use style="stroke:#000000;stroke-width:0.5;" x="83.4226930865" xlink:href="#mfd92f07d24" y="316.315334464"/>
      </g>
     </g>
     <g id="line2d_62">
      <g>
       <use style="stroke:#000000;stroke-width:0.5;" x="83.4226930865" xlink:href="#m4f9b61a139" y="181.8"/>
      </g>
     </g>
     <g id="text_16">
      <!-- $-0.5$ -->
      <g transform="translate(73.183281736 327.413654727)scale(0.1 -0.1)">
       <use transform="scale(0.9962640099626402)" xlink:href="#CMSY10-0"/>
       <use transform="translate(77.4874676506071 0.0)scale(0.9962640099626402)" xlink:href="#CMR17-48"/>
       <use transform="translate(123.17794476766814 0.0)scale(0.9962640099626402)" xlink:href="#CMMI12-58"/>
       <use transform="translate(150.27512185748756 0.0)scale(0.9962640099626402)" xlink:href="#CMR17-53"/>
      </g>
     </g>
    </g>
    <g id="xtick_8">
     <g id="line2d_63">
      <g>
       <use style="stroke:#000000;stroke-width:0.5;" x="111.827783355" xlink:href="#mfd92f07d24" y="316.315334464"/>
      </g>
     </g>
     <g id="line2d_64">
      <g>
       <use style="stroke:#000000;stroke-width:0.5;" x="111.827783355" xlink:href="#m4f9b61a139" y="181.8"/>
      </g>
     </g>
     <g id="text_17">
      <!-- $0.0$ -->
      <g transform="translate(105.462743867 327.413654727)scale(0.1 -0.1)">
       <use transform="scale(0.9962640099626402)" xlink:href="#CMR17-48"/>
       <use transform="translate(45.69047711706103 0.0)scale(0.9962640099626402)" xlink:href="#CMMI12-58"/>
       <use transform="translate(72.78765420688046 0.0)scale(0.9962640099626402)" xlink:href="#CMR17-48"/>
      </g>
     </g>
    </g>
    <g id="xtick_9">
     <g id="line2d_65">
      <g>
       <use style="stroke:#000000;stroke-width:0.5;" x="140.232873624" xlink:href="#mfd92f07d24" y="316.315334464"/>
      </g>
     </g>
     <g id="line2d_66">
      <g>
       <use style="stroke:#000000;stroke-width:0.5;" x="140.232873624" xlink:href="#m4f9b61a139" y="181.8"/>
      </g>
     </g>
     <g id="text_18">
      <!-- $0.5$ -->
      <g transform="translate(133.867834136 327.413654727)scale(0.1 -0.1)">
       <use transform="scale(0.9962640099626402)" xlink:href="#CMR17-48"/>
       <use transform="translate(45.69047711706103 0.0)scale(0.9962640099626402)" xlink:href="#CMMI12-58"/>
       <use transform="translate(72.78765420688046 0.0)scale(0.9962640099626402)" xlink:href="#CMR17-53"/>
      </g>
     </g>
    </g>
    <g id="xtick_10">
     <g id="line2d_67">
      <g>
       <use style="stroke:#000000;stroke-width:0.5;" x="168.637963893" xlink:href="#mfd92f07d24" y="316.315334464"/>
      </g>
     </g>
     <g id="line2d_68">
      <g>
       <use style="stroke:#000000;stroke-width:0.5;" x="168.637963893" xlink:href="#m4f9b61a139" y="181.8"/>
      </g>
     </g>
     <g id="text_19">
      <!-- $1.0$ -->
      <g transform="translate(162.272924404 327.413654727)scale(0.1 -0.1)">
       <use transform="scale(0.9962640099626402)" xlink:href="#CMR17-49"/>
       <use transform="translate(45.69047711706103 0.0)scale(0.9962640099626402)" xlink:href="#CMMI12-58"/>
       <use transform="translate(72.78765420688046 0.0)scale(0.9962640099626402)" xlink:href="#CMR17-48"/>
      </g>
     </g>
    </g>
    <g id="text_20">
     <!-- $D_1$ -->
     <defs>
      <path d="M 15.703125 7.375 
C 14.796875 3.890625 14.59375 2.890625 7.59375 2.890625 
C 5.703125 2.890625 4.703125 2.890625 4.703125 1.09375 
C 4.703125 0 5.296875 0 7.296875 0 
L 39 0 
C 59.203125 0 78.90625 20.8125 78.90625 43.015625 
C 78.90625 57.359375 70.296875 68 56 68 
L 23.90625 68 
C 22 68 21.09375 68 21.09375 66.109375 
C 21.09375 65.109375 22 65.109375 23.5 65.109375 
C 29.59375 65.109375 29.59375 64.3125 29.59375 63.203125 
C 29.59375 63.015625 29.59375 62.40625 29.203125 60.921875 
z
M 36.796875 61.234375 
C 37.703125 64.90625 38.09375 65.109375 42 65.109375 
L 53 65.109375 
C 62.40625 65.109375 71 60.03125 71 46.296875 
C 71 41.3125 69 24 59.296875 13.046875 
C 56.5 9.765625 48.90625 2.890625 37.40625 2.890625 
L 26 2.890625 
C 24.59375 2.890625 24.40625 2.890625 23.796875 3 
C 22.703125 3.09375 22.59375 3.296875 22.59375 4.09375 
C 22.59375 4.796875 22.796875 5.390625 23 6.265625 
z
" id="CMMI12-68"/>
     </defs>
     <g transform="translate(104.851039346 343.053625443)scale(0.12 -0.12)">
      <use transform="translate(0.0 14.943914544092467)scale(0.9962640099626402)" xlink:href="#CMMI12-68"/>
      <use transform="translate(80.9942300114804 0.0)scale(0.6973817666173724)" xlink:href="#CMR17-49"/>
     </g>
    </g>
   </g>
   <g id="matplotlib.axis_4">
    <g id="ytick_6">
     <g id="line2d_69">
      <g>
       <use style="stroke:#000000;stroke-width:0.5;" x="43.6555667103" xlink:href="#m457f9d7e1a" y="305.105723258"/>
      </g>
     </g>
     <g id="line2d_70">
      <g>
       <use style="stroke:#000000;stroke-width:0.5;" x="180.0" xlink:href="#m6a183555a2" y="305.105723258"/>
      </g>
     </g>
     <g id="text_21">
      <!-- $-1.0$ -->
      <g transform="translate(19.1767440093 307.593890191)scale(0.1 -0.1)">
       <use transform="scale(0.9962640099626402)" xlink:href="#CMSY10-0"/>
       <use transform="translate(77.4874676506071 0.0)scale(0.9962640099626402)" xlink:href="#CMR17-49"/>
       <use transform="translate(123.17794476766814 0.0)scale(0.9962640099626402)" xlink:href="#CMMI12-58"/>
       <use transform="translate(150.27512185748756 0.0)scale(0.9962640099626402)" xlink:href="#CMR17-48"/>
      </g>
     </g>
    </g>
    <g id="ytick_7">
     <g id="line2d_71">
      <g>
       <use style="stroke:#000000;stroke-width:0.5;" x="43.6555667103" xlink:href="#m457f9d7e1a" y="277.081695245"/>
      </g>
     </g>
     <g id="line2d_72">
      <g>
       <use style="stroke:#000000;stroke-width:0.5;" x="180.0" xlink:href="#m6a183555a2" y="277.081695245"/>
      </g>
     </g>
     <g id="text_22">
      <!-- $-0.5$ -->
      <g transform="translate(19.1767440093 279.569862178)scale(0.1 -0.1)">
       <use transform="scale(0.9962640099626402)" xlink:href="#CMSY10-0"/>
       <use transform="translate(77.4874676506071 0.0)scale(0.9962640099626402)" xlink:href="#CMR17-48"/>
       <use transform="translate(123.17794476766814 0.0)scale(0.9962640099626402)" xlink:href="#CMMI12-58"/>
       <use transform="translate(150.27512185748756 0.0)scale(0.9962640099626402)" xlink:href="#CMR17-53"/>
      </g>
     </g>
    </g>
    <g id="ytick_8">
     <g id="line2d_73">
      <g>
       <use style="stroke:#000000;stroke-width:0.5;" x="43.6555667103" xlink:href="#m457f9d7e1a" y="249.057667232"/>
      </g>
     </g>
     <g id="line2d_74">
      <g>
       <use style="stroke:#000000;stroke-width:0.5;" x="180.0" xlink:href="#m6a183555a2" y="249.057667232"/>
      </g>
     </g>
     <g id="text_23">
      <!-- $0.0$ -->
      <g transform="translate(26.925487734 251.545834164)scale(0.1 -0.1)">
       <use transform="scale(0.9962640099626402)" xlink:href="#CMR17-48"/>
       <use transform="translate(45.69047711706103 0.0)scale(0.9962640099626402)" xlink:href="#CMMI12-58"/>
       <use transform="translate(72.78765420688046 0.0)scale(0.9962640099626402)" xlink:href="#CMR17-48"/>
      </g>
     </g>
    </g>
    <g id="ytick_9">
     <g id="line2d_75">
      <g>
       <use style="stroke:#000000;stroke-width:0.5;" x="43.6555667103" xlink:href="#m457f9d7e1a" y="221.033639219"/>
      </g>
     </g>
     <g id="line2d_76">
      <g>
       <use style="stroke:#000000;stroke-width:0.5;" x="180.0" xlink:href="#m6a183555a2" y="221.033639219"/>
      </g>
     </g>
     <g id="text_24">
      <!-- $0.5$ -->
      <g transform="translate(26.925487734 223.521806151)scale(0.1 -0.1)">
       <use transform="scale(0.9962640099626402)" xlink:href="#CMR17-48"/>
       <use transform="translate(45.69047711706103 0.0)scale(0.9962640099626402)" xlink:href="#CMMI12-58"/>
       <use transform="translate(72.78765420688046 0.0)scale(0.9962640099626402)" xlink:href="#CMR17-53"/>
      </g>
     </g>
    </g>
    <g id="ytick_10">
     <g id="line2d_77">
      <g>
       <use style="stroke:#000000;stroke-width:0.5;" x="43.6555667103" xlink:href="#m457f9d7e1a" y="193.009611205"/>
      </g>
     </g>
     <g id="line2d_78">
      <g>
       <use style="stroke:#000000;stroke-width:0.5;" x="180.0" xlink:href="#m6a183555a2" y="193.009611205"/>
      </g>
     </g>
     <g id="text_25">
      <!-- $1.0$ -->
      <g transform="translate(26.925487734 195.497778138)scale(0.1 -0.1)">
       <use transform="scale(0.9962640099626402)" xlink:href="#CMR17-49"/>
       <use transform="translate(45.69047711706103 0.0)scale(0.9962640099626402)" xlink:href="#CMMI12-58"/>
       <use transform="translate(72.78765420688046 0.0)scale(0.9962640099626402)" xlink:href="#CMR17-48"/>
      </g>
     </g>
    </g>
    <g id="text_26">
     <!-- $D_2$ -->
     <g transform="translate(7.2 246.511292674)scale(0.12 -0.12)">
      <use transform="translate(0.0 14.943914544092467)scale(0.9962640099626402)" xlink:href="#CMMI12-68"/>
      <use transform="translate(80.9942300114804 0.0)scale(0.6973817666173724)" xlink:href="#CMR17-50"/>
     </g>
    </g>
   </g>
   <g id="legend_2">
    <g id="line2d_79"/>
    <g id="line2d_80">
     <defs>
      <path d="M 0 4.5 
C 1.193414 4.5 2.338109 4.025852 3.181981 3.181981 
C 4.025852 2.338109 4.5 1.193414 4.5 0 
C 4.5 -1.193414 4.025852 -2.338109 3.181981 -3.181981 
C 2.338109 -4.025852 1.193414 -4.5 0 -4.5 
C -1.193414 -4.5 -2.338109 -4.025852 -3.181981 -3.181981 
C -4.025852 -2.338109 -4.5 -1.193414 -4.5 0 
C -4.5 1.193414 -4.025852 2.338109 -3.181981 3.181981 
C -2.338109 4.025852 -1.193414 4.5 0 4.5 
z
" id="m1d285a4025" style="stroke:#000000;stroke-width:2.0;"/>
     </defs>
     <g>
      <use style="fill:#00ff80;stroke:#000000;stroke-width:2.0;" x="199.225524674" xlink:href="#m1d285a4025" y="198.627090306"/>
     </g>
    </g>
    <g id="text_27">
     <!-- $(\mathbf{F}^T)_i$ -->
     <defs>
      <path d="M 63 67.28125 
L 3.796875 67.28125 
L 3.796875 63 
L 14.40625 63 
L 14.40625 4.171875 
L 3.796875 4.171875 
L 3.796875 0 
C 6.703125 0 18.09375 0 21.796875 0 
C 27.09375 0 36 0 40.90625 0 
L 40.90625 4.171875 
L 27.59375 4.171875 
L 27.59375 31.71875 
L 33.09375 31.71875 
C 42.703125 31.71875 43.5 27.3125 43.5 20 
L 47.703125 20 
L 47.703125 47.53125 
L 43.5 47.53125 
C 43.5 40.328125 42.703125 36 33.09375 36 
L 27.59375 36 
L 27.59375 63 
L 41.90625 63 
C 57.796875 63 60.296875 55.875 61.703125 44.078125 
L 65.90625 44.078125 
z
" id="CMBX12-70"/>
      <path d="M 28.296875 14.265625 
C 28.296875 14.765625 27.90625 15.171875 27.296875 15.171875 
C 26.40625 15.171875 26.296875 14.875 25.796875 13.171875 
C 23.203125 4.09375 19.09375 1 15.796875 1 
C 14.59375 1 13.203125 1.296875 13.203125 4.296875 
C 13.203125 6.984375 14.40625 9.984375 15.5 12.96875 
L 22.5 31.53125 
C 22.796875 32.328125 23.5 34.125 23.5 36.015625 
C 23.5 40.21875 20.5 44 15.59375 44 
C 6.40625 44 2.703125 29.53125 2.703125 28.734375 
C 2.703125 28.34375 3.09375 27.84375 3.796875 27.84375 
C 4.703125 27.84375 4.796875 28.234375 5.203125 29.625 
C 7.59375 37.9375 11.40625 41.90625 15.296875 41.90625 
C 16.203125 41.90625 17.90625 41.90625 17.90625 38.71875 
C 17.90625 36.125 16.59375 32.828125 15.796875 30.640625 
L 8.796875 12.078125 
C 8.203125 10.484375 7.59375 8.875 7.59375 7.078125 
C 7.59375 2.59375 10.703125 -1 15.5 -1 
C 24.703125 -1 28.296875 13.578125 28.296875 14.265625 
M 27.5 62.703125 
C 27.5 64.203125 26.296875 66 24.09375 66 
C 21.796875 66 19.203125 63.796875 19.203125 61.203125 
C 19.203125 58.71875 21.296875 57.921875 22.5 57.921875 
C 25.203125 57.921875 27.5 60.515625 27.5 62.703125 
" id="CMMI12-105"/>
      <path d="M 41.703125 61.09375 
C 42.296875 63.5 42.5 64.390625 44 64.796875 
C 44.796875 65 48.09375 65 50.203125 65 
C 60.203125 65 64.90625 64.59375 64.90625 56.78125 
C 64.90625 55.265625 64.5 51.46875 63.90625 47.75 
L 63.796875 46.5625 
C 63.796875 46.15625 64.203125 45.5625 64.796875 45.5625 
C 65.796875 45.5625 65.796875 46.0625 66.09375 47.65625 
L 69 65.375 
C 69.203125 66.296875 69.203125 66.5 69.203125 66.796875 
C 69.203125 67.890625 68.59375 67.890625 66.59375 67.890625 
L 11.90625 67.890625 
C 9.59375 67.890625 9.5 67.796875 8.90625 66 
L 2.796875 47.96875 
C 2.703125 47.75 2.40625 46.65625 2.40625 46.5625 
C 2.40625 46.0625 2.796875 45.5625 3.40625 45.5625 
C 4.203125 45.5625 4.40625 45.953125 4.796875 47.25 
C 9 59.390625 11.09375 65 24.40625 65 
L 31.09375 65 
C 33.5 65 34.5 65 34.5 63.90625 
C 34.5 63.59375 34.5 63.40625 34 61.59375 
L 20.59375 7.796875 
C 19.59375 3.890625 19.40625 2.890625 8.796875 2.890625 
C 6.296875 2.890625 5.59375 2.890625 5.59375 1 
C 5.59375 0 6.703125 0 7.203125 0 
C 9.703125 0 12.296875 0 14.796875 0 
L 30.40625 0 
C 32.90625 0 35.59375 0 38.09375 0 
C 39.203125 0 40.203125 0 40.203125 1.890625 
C 40.203125 2.890625 39.5 2.890625 36.90625 2.890625 
C 27.90625 2.890625 27.90625 3.796875 27.90625 5.296875 
C 27.90625 5.40625 27.90625 6.109375 28.296875 7.703125 
z
" id="CMMI12-84"/>
     </defs>
     <g transform="translate(210.325524674 202.827090306)scale(0.12 -0.12)">
      <use transform="translate(0.0 14.943914544092468)scale(0.9962640099626402)" xlink:href="#CMR17-40"/>
      <use transform="translate(35.28076779946296 14.943914544092468)scale(0.9962640099626402)" xlink:href="#CMBX12-70"/>
      <use transform="translate(105.7341883221124 51.097553485951124)scale(0.6973817666173724)" xlink:href="#CMMI12-84"/>
      <use transform="translate(155.73864244434932 14.943914544092468)scale(0.9962640099626402)" xlink:href="#CMR17-41"/>
      <use transform="translate(191.01941024381227 0.0)scale(0.6973817666173724)" xlink:href="#CMMI12-105"/>
     </g>
    </g>
    <g id="line2d_81"/>
    <g id="line2d_82">
     <defs>
      <path d="M 0 3 
C 0.795609 3 1.55874 2.683901 2.12132 2.12132 
C 2.683901 1.55874 3 0.795609 3 0 
C 3 -0.795609 2.683901 -1.55874 2.12132 -2.12132 
C 1.55874 -2.683901 0.795609 -3 0 -3 
C -0.795609 -3 -1.55874 -2.683901 -2.12132 -2.12132 
C -2.683901 -1.55874 -3 -0.795609 -3 0 
C -3 0.795609 -2.683901 1.55874 -2.12132 2.12132 
C -1.55874 2.683901 -0.795609 3 0 3 
z
" id="mf4bea404c7" style="stroke:#bbbbbb;stroke-width:2.0;"/>
     </defs>
     <g>
      <use style="fill:#00ff80;stroke:#bbbbbb;stroke-width:2.0;" x="199.225524674" xlink:href="#mf4bea404c7" y="215.69144918"/>
     </g>
    </g>
    <g id="text_28">
     <!-- $\mathbf{D}_i$ -->
     <defs>
      <path d="M 3.796875 68.28125 
L 3.796875 64 
L 14.40625 64 
L 14.40625 4.265625 
L 3.796875 4.265625 
L 3.796875 0 
L 45.90625 0 
C 65.09375 0 79.90625 12.234375 79.90625 33.546875 
C 79.90625 56.046875 64.703125 68.28125 45.90625 68.28125 
z
M 27.09375 4.265625 
L 27.09375 64 
L 42.09375 64 
C 50.796875 64 57.796875 60.625 61.5 55.4375 
C 64.40625 51.359375 66.296875 46.484375 66.296875 33.640625 
C 66.296875 21.984375 64.796875 16.828125 61.296875 12.140625 
C 57.796875 7.546875 51.09375 4.265625 42.09375 4.265625 
z
" id="CMBX12-68"/>
     </defs>
     <g transform="translate(210.325524674 219.89144918)scale(0.12 -0.12)">
      <use transform="translate(0.0 14.943914544092467)scale(0.9962640099626402)" xlink:href="#CMBX12-68"/>
      <use transform="translate(85.9047857643213 0.0)scale(0.6973817666173724)" xlink:href="#CMMI12-105"/>
     </g>
    </g>
   </g>
  </g>
 </g>
 <defs>
  <clipPath id="p93ba075d77">
   <rect height="134.515334464" width="136.34443329" x="43.6555667103" y="181.8"/>
  </clipPath>
  <clipPath id="pa4c397da6b">
   <rect height="134.515334464" width="136.34443329" x="43.6555667103" y="7.2"/>
  </clipPath>
 </defs>
</svg>
