<?xml version="1.0" encoding="utf-8" standalone="no"?>
<!DOCTYPE svg PUBLIC "-//W3C//DTD SVG 1.1//EN"
  "http://www.w3.org/Graphics/SVG/1.1/DTD/svg11.dtd">
<!-- Created with matplotlib (http://matplotlib.org/) -->
<svg height="180pt" version="1.1" viewBox="0 0 194 180" width="194pt" xmlns="http://www.w3.org/2000/svg" xmlns:xlink="http://www.w3.org/1999/xlink">
 <defs>
  <style type="text/css">
*{stroke-linecap:butt;stroke-linejoin:round;stroke-miterlimit:100000;}
  </style>
 </defs>
 <g id="figure_1">
  <g id="patch_1">
   <path d="M 0 180 
L 194.4 180 
L 194.4 0 
L 0 0 
z
" style="fill:#ffffff;"/>
  </g>
  <g id="axes_1">
   <g id="patch_2">
    <path d="M 42.954549 139.915334 
L 183.6 139.915334 
L 183.6 10.8 
L 42.954549 10.8 
z
" style="fill:#ffffff;"/>
   </g>
   <g id="line2d_1">
    <path clip-path="url(#p1f6800d8c0)" d="M 113.277275 75.357667 
L 113.275679 75.357957 
L 113.275679 75.357957 
L 113.275679 75.357957 
L 113.276264 75.357369 
L 113.277316 75.359195 
L 113.277316 75.359195 
L 113.276695 75.36802 
L 113.272308 75.362828 
L 113.272308 75.362828 
L 113.263506 75.361861 
L 113.26069 75.369591 
L 113.26069 75.369591 
L 113.249069 75.39464 
L 136.762865 72.990604 
L 147.134558 71.810947 
L 145.066348 72.027602 
L 145.533104 71.788335 
L 145.24396 71.82033 
L 144.47547 71.842219 
L 144.507093 71.760013 
L 144.413497 71.770795 
L 143.850729 71.728366 
L 143.927132 71.581889 
L 143.804716 71.596969 
L 143.410232 71.645566 
L 143.50696 71.46786 
L 143.386223 71.483396 
L 142.908076 71.544921 
L 143.022856 71.336812 
L 142.904052 71.352871 
L 142.346181 71.428281 
L 142.47611 71.190476 
L 142.35949 71.207119 
L 141.697906 71.301539 
L 141.840317 71.0329 
L 141.726236 71.050173 
L 141.023481 71.156578 
L 141.173338 70.858675 
L 141.061921 70.876644 
L 140.321407 70.996072 
L 140.472884 70.670827 
L 140.364265 70.689547 
L 139.537042 70.832108 
L 139.685569 70.477404 
L 139.580094 70.496896 
L 138.725846 70.654761 
L 138.864607 70.272137 
L 138.762411 70.292449 
L 137.885429 70.466751 
L 138.007322 70.05801 
L 137.883919 70.084455 
L 136.917582 70.27072 
L 137.018888 69.837205 
L 136.900417 69.864753 
L 135.948835 70.026356 
L 135.833947 69.954047 
L 135.654124 69.997125 
L 135.63257 69.863209 
L 135.543283 69.885154 
L 135.299578 69.945051 
L 135.283113 69.771684 
L 135.195222 69.793994 
L 134.911992 69.86589 
L 135.012271 69.415642 
L 134.903813 69.445293 
L 134.180515 69.643032 
L 134.150422 69.443605 
L 134.046265 69.473117 
L 133.716442 69.566566 
L 133.687718 69.331942 
L 133.58587 69.36201 
L 133.20346 69.474908 
L 133.177429 69.206032 
L 133.078127 69.236729 
L 132.647052 69.369985 
L 132.62404 69.067988 
L 132.5275 69.099374 
L 132.070768 69.247858 
L 132.049811 68.915953 
L 131.956136 68.948097 
L 131.458309 69.118924 
L 131.539173 68.673966 
L 131.429875 68.713968 
L 130.680994 68.905299 
L 130.535112 68.856386 
L 130.466184 68.882352 
L 130.313755 68.796869 
L 130.177939 68.849172 
L 130.118607 68.513062 
L 130.017812 68.554027 
L 129.587955 68.728728 
L 129.529384 68.572152 
L 129.432115 68.612763 
L 129.255298 68.686587 
L 129.189776 68.494537 
L 129.09454 68.535613 
L 128.874532 68.630504 
L 128.808491 68.273058 
L 128.715537 68.315459 
L 128.289051 68.510002 
L 128.21048 68.29277 
L 128.121105 68.335054 
L 127.870768 68.453488 
L 127.78282 68.204126 
L 127.696004 68.24694 
L 127.410352 68.387812 
L 127.312294 68.107533 
L 127.214344 68.158132 
L 126.924573 68.30782 
L 126.839315 67.940621 
L 126.744665 67.992384 
L 126.372625 68.195852 
L 126.24747 67.906092 
L 126.15695 67.958097 
L 125.851367 68.13366 
L 125.708097 67.820626 
L 125.621342 67.873227 
L 125.292349 68.072702 
L 125.128192 67.738281 
L 125.045484 67.791457 
L 124.708941 68.007832 
L 124.521354 67.656269 
L 124.431715 67.717665 
L 124.091065 67.950986 
L 123.953637 67.601367 
L 123.868524 67.663201 
L 123.506946 67.832143 
L 123.33531 67.841148 
L 123.325252 67.848665 
L 123.131033 67.829177 
L 123.091677 67.859246 
L 122.877818 67.810315 
L 122.801282 67.870482 
L 122.570053 67.790287 
L 122.468342 67.873113 
L 122.221864 67.761072 
L 122.097451 67.866736 
L 121.951974 67.504912 
L 121.865616 67.583087 
L 121.712333 67.721847 
L 121.439166 67.619317 
L 121.301518 67.749822 
L 121.003077 67.630563 
L 120.85002 67.783645 
L 120.533795 67.637953 
L 120.382922 67.798456 
L 120.119063 67.552301 
L 120.050953 67.630005 
L 119.89024 67.813351 
L 119.6787 67.501854 
L 119.608635 67.587837 
L 119.483204 67.741767 
L 119.117664 67.602981 
L 118.967697 67.802103 
L 118.638898 67.563937 
L 118.580214 67.649241 
L 118.392995 67.881203 
L 118.036495 67.63167 
L 117.979698 67.723874 
L 117.765313 67.947972 
L 117.297905 67.848099 
L 117.289868 67.863111 
L 117.106145 67.919412 
L 117.102316 67.92685 
L 116.886776 67.9713 
L 116.868764 68.008158 
L 116.62252 68.037535 
L 116.595852 68.095891 
L 116.317486 68.114924 
L 116.284211 68.194197 
L 116.015236 68.091655 
L 115.977153 68.192721 
L 115.947603 68.271142 
L 115.680371 67.999622 
L 115.642208 68.116472 
L 115.623355 68.174199 
L 115.297831 68.211177 
L 115.265743 68.324667 
L 114.912138 68.355876 
L 114.884566 68.473959 
L 114.525779 68.387604 
L 114.507182 68.491426 
L 114.482816 68.627454 
L 114.094078 68.529021 
L 114.081107 68.637464 
L 114.063607 68.783766 
L 113.644406 68.674496 
L 113.638214 68.787205 
L 113.631064 68.917374 
L 113.281122 68.734597 
L 113.28105 68.859309 
L 113.19625 68.974477 
L 112.954634 69.03792 
L 112.957206 69.088301 
L 112.959122 69.125824 
L 112.569822 69.202972 
L 112.571236 69.215275 
L 112.584531 69.330936 
L 112.327855 69.30186 
L 112.3448 69.409943 
L 112.347595 69.427768 
L 111.982669 69.251102 
L 112.010853 69.384045 
L 112.015911 69.407904 
L 111.745949 69.412326 
L 111.773279 69.518437 
L 111.786761 69.570781 
L 111.482001 69.573161 
L 111.515806 69.682083 
L 111.533341 69.738585 
L 111.195084 69.738594 
L 111.234292 69.844401 
L 111.260692 69.915645 
L 110.888686 69.913838 
L 110.936007 70.021687 
L 110.968573 70.095907 
L 110.571066 70.039814 
L 110.629981 70.155587 
L 110.66419 70.222809 
L 110.276831 70.24856 
L 110.339214 70.354786 
L 110.382978 70.429306 
L 109.967547 70.463634 
L 110.036361 70.565387 
L 110.094204 70.650919 
L 109.65114 70.697096 
L 109.730083 70.79856 
L 109.741383 70.943255 
L 109.20848 71.071987 
L 109.293076 71.161092 
L 109.364185 71.235991 
L 109.100926 71.379723 
L 109.13422 71.411436 
L 109.171359 71.44681 
L 108.788036 71.649629 
L 108.80149 71.660742 
L 108.89016 71.733982 
L 108.423133 71.809396 
L 108.547775 71.900507 
L 108.608891 71.945182 
L 108.342336 72.036468 
L 108.4546 72.112021 
L 108.469054 72.121748 
L 108.173451 72.2277 
L 108.294545 72.301962 
L 108.319409 72.31721 
L 107.996352 72.438806 
L 108.121647 72.508059 
L 108.157628 72.527947 
L 107.811023 72.666102 
L 107.940716 72.729962 
L 107.993842 72.756121 
L 107.626082 72.913022 
L 107.76568 72.973411 
L 107.831456 73.001865 
L 107.445144 73.180521 
L 107.589211 73.234302 
L 107.668329 73.263836 
L 107.26875 73.466878 
L 107.417174 73.513585 
L 107.491177 73.606076 
L 107.020552 74.010681 
L 107.119912 74.032072 
L 107.266002 74.063523 
L 107.072607 74.329577 
L 107.109742 74.33573 
L 107.20161 74.350952 
L 106.80037 74.597414 
L 106.972992 74.617676 
L 107.041993 74.625775 
L 106.874503 74.788025 
L 107.020159 74.800984 
L 106.830731 74.987934 
L 106.977381 74.996345 
L 106.996262 74.997428 
L 106.785337 75.208578 
L 106.933021 75.21197 
L 106.970991 75.212842 
L 106.739523 75.448159 
L 106.894638 75.446012 
L 106.939183 75.445395 
L 106.69041 75.703961 
L 106.84669 75.695745 
L 106.910707 75.692379 
L 106.647298 75.97506 
L 106.811073 75.959809 
L 106.888242 75.952622 
L 106.613697 76.261032 
L 106.778302 76.238717 
L 106.862284 76.227332 
L 106.584279 76.559852 
L 106.749611 76.530155 
L 106.867381 76.573897 
L 106.811574 76.767527 
L 106.895126 76.749308 
L 106.901508 76.747917 
L 106.622151 77.09838 
L 106.799523 77.051986 
L 106.870423 77.033442 
L 106.798482 77.331526 
L 106.843698 77.317751 
L 106.926835 77.292422 
L 106.836217 77.690026 
L 106.995326 77.632411 
L 106.857187 77.897505 
L 107.00951 77.837245 
L 107.040786 77.824871 
L 106.892672 78.118537 
L 107.050386 78.050337 
L 107.087654 78.034221 
L 106.934047 78.354886 
L 107.090739 78.280848 
L 107.146195 78.254644 
L 106.99167 78.602667 
L 107.146938 78.522509 
L 107.220099 78.484739 
L 107.002414 78.842139 
L 107.194045 78.735725 
L 107.2244 78.718868 
L 107.130297 79.086803 
L 107.26412 79.005618 
L 107.341824 78.958478 
L 107.969013 78.921137 
L 107.894262 79.310349 
L 107.346345 79.539027 
L 107.504416 79.427586 
L 108.109003 79.426871 
L 107.874136 79.413437 
L 107.453266 79.675692 
L 107.47072 79.662751 
L 107.373692 80.039126 
L 107.513761 79.928053 
L 107.622287 79.841993 
L 107.553344 80.242659 
L 107.683556 80.131531 
L 107.772388 80.05572 
L 108.364256 80.083756 
L 107.994273 80.56408 
L 108.21167 80.349834 
L 108.118324 80.752388 
L 108.265858 80.598112 
L 108.335564 80.525221 
L 108.908731 80.581641 
L 108.633757 80.691103 
L 108.643039 80.680442 
L 108.324727 80.943551 
L 108.485573 80.762136 
L 109.045519 80.847928 
L 108.790351 80.984735 
L 108.835019 80.928716 
L 108.600086 81.253287 
L 108.792554 81.01068 
L 108.735202 81.409094 
L 108.873914 81.224286 
L 108.983045 81.177453 
L 109.547358 81.282024 
L 109.343627 81.267884 
L 109.112128 81.609659 
L 109.291509 81.340404 
L 109.830233 81.478209 
L 109.62759 81.512056 
L 109.277467 81.858663 
L 109.484038 81.522918 
L 109.440222 81.937281 
L 109.561123 81.729964 
L 109.694736 81.820821 
L 109.719739 81.775715 
L 109.744567 81.730923 
L 109.816934 81.854417 
L 109.868477 81.757645 
L 110.429828 81.909669 
L 110.234616 82.174053 
L 110.371474 81.867452 
L 110.371474 81.867452 
L 110.400402 81.802646 
L 110.918005 81.994493 
L 110.761772 82.376009 
L 110.898835 81.993598 
L 110.898835 81.993598 
L 110.931918 81.901297 
L 110.931918 81.901297 
L 110.931918 81.901297 
L 110.843002 82.32821 
L 110.95482 82.008018 
L 111.499064 82.208143 
L 111.310243 82.488091 
L 111.402475 82.153752 
L 111.432248 82.045827 
L 111.956023 82.274712 
L 111.707895 82.40975 
L 111.738986 82.27004 
L 111.779984 82.085812 
L 111.779984 82.085812 
L 111.779984 82.085812 
L 111.736687 82.513854 
L 111.792674 82.253786 
L 112.029672 82.393753 
L 112.03092 82.386717 
L 112.054388 82.254361 
L 112.203562 82.419585 
L 112.224834 82.27968 
L 112.229037 82.252033 
L 112.410173 82.437943 
L 112.427352 82.297675 
L 112.431593 82.263044 
L 112.940406 82.109804 
L 112.945424 82.009228 
L 113.44577 82.257172 
L 113.197698 82.419089 
L 113.199196 82.286123 
L 113.202184 82.020985 
L 113.703721 82.290425 
L 113.494025 82.581618 
L 113.488671 82.40317 
L 113.477553 82.032622 
L 113.631085 82.242838 
L 113.620966 82.045938 
L 113.620623 82.03925 
L 113.809439 82.262633 
L 113.795256 82.078603 
L 113.794221 82.065167 
L 114.306222 82.045424 
L 114.289882 81.939218 
L 114.264868 81.776639 
L 114.264868 81.776639 
L 114.264868 81.776639 
L 114.227866 82.183238 
L 114.196993 81.961561 
L 114.720785 81.956986 
L 114.697861 81.852185 
L 114.639403 81.584933 
L 114.81021 81.823603 
L 114.758941 81.60735 
L 115.284303 81.631367 
L 115.248482 81.519395 
L 115.174945 81.289529 
L 115.174945 81.289529 
L 115.174945 81.289529 
L 115.336928 81.553238 
L 115.256128 81.310187 
L 115.784325 81.356173 
L 115.737118 81.243221 
L 115.635894 81.001028 
L 115.635894 81.001028 
L 115.635894 81.001028 
L 115.811893 81.269257 
L 115.712461 81.037346 
L 116.249855 81.089695 
L 116.190964 80.976137 
L 116.048793 80.701987 
L 116.582202 80.777396 
L 116.510252 80.659406 
L 116.346353 80.39063 
L 116.87923 80.480319 
L 116.790253 80.353777 
L 116.61216 80.100495 
L 117.14882 80.190791 
L 117.045636 80.061979 
L 116.840308 79.805654 
L 117.391255 79.878623 
L 117.277605 79.753731 
L 117.071008 79.526695 
L 117.333393 79.385043 
L 117.221342 79.273785 
L 117.43199 79.247033 
L 117.329359 79.150957 
L 117.309139 79.132028 
L 117.599447 79.07951 
L 117.49268 78.987572 
L 117.425737 78.929928 
L 117.731766 78.870736 
L 117.617385 78.780528 
L 117.539924 78.719438 
L 117.858854 78.649337 
L 117.74121 78.564815 
L 117.657154 78.504424 
L 117.985568 78.418371 
L 117.860083 78.336797 
L 117.773789 78.2807 
L 118.077595 78.128499 
L 118.072794 78.125728 
L 117.968393 78.065466 
L 118.15615 78.03217 
L 118.1221 78.013505 
L 118.142295 77.671637 
L 117.91882 77.565345 
L 118.146336 77.499852 
L 118.011827 77.440674 
L 118.299209 77.240455 
L 118.264161 77.227315 
L 118.224405 77.21241 
L 118.342495 76.903214 
L 118.237182 76.87108 
L 118.042606 76.811709 
L 118.338199 76.588818 
L 118.302879 76.580225 
L 118.232976 76.56322 
L 118.425592 76.455565 
L 118.338767 76.43705 
L 118.448686 76.111083 
L 118.341166 76.095419 
L 118.127929 76.064353 
L 118.333237 75.937135 
L 118.203412 75.922256 
L 118.396433 75.763501 
L 118.274976 75.753872 
L 118.381367 75.4082 
L 118.270249 75.4071 
L 118.074375 75.405161 
L 118.277651 75.224766 
L 118.129795 75.228695 
L 118.31314 75.013051 
L 118.183831 75.0219 
L 118.279291 74.654573 
L 118.160613 74.671254 
L 117.964349 74.698842 
L 118.148793 74.457182 
L 118.014216 74.482058 
L 118.104077 74.092248 
L 117.984844 74.123507 
L 117.795644 74.173109 
L 117.896322 73.758406 
L 117.773216 73.80103 
L 117.609826 73.8576 
L 117.798024 73.591681 
L 117.690764 73.633581 
L 117.641714 73.351351 
L 117.538163 73.398953 
L 117.420455 73.453063 
L 117.60595 73.163269 
L 117.4948 73.219616 
L 117.441526 72.91065 
L 117.342725 72.968708 
L 117.226463 73.037026 
L 117.326788 72.61052 
L 117.191352 72.702398 
L 117.083225 72.775751 
L 117.033221 72.440062 
L 116.933118 72.517822 
L 116.846379 72.5852 
L 116.949692 72.140886 
L 116.809156 72.263986 
L 116.72881 72.334364 
L 116.674984 71.975868 
L 116.577818 72.072579 
L 116.496287 72.153728 
L 116.445698 71.770282 
L 116.348936 71.879839 
L 116.276058 71.962354 
L 116.364475 71.507844 
L 116.216777 71.692028 
L 116.193343 71.721251 
L 116.113294 71.328898 
L 116.026684 71.451935 
L 115.958767 71.548415 
L 115.863759 71.140878 
L 115.782262 71.273744 
L 115.71794 71.37861 
L 115.602243 70.959073 
L 115.526734 71.101927 
L 115.471167 71.207054 
L 115.328959 70.953979 
L 115.272281 71.075632 
L 115.232758 71.160464 
L 115.098709 70.733233 
L 115.034272 70.896832 
L 114.999464 70.985206 
L 114.836491 70.716086 
L 114.790386 70.853333 
L 114.76041 70.942569 
L 114.576582 70.656703 
L 114.536902 70.800268 
L 114.510712 70.895023 
L 114.305111 70.5935 
L 114.273722 70.738995 
L 114.253981 70.830496 
L 114.014015 70.650051 
L 113.995097 70.770931 
L 113.97947 70.870787 
L 113.761386 70.551101 
L 113.744259 70.721143 
L 113.735925 70.803895 
L 113.491361 70.476268 
L 113.483787 70.648958 
L 113.480711 70.719096 
L 113.218882 70.525538 
L 113.220552 70.663725 
L 113.221843 70.770507 
L 112.937785 70.560346 
L 112.947823 70.702198 
L 112.954673 70.798991 
L 112.690475 70.470185 
L 112.715184 70.675993 
L 112.720223 70.71796 
L 112.408518 70.508821 
L 112.435049 70.656902 
L 112.453385 70.75924 
L 112.115422 70.545947 
L 112.152031 70.697559 
L 112.174323 70.789881 
L 111.926625 70.771527 
L 111.959989 70.884815 
L 111.979611 70.95144 
L 111.622489 70.72145 
L 111.682626 70.889938 
L 111.712653 70.974066 
L 111.327015 70.749025 
L 111.397891 70.916511 
L 111.425885 70.982664 
L 111.149896 70.958275 
L 111.204522 71.071241 
L 111.243552 71.151954 
L 110.936564 71.113633 
L 111.001227 71.230876 
L 111.030639 71.284203 
L 110.629164 71.05051 
L 110.750805 71.248359 
L 110.773452 71.285195 
L 110.438886 71.249761 
L 110.520057 71.367237 
L 110.569268 71.438458 
L 110.204865 71.394895 
L 110.298695 71.515916 
L 110.351856 71.584483 
L 109.958287 71.534156 
L 110.066079 71.658334 
L 110.117075 71.717081 
L 109.695087 71.506127 
L 109.849361 71.672001 
L 109.556334 71.781577 
L 109.644618 71.866424 
L 109.752032 71.969656 
L 109.338887 71.937574 
L 109.478215 72.058567 
L 109.531058 72.104455 
L 109.207225 72.213532 
L 109.311734 72.294265 
L 109.40582 72.366948 
L 108.969589 72.331231 
L 109.146852 72.45577 
L 109.196145 72.490402 
L 108.842697 72.601266 
L 108.965203 72.677412 
L 109.067511 72.741004 
L 108.61052 72.718365 
L 108.824887 72.839601 
L 108.851535 72.854672 
L 108.474933 72.977963 
L 108.616934 73.048329 
L 108.741141 73.109877 
L 108.335929 73.239606 
L 108.491626 73.306343 
L 108.61451 73.359016 
L 108.340295 73.584944 
L 108.45743 73.627003 
L 108.581192 73.671443 
L 108.11491 73.660114 
L 108.366805 73.742945 
L 108.067126 73.97953 
L 108.20091 74.014917 
L 108.375595 74.061123 
L 108.04469 74.303711 
L 108.189241 74.332827 
L 108.344627 74.364125 
L 107.928321 74.502905 
L 108.163803 74.540535 
L 108.224829 74.550287 
L 107.877777 74.809001 
L 108.037435 74.825225 
L 108.207611 74.842517 
L 107.840044 75.115293 
L 108.011365 75.12293 
L 108.182388 75.130553 
L 107.800542 75.422001 
L 107.983711 75.419849 
L 108.135095 75.418071 
L 107.909595 75.704915 
L 108.057878 75.695322 
L 108.227391 75.684356 
L 107.980567 75.989513 
L 108.137186 75.97083 
L 108.299144 75.95151 
L 108.033813 76.276077 
L 108.199029 76.247139 
L 108.354116 76.219975 
L 108.076996 76.566004 
L 108.250919 76.525592 
L 108.404421 76.489924 
L 108.124921 76.860833 
L 108.302221 76.809106 
L 108.454157 76.76478 
L 108.184364 77.163502 
L 108.359619 77.101361 
L 108.485892 77.056587 
L 108.409713 77.40533 
L 108.5347 77.352751 
L 108.711624 77.278324 
L 108.631161 77.654978 
L 108.754989 77.59375 
L 109.080528 77.428714 
L 108.993902 77.821045 
L 109.120557 77.748205 
L 109.263596 77.665943 
L 109.179052 78.0803 
L 109.308182 77.994512 
L 109.437088 77.908874 
L 109.975162 78.083142 
L 109.714063 78.664756 
L 109.815963 78.570181 
L 109.938414 78.456532 
L 110.462479 78.657674 
L 110.118008 78.813769 
L 110.272162 78.645131 
L 110.191512 79.06588 
L 110.3362 78.892005 
L 110.382906 78.835878 
L 110.932527 79.011636 
L 110.573534 79.284757 
L 110.746303 79.033816 
L 111.29006 79.214715 
L 110.921169 79.501558 
L 111.06288 79.252318 
L 111.065095 79.248423 
L 111.202735 79.445575 
L 111.258025 79.336624 
L 111.284118 79.285207 
L 111.790313 79.551811 
L 111.827044 79.448206 
L 111.851502 79.379221 
L 111.577167 79.784943 
L 111.671409 79.539526 
L 111.823251 79.755665 
L 111.866246 79.62562 
L 111.887263 79.562047 
L 112.056142 79.799811 
L 112.093435 79.664151 
L 112.111068 79.600004 
L 112.299586 79.858473 
L 112.330392 79.716657 
L 112.345429 79.647434 
L 112.877877 79.918841 
L 112.888132 79.801721 
L 112.904892 79.610329 
L 113.405843 79.913025 
L 113.402166 79.782753 
L 113.398352 79.647613 
L 113.398352 79.647613 
L 113.398352 79.647613 
L 113.312851 80.069754 
L 113.310511 79.759834 
L 113.52125 80.018867 
L 113.511445 79.83153 
L 113.510509 79.813662 
L 114.053658 79.871808 
L 114.03448 79.760299 
L 114.002594 79.574907 
L 114.527118 79.878401 
L 114.485318 79.727205 
L 114.425223 79.50984 
L 114.634676 79.789694 
L 114.565861 79.565009 
L 115.120061 79.64005 
L 115.069153 79.521748 
L 114.988555 79.334448 
L 114.988555 79.334448 
L 114.988555 79.334448 
L 115.220227 79.62256 
L 115.125422 79.414457 
L 115.695663 79.496842 
L 115.624153 79.37445 
L 115.509639 79.178454 
L 116.089834 79.27579 
L 115.99849 79.148539 
L 115.86571 78.963566 
L 116.455878 79.070839 
L 116.343428 78.939478 
L 116.1909 78.761298 
L 116.794565 78.867668 
L 116.659965 78.733347 
L 116.488476 78.562214 
L 117.110559 78.65204 
L 116.956498 78.519637 
L 116.826337 78.407776 
L 117.149064 78.338229 
L 117.034579 78.250096 
L 116.95646 78.189959 
L 117.301635 78.116998 
L 117.178733 78.03273 
L 117.097617 77.977112 
L 117.464597 77.900846 
L 117.328603 77.81825 
L 117.244371 77.767092 
L 117.631992 77.684896 
L 117.48214 77.604812 
L 117.394715 77.558091 
L 117.801124 77.46491 
L 117.641083 77.390362 
L 117.550354 77.3481 
L 117.97167 77.237394 
L 117.801067 77.169081 
L 117.720328 77.136752 
L 117.955979 77.05815 
L 117.79046 76.997992 
L 117.781438 76.994713 
L 118.037908 76.897378 
L 117.869491 76.842907 
L 117.855728 76.838456 
L 118.129541 76.719717 
L 117.962568 76.672847 
L 117.934526 76.664975 
L 118.221914 76.521903 
L 118.056541 76.482965 
L 118.013699 76.472878 
L 118.310658 76.302371 
L 118.147186 76.27169 
L 118.098706 76.262591 
L 118.296606 76.069651 
L 118.157946 76.049982 
L 118.066043 76.036946 
L 118.373891 75.842577 
L 118.193588 75.825422 
L 118.164163 75.822622 
L 118.372927 75.603846 
L 118.227203 75.596805 
L 118.133996 75.592302 
L 118.355963 75.348385 
L 118.205791 75.34866 
L 118.112987 75.348829 
L 118.347756 75.080941 
L 118.192907 75.089392 
L 118.100345 75.094444 
L 118.345227 74.803412 
L 118.185541 74.820876 
L 118.088303 74.831511 
L 118.339307 74.516907 
L 118.179807 74.543398 
L 118.077877 74.560328 
L 118.18379 74.15291 
L 118.062588 74.18267 
L 117.851919 74.234398 
L 118.163888 74.032863 
L 117.986301 74.081009 
L 118.099231 73.652859 
L 117.975415 73.696634 
L 117.755123 73.774518 
L 118.006183 73.444774 
L 117.807053 73.525324 
L 117.779942 73.536291 
L 117.894379 73.088612 
L 117.766831 73.151295 
L 117.56489 73.250538 
L 117.685483 72.782723 
L 117.550859 72.861361 
L 117.366808 72.968869 
L 117.488709 72.481061 
L 117.351933 72.574486 
L 117.180352 72.691683 
L 117.294207 72.184177 
L 117.155978 72.293381 
L 117.018761 72.401787 
L 116.937507 72.011052 
L 116.843521 72.096985 
L 116.700192 72.228034 
L 116.808497 71.708823 
L 116.666575 71.855472 
L 116.572945 71.952221 
L 116.485112 71.542702 
L 116.396494 71.648092 
L 116.280131 71.786479 
L 116.18733 71.358457 
L 116.101282 71.47671 
L 115.995932 71.62149 
L 115.895594 71.176703 
L 115.813093 71.308441 
L 115.723383 71.45169 
L 115.609637 70.994424 
L 115.531631 71.140353 
L 115.458416 71.27732 
L 115.241927 70.965528 
L 115.189565 71.082587 
L 115.121914 71.233827 
L 114.99652 70.765837 
L 114.930728 70.941558 
L 114.891498 71.046335 
L 114.661009 70.721831 
L 114.621438 70.854405 
L 114.575183 71.009369 
L 114.330478 70.670559 
L 114.298313 70.813701 
L 114.265153 70.961277 
L 114.004372 70.61053 
L 113.980758 70.764705 
L 113.958592 70.909424 
L 113.677549 70.55124 
L 113.664162 70.71199 
L 113.653098 70.844846 
L 113.294237 70.6246 
L 113.293785 70.750745 
L 113.293137 70.931474 
L 112.997652 70.564656 
L 113.008622 70.752685 
L 113.014471 70.852938 
L 112.637174 70.624896 
L 112.656101 70.764839 
L 112.678676 70.93175 
L 112.283529 70.694443 
L 112.314841 70.841376 
L 112.348889 71.001149 
L 111.935349 70.757316 
L 111.980229 70.911175 
L 112.024863 71.064185 
L 111.590949 70.819954 
L 111.650607 70.980485 
L 111.701861 71.118405 
L 111.300372 71.085504 
L 111.35306 71.199366 
L 111.415554 71.334416 
L 110.968203 71.082675 
L 111.065436 71.262692 
L 111.117914 71.359849 
L 110.69588 71.322335 
L 110.769701 71.437736 
L 110.855991 71.572627 
L 110.412923 71.525705 
L 110.503176 71.646446 
L 110.590585 71.763383 
L 110.127168 71.521319 
L 110.304763 71.737603 
L 110.316635 71.752061 
L 109.944111 71.891905 
L 110.026447 71.977517 
L 110.128877 72.084022 
L 109.669455 72.037128 
L 109.804046 72.161002 
L 109.899995 72.249311 
L 109.42041 72.208907 
L 109.571714 72.332432 
L 109.66325 72.407162 
L 109.269393 72.546729 
L 109.380112 72.624382 
L 109.506682 72.713152 
L 109.010605 72.675591 
L 109.210665 72.801351 
L 109.279247 72.844462 
L 108.866577 72.990611 
L 108.996998 73.060602 
L 109.144288 73.139648 
L 108.709336 73.287436 
L 108.853266 73.352666 
L 109.005503 73.421662 
L 108.549275 73.573742 
L 108.711972 73.63513 
L 108.864659 73.69274 
L 108.38996 73.855452 
L 108.567574 73.910045 
L 108.706835 73.95285 
L 108.34434 74.228688 
L 108.480614 74.259876 
L 108.682597 74.306103 
L 108.195484 74.477021 
L 108.419205 74.51579 
L 108.520211 74.533294 
L 108.141596 74.818876 
L 108.303415 74.835853 
L 108.503318 74.856825 
L 108.109272 75.15377 
L 108.282116 75.160589 
L 108.482874 75.16851 
L 108.078192 75.481536 
L 108.26212 75.477154 
L 108.44438 75.472812 
L 108.175092 75.85645 
L 108.316041 75.842671 
L 108.548669 75.81993 
L 108.26438 76.217297 
L 108.417471 76.191044 
L 108.631419 76.154355 
L 108.226501 76.483373 
L 108.468142 76.429517 
L 108.563416 76.408282 
L 108.286252 76.825984 
L 108.448348 76.778296 
L 108.633142 76.723932 
L 108.550817 77.139514 
L 108.672181 77.09376 
L 108.883716 77.014013 
L 108.605939 77.448842 
L 108.789195 77.366806 
L 108.926258 77.305448 
L 108.847082 77.740357 
L 108.969467 77.674535 
L 109.163232 77.570322 
L 109.085297 78.026388 
L 109.209249 77.947477 
L 109.37665 77.840905 
L 109.887493 78.119018 
L 109.523418 78.467912 
L 109.853521 78.194407 
L 109.57738 78.640429 
L 109.796434 78.446072 
L 110.374038 78.661383 
L 110.417283 78.612173 
L 110.417283 78.612173 
L 110.417283 78.612173 
L 110.016183 78.961232 
L 110.209258 78.747881 
L 110.765793 78.979496 
L 110.815548 78.907744 
L 110.411604 79.272608 
L 110.573163 79.051894 
L 111.069878 79.387393 
L 111.122251 79.291784 
L 111.188064 79.171638 
L 111.093645 79.628291 
L 111.26564 79.291912 
L 111.74803 79.648093 
L 111.785805 79.54211 
L 111.829907 79.41838 
L 111.829907 79.41838 
L 111.829907 79.41838 
L 111.72556 79.888234 
L 111.849211 79.527207 
L 112.048704 79.794759 
L 112.086224 79.659253 
L 112.114483 79.557193 
L 112.603524 79.923511 
L 112.621481 79.801822 
L 112.652231 79.59344 
L 112.652231 79.59344 
L 112.652231 79.59344 
L 112.573172 80.077272 
L 112.613532 79.80674 
L 113.206228 79.905636 
L 113.207983 79.793291 
L 113.210901 79.60651 
L 113.684838 79.989035 
L 113.671601 79.83862 
L 113.650489 79.598706 
L 113.650489 79.598706 
L 113.650489 79.598706 
L 113.588255 80.092207 
L 113.574862 79.888304 
L 114.177814 79.993439 
L 114.155569 79.878925 
L 114.105224 79.619762 
L 114.317892 79.898476 
L 114.263162 79.659659 
L 114.875608 79.776773 
L 114.833009 79.658996 
L 114.743833 79.412439 
L 114.976387 79.7022 
L 114.887024 79.473706 
L 115.51486 79.591829 
L 115.448696 79.466629 
L 115.322181 79.227226 
L 115.958273 79.356929 
L 115.871201 79.227043 
L 115.72007 79.001599 
L 116.366505 79.136063 
L 116.257217 79.002395 
L 116.083595 78.790039 
L 116.744357 78.916314 
L 116.611679 78.780131 
L 116.439473 78.603378 
L 116.830532 78.517731 
L 116.728917 78.42736 
L 116.610141 78.321728 
L 117.026423 78.241176 
L 116.911926 78.153115 
L 116.793882 78.062326 
L 117.469157 78.179781 
L 117.24472 78.028683 
L 117.142845 77.960097 
L 117.571414 77.86216 
L 117.431952 77.78082 
L 117.301042 77.704469 
L 117.746804 77.59353 
L 117.597321 77.518752 
L 117.473777 77.45695 
L 117.770981 77.297727 
L 117.642472 77.242246 
L 117.530384 77.193854 
L 117.992408 77.071392 
L 117.811969 77.005811 
L 117.713246 76.96993 
L 118.028329 76.795558 
L 117.883234 76.751646 
L 117.778455 76.719935 
L 118.111686 76.530598 
L 117.954677 76.492504 
L 117.848272 76.466688 
L 118.197706 76.261118 
L 118.033142 76.230902 
L 117.924952 76.211037 
L 118.286283 75.986607 
L 118.113915 75.964964 
L 117.999161 75.950555 
L 118.367193 75.702849 
L 118.187127 75.690638 
L 118.085045 75.683715 
L 118.324002 75.40015 
L 118.184585 75.398976 
L 118.029961 75.397675 
L 118.283531 75.095531 
L 118.135501 75.103282 
L 117.987133 75.111051 
L 118.255522 74.791873 
L 118.098663 74.809701 
L 117.956099 74.825903 
L 118.235877 74.489565 
L 118.070037 74.518599 
L 117.932975 74.542594 
L 118.217535 74.187718 
L 118.042763 74.229108 
L 117.911115 74.260284 
L 118.191296 73.884707 
L 118.017452 73.936816 
L 117.904987 73.970527 
L 118.020484 73.488448 
L 117.89869 73.536445 
L 117.638146 73.639121 
L 117.918264 73.250029 
L 117.71839 73.340799 
L 117.656616 73.368852 
L 117.769996 72.873004 
L 117.641515 72.94406 
L 117.411984 73.071 
L 117.524402 72.560292 
L 117.394697 72.645722 
L 117.185961 72.783206 
L 117.29203 72.257443 
L 117.161641 72.35813 
L 116.979506 72.498775 
L 116.875045 72.051691 
L 116.782663 72.13658 
L 116.621643 72.284541 
L 116.726309 71.747949 
L 116.58438 71.89649 
L 116.467384 72.018937 
L 116.356017 71.557616 
L 116.267972 71.666289 
L 116.130594 71.835852 
L 116.014158 71.359585 
L 115.930575 71.481685 
L 115.811229 71.656026 
L 115.686372 71.166451 
L 115.608131 71.302571 
L 115.507747 71.477212 
L 115.367015 70.978519 
L 115.295104 71.129212 
L 115.221773 71.282881 
L 114.956048 70.931464 
L 114.909671 71.053739 
L 114.836246 71.24733 
L 114.561903 70.879415 
L 114.523917 71.011833 
L 114.471422 71.194833 
L 114.189574 70.809549 
L 114.160828 70.952855 
L 114.12447 71.134115 
L 113.831773 70.734136 
L 113.812692 70.893239 
L 113.791687 71.068377 
L 113.481525 70.659591 
L 113.474102 70.830328 
L 113.466759 70.999222 
L 113.038252 70.752024 
L 113.045088 70.883735 
L 113.055531 71.084972 
L 112.731359 70.669306 
L 112.755915 70.880188 
L 112.769302 70.995159 
L 112.324395 70.740242 
L 112.353496 70.881256 
L 112.395047 71.082605 
L 111.933763 70.820189 
L 111.978697 70.971944 
L 112.035865 71.165022 
L 111.555852 70.900086 
L 111.616751 71.057782 
L 111.683488 71.230597 
L 111.215307 71.186566 
L 111.272269 71.301794 
L 111.352851 71.464802 
L 110.860728 71.193632 
L 110.967114 71.376949 
L 111.037665 71.498518 
L 110.550981 71.451098 
L 110.634241 71.570403 
L 110.745537 71.729881 
L 110.239347 71.675867 
L 110.338011 71.795442 
L 110.456142 71.93861 
L 109.93127 71.880676 
L 110.049642 72.003682 
L 110.173157 72.132032 
L 109.630449 72.077523 
L 109.770005 72.203048 
L 109.894082 72.314649 
L 109.441343 72.467172 
L 109.547312 72.547023 
L 109.700801 72.662682 
L 109.143886 72.604715 
L 109.341637 72.736422 
L 109.442694 72.803729 
L 108.970802 72.957136 
L 109.10232 73.030447 
L 109.282123 73.130674 
L 108.789259 73.282697 
L 108.939361 73.352094 
L 109.117867 73.434624 
L 108.605823 73.588355 
L 108.775592 73.652654 
L 108.956517 73.72118 
L 108.42875 73.884546 
L 108.614293 73.94092 
L 108.788248 73.993772 
L 108.386958 74.33284 
L 108.522055 74.361151 
L 108.763124 74.411671 
L 108.223547 74.581697 
L 108.470141 74.61956 
L 108.588888 74.637793 
L 108.174378 74.985324 
L 108.330217 74.996695 
L 108.581013 75.014995 
L 108.15347 75.371677 
L 108.324835 75.371209 
L 108.571197 75.370535 
L 108.13596 75.741281 
L 108.322804 75.72734 
L 108.54092 75.711065 
L 108.259223 76.140448 
L 108.402728 76.118062 
L 108.654474 76.078792 
L 108.361828 76.520725 
L 108.516708 76.484078 
L 108.753525 76.428044 
L 108.453849 76.883692 
L 108.61983 76.831179 
L 108.838213 76.762087 
L 108.54124 77.233964 
L 108.713355 77.165776 
L 108.901162 77.091372 
L 108.82171 77.570528 
L 108.94046 77.511551 
L 109.180862 77.392155 
L 109.095249 77.888289 
L 109.218908 77.813461 
L 109.42465 77.688963 
L 109.13566 78.176437 
L 109.349555 78.030861 
L 109.415794 77.985778 
L 109.986416 78.267906 
L 110.035435 78.224557 
L 110.035435 78.224557 
L 110.035435 78.224557 
L 109.598161 78.59377 
L 109.870951 78.353826 
L 110.418955 78.646879 
L 110.46153 78.597884 
L 110.46153 78.597884 
L 110.46153 78.597884 
L 110.015673 78.976937 
L 110.251459 78.715295 
L 110.72373 79.10784 
L 110.784316 79.018864 
L 110.872509 78.889341 
L 110.872509 78.889341 
L 110.872509 78.889341 
L 110.570081 79.374489 
L 110.760757 79.091572 
L 110.986469 79.38247 
L 111.045291 79.279123 
L 111.124252 79.140393 
L 111.055579 79.643102 
L 111.187116 79.389381 
L 111.432911 79.691496 
L 111.482067 79.575991 
L 111.550766 79.414564 
L 111.812045 79.734882 
L 111.852522 79.613961 
L 111.9043 79.45928 
L 112.390407 79.857785 
L 112.414044 79.737848 
L 112.464339 79.482643 
L 112.938114 79.901581 
L 112.948472 79.762812 
L 112.967319 79.510304 
L 113.428162 79.94772 
L 113.42297 79.789769 
L 113.414481 79.531538 
L 113.414481 79.531538 
L 113.414481 79.531538 
L 113.353372 80.043228 
L 113.349804 79.823526 
L 113.997438 79.946162 
L 113.979648 79.832816 
L 113.934109 79.542665 
L 114.200428 79.867207 
L 114.152752 79.634311 
L 114.14317 79.587503 
L 114.799817 79.7222 
L 114.757757 79.601629 
L 114.66732 79.342382 
L 114.949553 79.67747 
L 114.84583 79.409534 
L 115.515209 79.548006 
L 115.449035 79.424102 
L 115.306196 79.156647 
L 115.983744 79.306444 
L 115.893226 79.174377 
L 115.726067 78.930489 
L 116.412992 79.084342 
L 116.296013 78.945317 
L 116.103115 78.716066 
L 116.804516 78.859921 
L 116.662754 78.719164 
L 116.4847 78.542371 
L 116.927935 78.439617 
L 116.823535 78.351481 
L 116.670808 78.222546 
L 117.136994 78.123667 
L 117.015379 78.036513 
L 116.865142 77.928849 
L 117.355432 77.835579 
L 117.215097 77.75031 
L 117.068195 77.661052 
L 117.580641 77.56973 
L 117.420102 77.487208 
L 117.273541 77.411871 
L 117.804308 77.314431 
L 117.622364 77.235788 
L 117.472843 77.171159 
L 118.017187 77.055999 
L 117.822138 76.986112 
L 117.687751 76.93796 
L 118.03881 76.728633 
L 117.893395 76.686764 
L 117.743476 76.643598 
L 118.116057 76.424497 
L 117.958906 76.389849 
L 117.811393 76.357326 
L 118.203399 76.127538 
L 118.033884 76.101046 
L 117.88862 76.078343 
L 118.294945 75.834259 
L 118.112595 75.816939 
L 117.969619 75.803359 
L 118.382581 75.539457 
L 118.187211 75.532501 
L 118.056352 75.527841 
L 118.333561 75.176072 
L 118.188963 75.181265 
L 117.982136 75.188693 
L 118.273514 74.822268 
L 118.120932 74.838618 
L 117.921613 74.859978 
L 118.226062 74.479194 
L 118.06055 74.508575 
L 117.877504 74.541068 
L 118.188745 74.14463 
L 118.014992 74.187544 
L 117.842815 74.230068 
L 118.150521 73.815867 
L 117.973419 73.871898 
L 117.816357 73.92159 
L 117.927541 73.400387 
L 117.803602 73.452552 
L 117.53136 73.567138 
L 117.836672 73.138483 
L 117.631591 73.238302 
L 117.541059 73.282367 
L 117.647859 72.748324 
L 117.522871 72.822945 
L 117.279508 72.968238 
L 117.381715 72.420463 
L 117.252388 72.513011 
L 117.035795 72.668009 
L 116.91371 72.181368 
L 116.820335 72.262928 
L 116.637353 72.422756 
L 116.744031 71.863047 
L 116.6047 72.003497 
L 116.461397 72.147952 
L 116.336565 71.647156 
L 116.249077 71.753267 
L 116.089964 71.94625 
L 115.964713 71.429616 
L 115.88264 71.549577 
L 115.750559 71.742631 
L 115.620903 71.212822 
L 115.542521 71.351446 
L 115.43199 71.546927 
L 115.288482 71.007955 
L 115.217332 71.161835 
L 115.131923 71.346553 
L 114.831649 70.947999 
L 114.788709 71.069817 
L 114.709217 71.29533 
L 114.40265 70.880529 
L 114.368281 71.017258 
L 114.314009 71.233174 
L 114.154493 70.689104 
L 114.110022 70.925781 
L 114.092708 71.017925 
L 113.619084 70.751722 
L 113.610307 70.869992 
L 113.592476 71.110266 
L 113.274149 70.688554 
L 113.274271 70.871722 
L 113.274395 71.05632 
L 112.93237 70.633739 
L 112.946232 70.823596 
L 112.956663 70.96646 
L 112.467337 70.699172 
L 112.491286 70.83692 
L 112.533368 71.078964 
L 112.028169 70.807559 
L 112.068737 70.955335 
L 112.130005 71.178515 
L 111.608262 70.906249 
L 111.665695 71.059429 
L 111.739723 71.256869 
L 111.210397 71.201281 
L 111.267495 71.316102 
L 111.369382 71.520993 
L 110.837448 71.241434 
L 110.944859 71.422647 
L 111.027373 71.561856 
L 110.482477 71.504453 
L 110.567828 71.622128 
L 110.702611 71.807955 
L 110.14139 71.746182 
L 110.24627 71.866968 
L 110.39128 72.03397 
L 109.813582 71.971817 
L 109.939458 72.094865 
L 110.089593 72.241626 
L 109.496628 72.188342 
L 109.644942 72.312674 
L 109.783944 72.4292 
L 109.270022 72.589817 
L 109.38462 72.668971 
L 109.593036 72.812927 
L 109.059551 72.96988 
L 109.192447 73.045116 
L 109.387874 73.155754 
L 108.784956 73.103864 
L 109.050926 73.237301 
L 109.122202 73.27306 
L 108.579968 73.446439 
L 108.737069 73.51036 
L 108.945623 73.595216 
L 108.50581 73.966878 
L 108.632978 74.003945 
L 108.899194 74.081542 
L 108.34157 74.252904 
L 108.558859 74.30154 
L 108.739424 74.341956 
L 108.285879 74.718809 
L 108.43347 74.737699 
L 108.72025 74.774405 
L 108.25015 75.154611 
L 108.418282 75.161402 
L 108.68763 75.172282 
L 108.205625 75.558963 
L 108.389937 75.551648 
L 108.656235 75.541078 
L 108.171319 75.942452 
L 108.371624 75.919511 
L 108.606322 75.892631 
L 108.308132 76.367845 
L 108.455065 76.337975 
L 108.736024 76.280858 
L 108.429614 76.767827 
L 108.587053 76.722029 
L 108.842611 76.647688 
L 108.533796 77.147584 
L 108.701606 77.084262 
L 108.937917 76.995092 
L 108.867796 77.506851 
L 108.985317 77.449571 
L 109.223232 77.333611 
L 108.913873 77.845828 
L 109.110139 77.733911 
L 109.269607 77.642976 
L 109.202841 78.168853 
L 109.323318 78.085729 
L 109.546232 77.931928 
L 109.483813 78.474194 
L 109.607015 78.372977 
L 109.786103 78.225847 
L 110.330796 78.560196 
L 110.394942 78.490475 
L 110.394942 78.490475 
L 110.394942 78.490475 
L 109.911489 78.889041 
L 110.161048 78.627204 
L 110.626905 79.058559 
L 110.689788 78.970751 
L 110.811113 78.801337 
L 110.811113 78.801337 
L 110.811113 78.801337 
L 110.501421 79.31787 
L 110.696933 79.038941 
L 110.966469 79.367128 
L 111.023551 79.268085 
L 111.120613 79.099674 
L 111.579525 79.545974 
L 111.62312 79.438428 
L 111.706978 79.231551 
L 111.634619 79.776815 
L 111.771555 79.408423 
L 112.050461 79.751952 
L 112.086736 79.622017 
L 112.133441 79.454728 
L 112.600314 79.909113 
L 112.620331 79.774531 
L 112.661694 79.496432 
L 113.122079 79.965723 
L 113.127119 79.816065 
L 113.136855 79.527 
L 113.418642 79.886596 
L 113.412825 79.700228 
L 113.408685 79.567609 
L 113.709295 79.937216 
L 113.690689 79.739988 
L 113.678867 79.614664 
L 114.360924 79.764599 
L 114.332043 79.647146 
L 114.267611 79.385118 
L 114.735858 79.858677 
L 114.660529 79.626222 
L 114.59831 79.434222 
L 115.285149 79.594979 
L 115.225778 79.469685 
L 115.090352 79.183889 
L 115.779162 79.361279 
L 115.695487 79.227378 
L 115.531922 78.965635 
L 116.224375 79.154616 
L 116.111595 79.009314 
L 115.925178 78.769141 
L 116.626821 78.956295 
L 116.485774 78.80476 
L 116.274747 78.57804 
L 116.993371 78.743682 
L 116.826221 78.591379 
L 116.669982 78.449018 
L 117.179498 78.343615 
L 117.064113 78.255324 
L 116.875735 78.111178 
L 117.400473 78.000527 
L 117.270556 77.917253 
L 117.079508 77.794797 
L 117.620045 77.678751 
L 117.470604 77.598879 
L 117.281988 77.498069 
L 117.835902 77.371342 
L 117.670234 77.298162 
L 117.48525 77.216449 
L 117.884051 76.975681 
L 117.752309 76.929409 
L 117.563868 76.863225 
L 118.128187 76.725687 
L 117.91463 76.665462 
L 117.773008 76.625522 
L 118.183433 76.370652 
L 118.028845 76.338734 
L 117.837877 76.299304 
L 118.259512 76.02945 
L 118.092881 76.006982 
L 117.908597 75.982134 
L 118.336463 75.694619 
L 118.157483 75.682699 
L 117.989548 75.671514 
L 118.294538 75.269081 
L 118.155935 75.271529 
L 117.899349 75.276059 
L 118.217362 74.861614 
L 118.066495 74.876763 
L 117.832808 74.900228 
L 118.267414 74.602822 
L 118.019177 74.640372 
L 117.943873 74.651763 
L 118.255967 74.220172 
L 118.094272 74.257115 
L 117.877604 74.306618 
L 117.985734 73.755953 
L 117.864832 73.797082 
L 117.575986 73.895341 
L 117.899198 73.453789 
L 117.704572 73.53396 
L 117.547947 73.598477 
L 117.659617 73.036155 
L 117.534293 73.102545 
L 117.266258 73.244534 
L 117.385137 72.669541 
L 117.255703 72.754241 
L 117.016415 72.910828 
L 117.136874 72.322562 
L 117.004059 72.427005 
L 116.790436 72.594993 
L 116.899824 71.993453 
L 116.764683 72.118956 
L 116.597838 72.273903 
L 116.458128 71.742847 
L 116.370256 71.842707 
L 116.181318 72.057422 
L 116.042741 71.511352 
L 115.958285 71.628817 
L 115.804606 71.842558 
L 115.666653 71.282288 
L 115.58674 71.418589 
L 115.460904 71.633219 
L 115.315756 71.062393 
L 115.241674 71.218491 
L 115.138359 71.436184 
L 114.815523 71.011934 
L 114.771533 71.136211 
L 114.691529 71.362232 
L 114.535352 70.783416 
L 114.477562 70.993534 
L 114.433941 71.152134 
L 114.098597 70.720297 
L 114.072718 70.866415 
L 114.030883 71.102626 
L 113.680313 70.663942 
L 113.666834 70.820924 
L 113.647455 71.046607 
L 113.131638 70.769269 
L 113.135661 70.896024 
L 113.143779 71.151771 
L 112.785152 70.70296 
L 112.806817 70.907879 
L 112.824368 71.07388 
L 112.295759 70.790703 
L 112.325734 70.930176 
L 112.381174 71.188138 
L 111.839912 70.897454 
L 111.887984 71.046625 
L 111.964997 71.285599 
L 111.409159 70.993063 
L 111.477049 71.15168 
L 111.568313 71.364906 
L 110.985961 71.305426 
L 111.051487 71.42131 
L 111.174869 71.639514 
L 110.609373 71.343709 
L 110.737011 71.535746 
L 110.829329 71.674641 
L 110.233472 71.615728 
L 110.329379 71.733633 
L 110.492789 71.934523 
L 109.882529 71.875997 
L 109.999348 71.995806 
L 110.174851 72.175803 
L 109.550041 72.124252 
L 109.689087 72.244876 
L 109.85391 72.387862 
L 109.306061 72.556461 
L 109.419629 72.636569 
L 109.640753 72.792545 
L 109.004468 72.745131 
L 109.208888 72.870121 
L 109.341019 72.95091 
L 108.781859 73.128104 
L 108.923504 73.198356 
L 109.16073 73.316011 
L 108.589191 73.501678 
L 108.750515 73.565545 
L 108.980003 73.656398 
L 108.499217 74.050209 
L 108.626562 74.085055 
L 108.923743 74.166375 
L 108.337248 74.349908 
L 108.55945 74.395237 
L 108.749062 74.433917 
L 108.256813 74.83216 
L 108.410135 74.848209 
L 108.725701 74.88124 
L 108.220143 75.28384 
L 108.394167 75.286381 
L 108.687868 75.290668 
L 108.175643 75.702176 
L 108.365962 75.689324 
L 108.652113 75.670001 
L 108.339741 76.17864 
L 108.480943 76.155162 
L 108.782934 76.104949 
L 108.271359 76.529188 
L 108.510853 76.47314 
L 108.706993 76.427238 
L 108.396904 76.948829 
L 108.555406 76.897153 
L 108.821613 76.81036 
L 108.753313 77.353346 
L 108.869477 77.302102 
L 109.142871 77.181498 
L 108.829517 77.713905 
L 109.016808 77.614686 
L 109.212513 77.511009 
L 109.146424 78.066851 
L 109.264556 77.989375 
L 109.513445 77.826143 
L 109.448237 78.3971 
L 109.568885 78.30133 
L 109.781454 78.132597 
L 110.240841 78.598851 
L 110.315848 78.518787 
L 110.374517 78.456161 
L 110.374517 78.456161 
L 110.374517 78.456161 
L 109.853037 78.872486 
L 110.138491 78.579481 
L 110.593198 79.059677 
L 110.6595 78.968229 
L 110.797178 78.778337 
L 110.797178 78.778337 
L 110.797178 78.778337 
L 110.482629 79.315848 
L 110.687251 79.026034 
L 110.979281 79.387478 
L 111.038288 79.284002 
L 111.145406 79.096157 
L 111.594258 79.588705 
L 111.639114 79.475939 
L 111.736102 79.232115 
L 111.668073 79.805157 
L 111.799266 79.442568 
L 112.102592 79.815195 
L 112.137326 79.68339 
L 112.190777 79.480561 
L 112.505951 79.868098 
L 112.530254 79.725979 
L 112.564569 79.525321 
L 112.894765 79.926167 
L 112.907927 79.768958 
L 112.924188 79.574756 
L 113.275901 79.983473 
L 113.275951 79.815363 
L 113.276006 79.631927 
L 113.980119 79.812574 
L 113.961386 79.693842 
L 113.920883 79.437117 
L 114.373492 79.934637 
L 114.320003 79.711307 
L 114.260233 79.461752 
L 114.969125 79.656398 
L 114.919099 79.529288 
L 114.806517 79.243235 
L 115.155527 79.655397 
L 115.016263 79.336739 
L 115.737706 79.527256 
L 115.657798 79.391838 
L 115.483498 79.09646 
L 116.215309 79.286655 
L 116.11137 79.147659 
L 115.906489 78.873675 
L 116.459705 78.754781 
L 116.371789 78.660935 
L 116.22669 78.506048 
L 116.96364 78.704266 
L 116.783766 78.540971 
L 116.586079 78.361504 
L 117.155307 78.242526 
L 117.036874 78.154424 
L 116.824918 77.99675 
L 117.413382 77.881552 
L 117.27505 77.79714 
L 117.064793 77.66884 
L 117.670473 77.554034 
L 117.506584 77.472098 
L 117.296194 77.366915 
L 117.915197 77.243094 
L 117.728797 77.167318 
L 117.520069 77.082465 
L 117.951903 76.805123 
L 117.813678 76.762323 
L 117.600971 76.69646 
L 118.227992 76.560573 
L 117.981716 76.500734 
L 117.838045 76.465825 
L 118.280881 76.17621 
L 118.123222 76.150418 
L 117.896 76.113247 
L 118.348795 75.809828 
L 118.174277 75.794268 
L 117.958691 75.775047 
L 118.41522 75.45392 
L 118.228498 75.450422 
L 118.039024 75.446873 
L 118.356992 75.013817 
L 118.216663 75.023316 
L 117.938193 75.042166 
L 118.264967 74.596656 
L 118.112646 74.619897 
L 117.853756 74.659398 
L 118.188322 74.201796 
L 118.024073 74.240454 
L 117.78343 74.297092 
L 118.118321 73.825299 
L 117.947059 73.87951 
L 117.719199 73.951635 
L 117.835484 73.36645 
L 117.713999 73.41952 
L 117.418045 73.548805 
L 117.75435 73.065332 
L 117.544424 73.172818 
L 117.405838 73.243776 
L 117.518633 72.64758 
L 117.39322 72.727715 
L 117.126358 72.898231 
L 117.234009 72.290425 
L 117.105505 72.390041 
L 116.875251 72.568532 
L 116.729031 72.000957 
L 116.640398 72.087149 
L 116.419201 72.302256 
L 116.527505 71.684569 
L 116.387527 71.842759 
L 116.244657 72.004216 
L 116.091776 71.427095 
L 116.008554 71.543318 
L 115.834025 71.787055 
L 115.674334 71.199484 
L 115.596483 71.334531 
L 115.456992 71.576507 
L 115.283485 70.982167 
L 115.214449 71.132735 
L 115.110731 71.358941 
L 114.760094 70.91662 
L 114.719131 71.039306 
L 114.6297 71.307152 
L 114.272058 70.851828 
L 114.241678 70.989434 
L 114.185488 71.243944 
L 113.820952 70.77567 
L 113.802769 70.928915 
L 113.773639 71.174413 
L 113.396687 70.698634 
L 113.392347 70.867952 
L 113.386186 71.108335 
L 112.835455 70.812981 
L 112.84809 70.942949 
L 112.874307 71.212627 
L 112.487719 70.730825 
L 112.525493 70.952183 
L 112.553539 71.116532 
L 111.990361 70.817727 
L 112.032157 70.965173 
L 112.107046 71.229365 
L 111.530736 70.928608 
L 111.592524 71.085295 
L 111.689096 71.330192 
L 111.067334 71.272916 
L 111.130533 71.38973 
L 111.257632 71.624654 
L 110.673015 71.316822 
L 110.795127 71.506293 
L 110.904401 71.675846 
L 110.2701 71.617255 
L 110.364853 71.735111 
L 110.540024 71.952994 
L 109.892791 71.892102 
L 110.012524 72.014704 
L 110.199663 72.206326 
L 109.539552 72.149995 
L 109.682587 72.272746 
L 109.868235 72.432068 
L 109.29119 72.612498 
L 109.405183 72.691003 
L 109.638075 72.851393 
L 108.967542 72.797923 
L 109.181932 72.925259 
L 109.33471 73.016001 
L 108.746798 73.203824 
L 108.889549 73.271689 
L 109.145194 73.393226 
L 108.545978 73.589041 
L 108.708789 73.649902 
L 108.957714 73.742953 
L 108.442784 74.157898 
L 108.576338 74.191042 
L 108.898687 74.271039 
L 108.287073 74.466777 
L 108.521059 74.50855 
L 108.716779 74.543492 
L 108.193791 74.964126 
L 108.353966 74.976526 
L 108.691563 75.002661 
L 108.160334 75.430155 
L 108.336416 75.42766 
L 108.661382 75.423057 
L 108.129664 75.863656 
L 108.326653 75.844293 
L 108.605756 75.816858 
L 108.292178 76.352591 
L 108.43474 76.324138 
L 108.762283 76.258767 
L 108.44311 76.804367 
L 108.595429 76.758783 
L 108.898982 76.66794 
L 108.578054 77.224505 
L 108.744298 77.158462 
L 109.012675 77.051845 
L 108.944002 77.623102 
L 109.059492 77.562724 
L 109.329008 77.421821 
L 109.007762 77.987872 
L 109.203882 77.867053 
L 109.390994 77.751784 
L 109.327156 78.334793 
L 109.44779 78.243873 
L 109.685314 78.064856 
L 110.134006 78.562745 
L 110.211651 78.483572 
L 110.305274 78.388109 
L 110.305274 78.388109 
L 110.305274 78.388109 
L 109.767823 78.822892 
L 110.047481 78.546758 
L 110.495039 79.055841 
L 110.56105 78.968099 
L 110.726974 78.747551 
L 110.652216 79.337329 
L 110.790277 79.128025 
L 110.897384 78.965647 
L 111.33579 79.48782 
L 111.387534 79.377744 
L 111.499417 79.139733 
L 111.424127 79.738235 
L 111.582006 79.365031 
L 111.588777 79.349026 
L 111.923275 79.750883 
L 111.961996 79.625248 
L 112.032418 79.396758 
L 112.477239 79.924888 
L 112.501671 79.785408 
L 112.556299 79.473548 
L 113.000122 80.011219 
L 113.009659 79.851084 
L 113.027511 79.551348 
L 113.367978 79.963765 
L 113.364507 79.787499 
L 113.360583 79.588245 
L 113.718005 80.005673 
L 113.699868 79.814406 
L 113.684511 79.652441 
L 114.412536 79.847332 
L 114.382279 79.727674 
L 114.297281 79.39153 
L 114.662788 79.818666 
L 114.580758 79.554551 
L 114.554935 79.471405 
L 115.290573 79.669279 
L 115.231042 79.541789 
L 115.080757 79.219944 
L 115.821003 79.42524 
L 115.735928 79.2892 
L 115.549079 78.990417 
L 116.296465 79.196872 
L 116.180927 79.049953 
L 115.965633 78.776186 
L 116.725894 78.968882 
L 116.583982 78.82028 
L 116.397558 78.625066 
L 117.002887 78.498987 
L 116.896343 78.409153 
L 116.658312 78.208453 
L 117.278356 78.083712 
L 117.152286 77.997817 
L 116.915577 77.83654 
L 117.551152 77.714849 
L 117.399954 77.631458 
L 117.163638 77.501122 
L 117.812339 77.376082 
L 117.638791 77.298841 
L 117.401143 77.193072 
L 118.057292 77.052736 
L 117.860593 76.982983 
L 117.645685 76.906774 
L 118.099759 76.601398 
L 117.957163 76.564622 
L 117.702168 76.498859 
L 118.171949 76.186507 
L 118.012982 76.159588 
L 117.772902 76.118934 
L 118.256787 75.799426 
L 118.080626 75.783798 
L 117.850823 75.763411 
L 118.34208 75.432232 
L 118.14826 75.429379 
L 117.924511 75.426085 
L 118.261269 74.95909 
L 118.118738 74.970488 
L 117.832097 74.993411 
L 118.325771 74.649718 
L 118.08424 74.683588 
L 117.937438 74.704174 
L 118.274603 74.224573 
L 118.117142 74.260275 
L 117.839716 74.323179 
L 118.173844 73.829041 
L 118.005346 73.881643 
L 117.774642 73.953665 
L 117.884393 73.343767 
L 117.766093 73.395479 
L 117.42911 73.542784 
L 117.763935 73.037144 
L 117.562125 73.141521 
L 117.410539 73.219922 
L 117.513252 72.600548 
L 117.387999 72.682074 
L 117.106121 72.865542 
L 117.201371 72.235699 
L 117.073927 72.337093 
L 116.838439 72.524444 
L 116.676616 71.935015 
L 116.589329 72.022901 
L 116.356051 72.257779 
L 116.45129 71.618944 
L 116.317634 71.776379 
L 116.169282 71.951125 
L 115.999201 71.353971 
L 115.918716 71.472357 
L 115.742518 71.731528 
L 115.564032 71.126086 
L 115.489764 71.263517 
L 115.350459 71.521297 
L 114.976708 71.047959 
L 114.929761 71.167016 
L 114.824167 71.434799 
L 114.643167 70.820016 
L 114.58565 71.011093 
L 114.520564 71.227315 
L 114.137115 70.747293 
L 114.110856 70.888091 
L 114.058372 71.169509 
L 113.66392 70.682693 
L 113.650988 70.839047 
L 113.628511 71.110825 
L 113.217007 70.623124 
L 113.219197 70.795186 
L 113.222197 71.030816 
L 112.643863 70.728002 
L 112.661977 70.860399 
L 112.704742 71.172971 
L 112.116893 70.86164 
L 112.153456 71.003305 
L 112.22632 71.285625 
L 111.629973 70.966338 
L 111.688249 71.121691 
L 111.786809 71.384427 
L 111.178411 71.065325 
L 111.260749 71.233713 
L 111.372531 71.462316 
L 110.715689 71.403224 
L 110.791432 71.520153 
L 110.954929 71.772552 
L 110.336472 71.456306 
L 110.48835 71.657792 
L 110.592392 71.795817 
L 109.925512 71.742812 
L 110.034368 71.860214 
L 110.238551 72.080424 
L 109.634212 72.271894 
L 109.731307 72.354136 
L 109.951246 72.54043 
L 109.273993 72.479264 
L 109.450234 72.605983 
L 109.655137 72.753311 
L 109.037524 72.942824 
L 109.167004 73.016572 
L 109.421944 73.161779 
L 108.734263 73.111298 
L 108.994673 73.240062 
L 109.117146 73.30062 
L 108.581716 73.735676 
L 108.702287 73.777325 
L 109.037263 73.893036 
L 108.40987 74.083644 
L 108.614833 74.137292 
L 108.864464 74.202632 
L 108.317262 74.638042 
L 108.463925 74.659321 
L 108.807419 74.709157 
L 108.173167 74.909892 
L 108.460924 74.935137 
L 108.617346 74.948859 
L 108.073978 75.398889 
L 108.248002 75.39751 
L 108.578784 75.394889 
L 108.257494 75.953705 
L 108.391281 75.937819 
L 108.749029 75.895341 
L 108.201735 76.352 
L 108.425181 76.308226 
L 108.680369 76.258232 
L 108.361983 76.828062 
L 108.512094 76.783157 
L 108.829958 76.688069 
L 108.757529 77.28389 
L 108.873586 77.23443 
L 109.171446 77.107488 
L 108.844823 77.684068 
L 109.022966 77.590568 
L 109.270838 77.460471 
L 109.196072 78.066916 
L 109.31675 77.986806 
L 109.588328 77.806523 
L 109.51013 78.425858 
L 109.632477 78.326211 
L 109.868792 78.133742 
L 109.795754 78.765935 
L 109.91892 78.645361 
L 110.111424 78.456907 
L 110.551952 78.987929 
L 110.619274 78.898254 
L 110.761585 78.708687 
L 110.761585 78.708687 
L 110.761585 78.708687 
L 110.430401 79.289475 
L 110.680746 78.943725 
L 111.122179 79.484261 
L 111.177517 79.3783 
L 111.329311 79.087643 
L 111.263623 79.721221 
L 111.407323 79.409826 
L 111.42779 79.365475 
L 111.788281 79.786496 
L 111.829415 79.664148 
L 111.917859 79.401082 
L 112.364518 79.947815 
L 112.392393 79.807635 
L 112.456362 79.485941 
L 112.822791 79.919156 
L 112.837992 79.766598 
L 112.861927 79.526367 
L 113.239338 79.97019 
L 113.240717 79.802563 
L 113.242639 79.56879 
L 113.639608 80.016186 
L 113.625394 79.833433 
L 113.609736 79.632113 
L 114.359344 79.835746 
L 114.330504 79.716396 
L 114.248517 79.377097 
L 114.648422 79.836089 
L 114.569827 79.579381 
L 114.532863 79.45865 
L 115.29014 79.666829 
L 115.228668 79.53523 
L 115.073167 79.202332 
L 115.835339 79.419514 
L 115.747313 79.27974 
L 115.555036 78.974432 
L 116.324165 79.193394 
L 116.207567 79.046608 
L 115.982167 78.762853 
L 116.76387 78.967508 
L 116.617053 78.815501 
L 116.422465 78.614034 
L 117.064231 78.482296 
L 116.955933 78.392939 
L 116.696834 78.179156 
L 117.352355 78.048736 
L 117.223953 77.963943 
L 116.964375 77.792525 
L 117.63414 77.664349 
L 117.480007 77.582745 
L 117.219332 77.444735 
L 117.900458 77.311124 
L 117.719091 77.23449 
L 117.460294 77.125139 
L 118.146443 76.972724 
L 117.941406 76.904716 
L 117.758433 76.844025 
L 117.758433 76.844025 
" style="fill:none;stroke:#2980b9;stroke-linecap:square;"/>
   </g>
   <g id="line2d_2">
    <path clip-path="url(#p1f6800d8c0)" d="M 113.277275 75.357667 
L 118.160795 75.353184 
L 118.160795 75.353184 
L 118.160795 75.353184 
L 118.048361 74.401194 
L 117.718263 73.49284 
L 117.18263 72.665975 
L 116.459765 71.957206 
L 115.579017 71.403699 
L 114.578905 71.036674 
L 113.5106 70.879616 
L 112.426034 70.943129 
L 111.383624 71.225264 
L 110.438967 71.709441 
L 109.640129 72.365997 
L 109.021402 73.158948 
L 108.606977 74.047401 
L 108.409999 74.992279 
L 108.436498 75.949539 
L 108.68384 76.879797 
L 109.14334 77.744409 
L 109.800047 78.505509 
L 110.628051 79.123833 
L 111.587188 79.563802 
L 112.637478 79.802198 
L 113.724034 79.822039 
L 114.788464 79.62079 
L 115.77386 79.210712 
L 116.633172 78.6146 
L 117.323785 77.867498 
L 117.81751 77.008842 
L 118.09671 76.081588 
L 118.154243 75.125477 
L 117.989282 74.179959 
L 117.609352 73.288169 
L 117.025533 72.483905 
L 116.259786 71.807716 
L 115.344014 71.295765 
L 114.319074 70.977697 
L 113.238117 70.87464 
L 112.1591 70.993597 
L 111.135458 71.328677 
L 110.225504 71.857676 
L 109.46705 72.553423 
L 108.896575 73.376303 
L 108.535795 74.284265 
L 108.395636 75.23315 
L 108.478185 76.187716 
L 108.779675 77.104413 
L 109.289169 77.945084 
L 109.989519 78.672655 
L 110.852554 79.249197 
L 111.840748 79.642489 
L 112.903688 79.827701 
L 113.989795 79.792864 
L 115.040617 79.538381 
L 116.000059 79.079357 
L 116.819144 78.444174 
L 117.462469 77.667895 
L 117.90457 76.790758 
L 118.131083 75.851474 
L 118.134598 74.89391 
L 117.916516 73.957504 
L 117.484306 73.081112 
L 116.855053 72.306263 
L 116.05149 71.668127 
L 115.107555 71.20127 
L 114.065754 70.933316 
L 112.980378 70.882789 
L 111.909706 71.053872 
L 110.91103 71.435918 
L 110.032143 72.007471 
L 109.316813 72.734709 
L 108.794539 73.579011 
L 108.484389 74.497938 
L 108.394833 75.451972 
L 108.528021 76.401702 
L 108.877877 77.303803 
L 109.434459 78.124179 
L 110.173405 78.818832 
L 111.066641 79.355209 
L 112.074942 79.70284 
L 113.151491 79.839351 
L 114.234269 79.753915 
L 115.269654 79.450762 
L 116.202461 78.947593 
L 116.985345 78.275037 
L 117.584889 77.469762 
L 117.977888 76.573142 
L 118.151846 75.628984 
L 118.103418 74.672447 
L 117.834815 73.747172 
L 117.355606 72.891624 
L 116.681605 72.143374 
L 115.839616 71.541176 
L 114.865992 71.118366 
L 113.810235 70.901274 
L 112.723467 70.903417 
L 111.664126 71.126148 
L 110.688812 71.556061 
L 109.844017 72.16941 
L 109.171504 72.9303 
L 108.698509 73.798736 
L 108.441634 74.731412 
L 108.407063 75.688455 
L 108.594679 76.630407 
L 108.998274 77.518224 
L 109.602118 78.309929 
L 110.384629 78.969745 
L 111.313004 79.462195 
L 112.345653 79.758505 
L 113.428909 79.838677 
L 114.504655 79.696934 
L 115.519618 79.340297 
L 116.416056 78.792196 
L 117.153884 78.084155 
L 117.702405 77.253999 
L 118.041229 76.343645 
L 118.160651 75.392372 
L 118.057286 74.439516 
L 117.73585 73.528548 
L 117.208111 72.697417 
L 116.492022 71.982874 
L 115.616578 71.422321 
L 114.619998 71.047284 
L 113.55323 70.881659 
L 112.468101 70.936466 
L 111.423044 71.210226 
L 110.473813 71.686805 
L 109.668754 72.336925 
L 109.042501 73.124881 
L 108.619631 74.009974 
L 108.413664 74.953236 
L 108.431047 75.910672 
L 108.669523 76.842879 
L 109.120772 77.711145 
L 109.76681 78.474265 
L 110.584139 79.097493 
L 111.538073 79.546894 
L 112.585513 79.795632 
L 113.671774 79.826187 
L 114.738498 79.635445 
L 115.728634 79.235107 
L 116.594872 78.647503 
L 117.294186 77.907254 
L 117.797929 77.053516 
L 118.087962 76.129068 
L 118.156678 75.17358 
L 118.00279 74.226489 
L 117.633316 73.331005 
L 117.058941 72.521031 
L 116.301149 71.83733 
L 115.39142 71.316379 
L 114.37502 70.989228 
L 113.295455 70.874527 
L 112.214991 70.981846 
L 111.187134 71.305869 
L 110.270478 71.825024 
L 109.503177 72.512548 
L 108.922218 73.329222 
L 108.54985 74.233233 
L 108.397565 75.180542 
L 108.4679 76.135932 
L 108.757645 77.055816 
L 109.256352 77.90192 
L 109.947349 78.636989 
L 110.80295 79.222794 
L 111.786047 79.62671 
L 112.846544 79.823366 
L 113.933023 79.800238 
L 114.987026 79.557099 
L 115.952273 79.108448 
L 116.779426 78.482137 
L 117.432634 77.712846 
L 117.885923 76.840534 
L 118.124433 75.903756 
L 118.140195 74.946296 
L 117.934103 74.007604 
L 117.513132 73.126614 
L 116.893832 72.345036 
L 116.098486 71.698283 
L 115.160587 71.221284 
L 114.122285 70.94212 
L 113.03763 70.879897 
L 111.964843 71.039428 
L 110.96135 71.410684 
L 110.075214 71.972725 
L 109.350632 72.692203 
L 108.817596 73.530817 
L 108.495715 74.446338 
L 108.393963 75.39934 
L 108.514995 76.350441 
L 108.85329 77.25625 
L 109.399342 78.082568 
L 110.129353 78.785139 
L 111.015667 79.331106 
L 112.019453 79.689581 
L 113.094181 79.837687 
L 114.177978 79.763927 
L 115.217168 79.471954 
L 116.156346 78.978874 
L 116.947778 78.314803 
L 117.557579 77.516046 
L 117.962019 76.623724 
L 118.14839 75.677034 
L 118.111157 74.720075 
L 117.853395 73.792204 
L 117.384224 72.931981 
L 116.719016 72.177128 
L 115.884122 71.566662 
L 114.915501 71.134276 
L 113.862345 70.906786 
L 112.775615 70.898213 
L 111.713728 71.110486 
L 110.733441 71.530756 
L 109.881518 72.13574 
L 109.200141 72.889956 
L 108.717013 73.753677 
L 108.44924 74.683766 
L 108.403474 75.640413 
L 108.580058 76.584161 
L 108.970936 77.471954 
L 109.564614 78.270113 
L 110.338632 78.938318 
L 111.260645 79.440741 
L 112.289433 79.748161 
L 113.371588 79.840002 
L 114.449074 79.709864 
L 115.468527 79.364191 
L 116.371914 78.825791 
L 117.118746 78.125751 
L 117.677847 77.301564 
L 117.988424 76.538264 
L 117.988424 76.538264 
" style="fill:none;stroke:#e74c3c;stroke-linecap:square;"/>
   </g>
   <g id="patch_3">
    <path d="M 42.954549 10.8 
L 183.6 10.8 
" style="fill:none;stroke:#000000;stroke-linecap:square;stroke-linejoin:miter;"/>
   </g>
   <g id="patch_4">
    <path d="M 183.6 139.915334 
L 183.6 10.8 
" style="fill:none;stroke:#000000;stroke-linecap:square;stroke-linejoin:miter;"/>
   </g>
   <g id="patch_5">
    <path d="M 42.954549 139.915334 
L 42.954549 10.8 
" style="fill:none;stroke:#000000;stroke-linecap:square;stroke-linejoin:miter;"/>
   </g>
   <g id="patch_6">
    <path d="M 42.954549 139.915334 
L 183.6 139.915334 
" style="fill:none;stroke:#000000;stroke-linecap:square;stroke-linejoin:miter;"/>
   </g>
   <g id="matplotlib.axis_1">
    <g id="xtick_1">
     <g id="line2d_3">
      <defs>
       <path d="M 0 0 
L 0 -4 
" id="ma6579d4097" style="stroke:#000000;stroke-width:0.5;"/>
      </defs>
      <g>
       <use style="stroke:#000000;stroke-width:0.5;" x="54.6750034559" xlink:href="#ma6579d4097" y="139.915334464"/>
      </g>
     </g>
     <g id="line2d_4">
      <defs>
       <path d="M 0 0 
L 0 4 
" id="m7af264c0bb" style="stroke:#000000;stroke-width:0.5;"/>
      </defs>
      <g>
       <use style="stroke:#000000;stroke-width:0.5;" x="54.6750034559" xlink:href="#m7af264c0bb" y="10.8"/>
      </g>
     </g>
     <g id="text_1">
      <!-- $-60$ -->
      <defs>
       <path d="M 42 31.640625 
C 42 37.75 41.90625 48.125 37.703125 56.109375 
C 34 63.109375 28.09375 65.59375 22.90625 65.59375 
C 18.09375 65.59375 12 63.40625 8.203125 56.203125 
C 4.203125 48.71875 3.796875 39.4375 3.796875 31.640625 
C 3.796875 25.953125 3.90625 17.28125 7 9.671875 
C 11.296875 -0.609375 19 -2 22.90625 -2 
C 27.5 -2 34.5 -0.109375 38.59375 9.375 
C 41.59375 16.28125 42 24.359375 42 31.640625 
M 22.90625 -0.40625 
C 16.5 -0.40625 12.703125 5.078125 11.296875 12.6875 
C 10.203125 18.5625 10.203125 27.15625 10.203125 32.75 
C 10.203125 40.4375 10.203125 46.828125 11.5 52.921875 
C 13.40625 61.390625 19 64 22.90625 64 
C 27 64 32.296875 61.296875 34.203125 53.125 
C 35.5 47.4375 35.59375 40.734375 35.59375 32.75 
C 35.59375 26.25 35.59375 18.265625 34.40625 12.375 
C 32.296875 1.484375 26.40625 -0.40625 22.90625 -0.40625 
" id="CMR17-48"/>
       <path d="M 65.90625 23 
C 67.59375 23 69.40625 23 69.40625 25 
C 69.40625 27 67.59375 27 65.90625 27 
L 11.796875 27 
C 10.09375 27 8.296875 27 8.296875 25 
C 8.296875 23 10.09375 23 11.796875 23 
z
" id="CMSY10-0"/>
       <path d="M 10.59375 34 
C 10.59375 57.65625 21.796875 63 28.296875 63 
C 30.40625 63 35.5 62.640625 37.5 59 
C 35.90625 59 32.90625 59 32.90625 55.515625 
C 32.90625 52.828125 35.09375 51.921875 36.5 51.921875 
C 37.40625 51.921875 40.09375 52.3125 40.09375 55.625 
C 40.09375 61.78125 35.09375 65.296875 28.203125 65.296875 
C 16.296875 65.296875 3.796875 52.96875 3.796875 31 
C 3.796875 3.953125 15.09375 -2 23.09375 -2 
C 32.796875 -2 42 6.671875 42 20.046875 
C 42 32.515625 33.90625 41.59375 23.703125 41.59375 
C 17.59375 41.59375 13.09375 37.609375 10.59375 30.625 
z
M 23.09375 0.390625 
C 10.796875 0.390625 10.796875 18.75 10.796875 22.4375 
C 10.796875 29.625 14.203125 40 23.5 40 
C 25.203125 40 30.09375 40 33.40625 33.125 
C 35.203125 29.21875 35.203125 25.140625 35.203125 20.140625 
C 35.203125 14.75 35.203125 10.78125 33.09375 6.78125 
C 30.90625 2.671875 27.703125 0.390625 23.09375 0.390625 
" id="CMR17-54"/>
      </defs>
      <g transform="translate(45.8192963419 151.013654727)scale(0.1 -0.1)">
       <use transform="scale(0.9962640099626402)" xlink:href="#CMSY10-0"/>
       <use transform="translate(77.4874676506071 0.0)scale(0.9962640099626402)" xlink:href="#CMR17-54"/>
       <use transform="translate(123.17794476766814 0.0)scale(0.9962640099626402)" xlink:href="#CMR17-48"/>
      </g>
     </g>
    </g>
    <g id="xtick_2">
     <g id="line2d_5">
      <g>
       <use style="stroke:#000000;stroke-width:0.5;" x="83.9761390341" xlink:href="#ma6579d4097" y="139.915334464"/>
      </g>
     </g>
     <g id="line2d_6">
      <g>
       <use style="stroke:#000000;stroke-width:0.5;" x="83.9761390341" xlink:href="#m7af264c0bb" y="10.8"/>
      </g>
     </g>
     <g id="text_2">
      <!-- $-30$ -->
      <defs>
       <path d="M 22.09375 33.703125 
C 31 33.703125 34.90625 25.96875 34.90625 17.03125 
C 34.90625 5 28.5 0.390625 22.703125 0.390625 
C 17.40625 0.390625 8.796875 3.03125 6.09375 10.828125 
C 6.59375 10.625 7.09375 10.625 7.59375 10.625 
C 10 10.625 11.796875 12.21875 11.796875 14.8125 
C 11.796875 17.703125 9.59375 19 7.59375 19 
C 5.90625 19 3.296875 18.203125 3.296875 14.46875 
C 3.296875 5.234375 12.296875 -2 22.90625 -2 
C 34 -2 42.5 6.71875 42.5 16.953125 
C 42.5 26.671875 34.5 33.6875 25 34.796875 
C 32.59375 36.375 39.90625 43.0625 39.90625 52.015625 
C 39.90625 59.6875 32 65.296875 23 65.296875 
C 13.90625 65.296875 5.90625 59.828125 5.90625 52.015625 
C 5.90625 48.59375 8.5 48 9.796875 48 
C 11.90625 48 13.703125 49.296875 13.703125 51.890625 
C 13.703125 54.46875 11.90625 55.765625 9.796875 55.765625 
C 9.40625 55.765625 8.90625 55.765625 8.5 55.5625 
C 11.40625 61.859375 19.296875 63 22.796875 63 
C 26.296875 63 32.90625 61.328125 32.90625 51.875 
C 32.90625 49.109375 32.5 44.1875 29.09375 39.84375 
C 26.09375 36 22.703125 36 19.40625 35.59375 
C 18.90625 35.59375 16.59375 35.59375 16.203125 35.59375 
C 15.5 35.484375 15.09375 35.390625 15.09375 34.59375 
C 15.09375 33.8125 15.203125 33.703125 17.203125 33.703125 
z
" id="CMR17-51"/>
      </defs>
      <g transform="translate(75.1204319201 151.013654727)scale(0.1 -0.1)">
       <use transform="scale(0.9962640099626402)" xlink:href="#CMSY10-0"/>
       <use transform="translate(77.4874676506071 0.0)scale(0.9962640099626402)" xlink:href="#CMR17-51"/>
       <use transform="translate(123.17794476766814 0.0)scale(0.9962640099626402)" xlink:href="#CMR17-48"/>
      </g>
     </g>
    </g>
    <g id="xtick_3">
     <g id="line2d_7">
      <g>
       <use style="stroke:#000000;stroke-width:0.5;" x="113.277274612" xlink:href="#ma6579d4097" y="139.915334464"/>
      </g>
     </g>
     <g id="line2d_8">
      <g>
       <use style="stroke:#000000;stroke-width:0.5;" x="113.277274612" xlink:href="#m7af264c0bb" y="10.8"/>
      </g>
     </g>
     <g id="text_3">
      <!-- $0$ -->
      <g transform="translate(110.786606986 151.013654727)scale(0.1 -0.1)">
       <use transform="scale(0.9962640099626402)" xlink:href="#CMR17-48"/>
      </g>
     </g>
    </g>
    <g id="xtick_4">
     <g id="line2d_9">
      <g>
       <use style="stroke:#000000;stroke-width:0.5;" x="142.578410191" xlink:href="#ma6579d4097" y="139.915334464"/>
      </g>
     </g>
     <g id="line2d_10">
      <g>
       <use style="stroke:#000000;stroke-width:0.5;" x="142.578410191" xlink:href="#m7af264c0bb" y="10.8"/>
      </g>
     </g>
     <g id="text_4">
      <!-- $30$ -->
      <g transform="translate(137.597074939 151.013654727)scale(0.1 -0.1)">
       <use transform="scale(0.9962640099626402)" xlink:href="#CMR17-51"/>
       <use transform="translate(45.69047711706103 0.0)scale(0.9962640099626402)" xlink:href="#CMR17-48"/>
      </g>
     </g>
    </g>
    <g id="xtick_5">
     <g id="line2d_11">
      <g>
       <use style="stroke:#000000;stroke-width:0.5;" x="171.879545769" xlink:href="#ma6579d4097" y="139.915334464"/>
      </g>
     </g>
     <g id="line2d_12">
      <g>
       <use style="stroke:#000000;stroke-width:0.5;" x="171.879545769" xlink:href="#m7af264c0bb" y="10.8"/>
      </g>
     </g>
     <g id="text_5">
      <!-- $60$ -->
      <g transform="translate(166.898210517 151.013654727)scale(0.1 -0.1)">
       <use transform="scale(0.9962640099626402)" xlink:href="#CMR17-54"/>
       <use transform="translate(45.69047711706103 0.0)scale(0.9962640099626402)" xlink:href="#CMR17-48"/>
      </g>
     </g>
    </g>
    <g id="text_6">
     <!-- $x_1$ -->
     <defs>
      <path d="M 47.40625 40.71875 
C 44.203125 40.109375 43 37.71875 43 35.828125 
C 43 33.421875 44.90625 32.625 46.296875 32.625 
C 49.296875 32.625 51.40625 35.21875 51.40625 37.921875 
C 51.40625 42.109375 46.59375 44 42.40625 44 
C 36.296875 44 32.90625 38.015625 32 36.125 
C 29.703125 44 23.5 44 21.703125 44 
C 11.5 44 6.09375 30.9375 6.09375 28.734375 
C 6.09375 28.34375 6.5 27.84375 7.203125 27.84375 
C 8 27.84375 8.203125 28.4375 8.40625 28.84375 
C 11.796875 39.921875 18.5 42.015625 21.40625 42.015625 
C 25.90625 42.015625 26.796875 37.8125 26.796875 35.421875 
C 26.796875 33.234375 26.203125 30.9375 25 26.140625 
L 21.59375 12.46875 
C 20.09375 6.484375 17.203125 1 11.90625 1 
C 11.40625 1 8.90625 1 6.796875 2.296875 
C 10.40625 3 11.203125 5.984375 11.203125 7.1875 
C 11.203125 9.1875 9.703125 10.375 7.796875 10.375 
C 5.40625 10.375 2.796875 8.28125 2.796875 5.09375 
C 2.796875 0.890625 7.5 -1 11.796875 -1 
C 16.59375 -1 20 2.796875 22.09375 6.890625 
C 23.703125 1 28.703125 -1 32.40625 -1 
C 42.59375 -1 48 12.078125 48 14.265625 
C 48 14.765625 47.59375 15.171875 47 15.171875 
C 46.09375 15.171875 46 14.671875 45.703125 13.875 
C 43 5.09375 37.203125 1 32.703125 1 
C 29.203125 1 27.296875 3.59375 27.296875 7.6875 
C 27.296875 9.875 27.703125 11.46875 29.296875 18.0625 
L 32.796875 31.625 
C 34.296875 37.625 37.703125 42.015625 42.296875 42.015625 
C 42.5 42.015625 45.296875 42.015625 47.40625 40.71875 
" id="CMMI12-120"/>
      <path d="M 26.59375 63.3125 
C 26.59375 65.40625 26.5 65.5 25.09375 65.5 
C 21.203125 61.1875 15.296875 59.796875 9.703125 59.796875 
C 9.40625 59.796875 8.90625 59.796875 8.796875 59.609375 
C 8.703125 59.390625 8.703125 59.171875 8.703125 57 
C 11.796875 57 17 57.59375 21 59.984375 
L 21 7.203125 
C 21 3.6875 20.796875 2.5 12.203125 2.5 
L 9.203125 2.5 
L 9.203125 0 
C 14 0 19 0 23.796875 0 
C 28.59375 0 33.59375 0 38.40625 0 
L 38.40625 2.5 
L 35.40625 2.5 
C 26.796875 2.5 26.59375 3.59375 26.59375 7.15625 
z
" id="CMR17-49"/>
     </defs>
     <g transform="translate(107.834139616 166.653625443)scale(0.12 -0.12)">
      <use transform="translate(0.0 14.943914544092467)scale(0.9962640099626402)" xlink:href="#CMMI12-120"/>
      <use transform="translate(55.43405953261208 0.0)scale(0.6973817666173724)" xlink:href="#CMR17-49"/>
     </g>
    </g>
   </g>
   <g id="matplotlib.axis_2">
    <g id="ytick_1">
     <g id="line2d_13">
      <defs>
       <path d="M 0 0 
L 4 0 
" id="m6115befbeb" style="stroke:#000000;stroke-width:0.5;"/>
      </defs>
      <g>
       <use style="stroke:#000000;stroke-width:0.5;" x="42.9545492246" xlink:href="#m6115befbeb" y="129.155723258"/>
      </g>
     </g>
     <g id="line2d_14">
      <defs>
       <path d="M 0 0 
L -4 0 
" id="me4c00d151f" style="stroke:#000000;stroke-width:0.5;"/>
      </defs>
      <g>
       <use style="stroke:#000000;stroke-width:0.5;" x="183.6" xlink:href="#me4c00d151f" y="129.155723258"/>
      </g>
     </g>
     <g id="text_7">
      <!-- $-60$ -->
      <g transform="translate(21.2431349967 131.643890191)scale(0.1 -0.1)">
       <use transform="scale(0.9962640099626402)" xlink:href="#CMSY10-0"/>
       <use transform="translate(77.4874676506071 0.0)scale(0.9962640099626402)" xlink:href="#CMR17-54"/>
       <use transform="translate(123.17794476766814 0.0)scale(0.9962640099626402)" xlink:href="#CMR17-48"/>
      </g>
     </g>
    </g>
    <g id="ytick_2">
     <g id="line2d_15">
      <g>
       <use style="stroke:#000000;stroke-width:0.5;" x="42.9545492246" xlink:href="#m6115befbeb" y="102.256695245"/>
      </g>
     </g>
     <g id="line2d_16">
      <g>
       <use style="stroke:#000000;stroke-width:0.5;" x="183.6" xlink:href="#me4c00d151f" y="102.256695245"/>
      </g>
     </g>
     <g id="text_8">
      <!-- $-30$ -->
      <g transform="translate(21.2431349967 104.744862178)scale(0.1 -0.1)">
       <use transform="scale(0.9962640099626402)" xlink:href="#CMSY10-0"/>
       <use transform="translate(77.4874676506071 0.0)scale(0.9962640099626402)" xlink:href="#CMR17-51"/>
       <use transform="translate(123.17794476766814 0.0)scale(0.9962640099626402)" xlink:href="#CMR17-48"/>
      </g>
     </g>
    </g>
    <g id="ytick_3">
     <g id="line2d_17">
      <g>
       <use style="stroke:#000000;stroke-width:0.5;" x="42.9545492246" xlink:href="#m6115befbeb" y="75.3576672318"/>
      </g>
     </g>
     <g id="line2d_18">
      <g>
       <use style="stroke:#000000;stroke-width:0.5;" x="183.6" xlink:href="#me4c00d151f" y="75.3576672318"/>
      </g>
     </g>
     <g id="text_9">
      <!-- $0$ -->
      <g transform="translate(33.973213973 77.8458341644)scale(0.1 -0.1)">
       <use transform="scale(0.9962640099626402)" xlink:href="#CMR17-48"/>
      </g>
     </g>
    </g>
    <g id="ytick_4">
     <g id="line2d_19">
      <g>
       <use style="stroke:#000000;stroke-width:0.5;" x="42.9545492246" xlink:href="#m6115befbeb" y="48.4586392185"/>
      </g>
     </g>
     <g id="line2d_20">
      <g>
       <use style="stroke:#000000;stroke-width:0.5;" x="183.6" xlink:href="#me4c00d151f" y="48.4586392185"/>
      </g>
     </g>
     <g id="text_10">
      <!-- $30$ -->
      <g transform="translate(28.9918787214 50.9468061511)scale(0.1 -0.1)">
       <use transform="scale(0.9962640099626402)" xlink:href="#CMR17-51"/>
       <use transform="translate(45.69047711706103 0.0)scale(0.9962640099626402)" xlink:href="#CMR17-48"/>
      </g>
     </g>
    </g>
    <g id="ytick_5">
     <g id="line2d_21">
      <g>
       <use style="stroke:#000000;stroke-width:0.5;" x="42.9545492246" xlink:href="#m6115befbeb" y="21.5596112053"/>
      </g>
     </g>
     <g id="line2d_22">
      <g>
       <use style="stroke:#000000;stroke-width:0.5;" x="183.6" xlink:href="#me4c00d151f" y="21.5596112053"/>
      </g>
     </g>
     <g id="text_11">
      <!-- $60$ -->
      <g transform="translate(28.9918787214 24.0477781379)scale(0.1 -0.1)">
       <use transform="scale(0.9962640099626402)" xlink:href="#CMR17-54"/>
       <use transform="translate(45.69047711706103 0.0)scale(0.9962640099626402)" xlink:href="#CMR17-48"/>
      </g>
     </g>
    </g>
    <g id="text_12">
     <!-- $x_2$ -->
     <defs>
      <path d="M 41.703125 15.453125 
L 39.90625 15.453125 
C 38.90625 8.375 38.09375 7.171875 37.703125 6.5625 
C 37.203125 5.765625 30 5.765625 28.59375 5.765625 
L 9.40625 5.765625 
C 13 9.671875 20 16.75 28.5 24.953125 
C 34.59375 30.734375 41.703125 37.53125 41.703125 47.421875 
C 41.703125 59.21875 32.296875 66 21.796875 66 
C 10.796875 66 4.09375 56.3125 4.09375 47.34375 
C 4.09375 43.4375 7 42.9375 8.203125 42.9375 
C 9.203125 42.9375 12.203125 43.546875 12.203125 47.03125 
C 12.203125 50.109375 9.59375 51 8.203125 51 
C 7.59375 51 7 50.90625 6.59375 50.703125 
C 8.5 59.21875 14.296875 63.40625 20.40625 63.40625 
C 29.09375 63.40625 34.796875 56.515625 34.796875 47.421875 
C 34.796875 38.734375 29.703125 31.25 24 24.75 
L 4.09375 2.28125 
L 4.09375 0 
L 39.296875 0 
z
" id="CMR17-50"/>
     </defs>
     <g transform="translate(10.8 72.8112926744)scale(0.12 -0.12)">
      <use transform="translate(0.0 14.943914544092467)scale(0.9962640099626402)" xlink:href="#CMMI12-120"/>
      <use transform="translate(55.43405953261208 0.0)scale(0.6973817666173724)" xlink:href="#CMR17-50"/>
     </g>
    </g>
   </g>
   <g id="legend_1">
    <g id="line2d_23">
     <path d="M 192.505734 26.366376 
L 195.4 26.366376 
" style="fill:none;stroke:#2980b9;stroke-linecap:square;"/>
    </g>
    <g id="line2d_24"/>
    <g id="text_13">
     <!-- $\mathbf{y}(t)$ -->
     <defs>
      <path d="M 26.296875 24.671875 
C 26.296875 31.84375 25.59375 43.984375 19.59375 56.828125 
C 14.796875 67.1875 6.59375 74.453125 5.40625 74.453125 
C 5.09375 74.453125 4.703125 74.34375 4.703125 73.859375 
C 4.703125 73.671875 4.796875 73.5625 4.90625 73.359375 
C 9.703125 68.390625 21.90625 55.75 21.90625 24.796875 
C 21.90625 -6.28125 9.796875 -18.921875 4.90625 -23.90625 
C 4.796875 -24.09375 4.703125 -24.203125 4.703125 -24.390625 
C 4.703125 -24.890625 5.09375 -25 5.40625 -25 
C 6.5 -25 15 -17.625 19.90625 -6.671875 
C 24.90625 4.375 26.296875 15.125 26.296875 24.671875 
" id="CMR17-41"/>
      <path d="M 20.09375 40.09375 
L 29.296875 40.09375 
C 31.203125 40.09375 32.203125 40.09375 32.203125 41.890625 
C 32.203125 43 31.59375 43 29.59375 43 
L 20.796875 43 
L 24.5 57.6875 
C 24.90625 59.078125 24.90625 59.28125 24.90625 60 
C 24.90625 61.609375 23.59375 62.5 22.296875 62.5 
C 21.5 62.5 19.203125 62.203125 18.40625 58.984375 
L 14.5 43 
L 5.09375 43 
C 3.09375 43 2.203125 43 2.203125 41.09375 
C 2.203125 40.09375 2.90625 40.09375 4.796875 40.09375 
L 13.703125 40.09375 
L 7.09375 13.765625 
C 6.296875 10.28125 6 9.28125 6 7.984375 
C 6 3.296875 9.296875 -1 14.90625 -1 
C 25 -1 30.40625 13.578125 30.40625 14.265625 
C 30.40625 14.875 30 15.171875 29.40625 15.171875 
C 29.203125 15.171875 28.796875 15.171875 28.59375 14.765625 
C 28.5 14.671875 28.40625 14.5625 27.703125 12.96875 
C 25.59375 7.984375 21 1 15.203125 1 
C 12.203125 1 12 3.5 12 5.6875 
C 12 5.78125 12 7.6875 12.296875 8.875 
z
" id="CMMI12-116"/>
      <path d="M 49.5 37.828125 
C 50.09375 39.203125 50.5 40 56.90625 40 
L 56.90625 44.171875 
C 53.5 44.171875 53.09375 44.171875 49 44.171875 
C 46.296875 44.171875 46.09375 44.171875 40.40625 44.171875 
L 40.40625 40 
C 40.5 40 45.203125 40 45.203125 38.703125 
C 45.203125 38.40625 44.90625 37.828125 44.796875 37.53125 
L 33.09375 12.578125 
L 20.296875 40 
L 25.796875 40 
L 25.796875 44.265625 
C 23.40625 44.171875 16.59375 44.171875 13.796875 44.171875 
C 10.90625 44.171875 5 44.171875 2.40625 44.265625 
L 2.40625 40 
L 8.796875 40 
L 27.296875 0.3125 
C 26.796875 -0.875 25.40625 -3.75 24.90625 -4.9375 
C 22.796875 -9.390625 19.59375 -16.21875 12.59375 -16.21875 
C 12.203125 -16.21875 11 -16.21875 9.90625 -15.625 
C 10.09375 -15.515625 13.09375 -14.328125 13.09375 -10.5625 
C 13.09375 -7.3125 10.703125 -5.234375 7.703125 -5.234375 
C 4.59375 -5.234375 2.203125 -7.328125 2.203125 -10.6875 
C 2.203125 -15.34375 6.59375 -19.5 12.59375 -19.5 
C 20.796875 -19.5 26.203125 -12.171875 28.203125 -7.8125 
z
" id="CMBX12-121"/>
      <path d="M 30.59375 -24.40625 
C 30.59375 -24.3125 30.59375 -24.109375 30.296875 -23.8125 
C 25.703125 -19.140625 13.40625 -6.390625 13.40625 24.671875 
C 13.40625 55.75 25.5 68.390625 30.40625 73.359375 
C 30.40625 73.46875 30.59375 73.671875 30.59375 73.953125 
C 30.59375 74.25 30.296875 74.453125 29.90625 74.453125 
C 28.796875 74.453125 20.296875 67.078125 15.40625 56.125 
C 10.40625 45.078125 9 34.328125 9 24.78125 
C 9 17.609375 9.703125 5.46875 15.703125 -7.375 
C 20.5 -17.734375 28.703125 -25 29.90625 -25 
C 30.40625 -25 30.59375 -24.796875 30.59375 -24.40625 
" id="CMR17-40"/>
     </defs>
     <g transform="translate(222.505733687 30.5663760897)scale(0.12 -0.12)">
      <use transform="scale(0.9962640099626402)" xlink:href="#CMBX12-121"/>
      <use transform="translate(60.709838107098385 0.0)scale(0.9962640099626402)" xlink:href="#CMR17-40"/>
      <use transform="translate(95.99060590656134 0.0)scale(0.9962640099626402)" xlink:href="#CMMI12-116"/>
      <use transform="translate(131.2169361233266 0.0)scale(0.9962640099626402)" xlink:href="#CMR17-41"/>
     </g>
    </g>
    <g id="line2d_25">
     <path d="M 192.505734 44.321544 
L 195.4 44.321544 
" style="fill:none;stroke:#e74c3c;stroke-linecap:square;"/>
    </g>
    <g id="line2d_26"/>
    <g id="text_14">
     <!-- $\mathbf{x}(t)$ -->
     <defs>
      <path d="M 33.703125 24.484375 
L 45.296875 37.734375 
C 46.40625 39.03125 47.296875 39.828125 55.59375 39.828125 
L 55.59375 44 
C 50 44 49.796875 44 46.40625 44 
C 43.5 44 39.203125 44 36.40625 44.09375 
L 36.40625 39.828125 
C 38.296875 39.828125 40.40625 39.328125 40.40625 38.625 
C 40.40625 38.4375 39.90625 37.734375 39.703125 37.53125 
L 31 27.78125 
L 21.09375 39.828125 
L 25.296875 39.828125 
L 25.296875 44.09375 
C 23 44 16.203125 44 13.5 44 
C 10.5 44 5.09375 44 2.296875 44.09375 
L 2.296875 39.828125 
L 9.40625 39.828125 
L 25 20.90625 
L 12 6.265625 
C 10.796875 4.875 10.09375 4.171875 1.796875 4.171875 
L 1.796875 0 
C 7.796875 0 8 0 11.09375 0 
C 14 0 18.203125 0 21 -0.09375 
L 21 4.171875 
C 19.09375 4.171875 17 4.671875 17 5.375 
C 17 5.46875 17 5.5625 17.703125 6.359375 
L 27.703125 17.625 
L 38.796875 4.171875 
L 34.59375 4.171875 
L 34.59375 -0.09375 
C 37 0 43.703125 0 46.5 0 
C 49.5 0 54.796875 0 57.59375 -0.09375 
L 57.59375 4.171875 
L 50.59375 4.171875 
z
" id="CMBX12-120"/>
     </defs>
     <g transform="translate(222.505733687 48.5215442092)scale(0.12 -0.12)">
      <use transform="scale(0.9962640099626402)" xlink:href="#CMBX12-120"/>
      <use transform="translate(59.15317559153176 0.0)scale(0.9962640099626402)" xlink:href="#CMR17-40"/>
      <use transform="translate(94.43394339099471 0.0)scale(0.9962640099626402)" xlink:href="#CMMI12-116"/>
      <use transform="translate(129.66027360775996 0.0)scale(0.9962640099626402)" xlink:href="#CMR17-41"/>
     </g>
    </g>
   </g>
  </g>
 </g>
 <defs>
  <clipPath id="p1f6800d8c0">
   <rect height="129.115334464" width="140.645450775" x="42.9545492246" y="10.8"/>
  </clipPath>
 </defs>
</svg>
